<svg width="205" height="30" viewBox="0 0 205 30" fill="none" xmlns="http://www.w3.org/2000/svg">
<g id="Dark Logo 1" clip-path="url(#clip0_54_3154)">
<g id="Layer 2">
<g id="Layer 1">
<path id="Vector" d="M3.23411 0H11.7123C12.5104 0.000420713 13.294 0.213949 13.9832 0.618778C14.6724 1.02361 15.2425 1.60523 15.6353 2.30426L17.8969 6.33042L14.6187 12.2021L10.8805 5.59819H0.853035L0.432878 4.86538C-0.801438 2.69955 0.752402 0 3.23411 0Z" fill="#09090B"/>
<path id="Vector_2" d="M6.0266 8.80973H9.23889L14.5264 17.8923L23.8051 1.92212C24.145 1.33717 24.6312 0.851948 25.2153 0.514731C25.7994 0.177514 26.4611 5.23954e-05 27.1345 0L36.6753 0C38.9307 0 40.389 2.39865 39.3622 4.41917L38.5094 6.10103L28.478 5.59818L14.5275 30L4.28116 11.8199C3.52499 10.475 4.49152 8.80973 6.0266 8.80973Z" fill="#09090B"/>
<path id="Vector_3" d="M30.1188 8.62381H36.5928L27.8684 24.3829C26.5852 26.7015 23.3007 26.7856 21.9027 24.5345L21.366 23.6696L30.1188 8.62381Z" fill="#09090B"/>
<path id="Vector_4" d="M77.2155 7.9671L70.9438 27.2564H66.1788L61.9613 14.1951L57.6068 27.2564H52.8691L46.5702 7.9671H51.1692L55.4964 21.5249L60.0152 7.9671H64.123L68.5048 21.6348L72.969 7.9671H77.2155Z" fill="#09090B"/>
<path id="Vector_5" d="M91.9494 21.0564H80.8059C81.2164 22.9024 82.7776 24.0311 85.0233 24.0311C86.584 24.0311 87.7069 23.5626 88.7189 22.5981L90.9931 25.078C89.6235 26.6489 87.5693 27.4755 84.9131 27.4755C79.8194 27.4755 76.5054 24.2514 76.5054 19.8425C76.5054 15.4062 79.874 12.2101 84.3655 12.2101C88.6922 12.2101 92.0335 15.1276 92.0335 19.898C92.0318 20.2298 91.9773 20.6983 91.9494 21.0564ZM80.749 18.5485H88.0065C87.7052 16.675 86.3088 15.4622 84.3917 15.4622C82.4467 15.4622 81.0498 16.647 80.7484 18.5485H80.749Z" fill="#09090B"/>
<path id="Vector_6" d="M110.241 19.8436C110.241 24.5008 107.037 27.4766 102.902 27.4766C100.93 27.4766 99.3416 26.8428 98.2739 25.5477V27.2564H94.1929V6.80753H98.4655V14.0023C99.5605 12.7896 101.067 12.2112 102.9 12.2112C107.04 12.2112 110.241 15.1871 110.241 19.8436ZM105.915 19.8436C105.915 17.2814 104.299 15.738 102.162 15.738C100.026 15.738 98.4098 17.2825 98.4098 19.8436C98.4098 22.4048 100.026 23.9493 102.162 23.9493C104.299 23.9493 105.917 22.4065 105.917 19.8436H105.915Z" fill="#09090B"/>
<path id="Vector_7" d="M110.983 25.8783L112.405 22.792C113.72 23.6467 115.719 24.2251 117.526 24.2251C119.498 24.2251 120.238 23.7016 120.238 22.875C120.238 20.45 111.337 22.9322 111.337 17.0057C111.337 14.1951 113.856 12.2112 118.156 12.2112C120.182 12.2112 122.428 12.6792 123.825 13.5058L122.401 16.5646C120.949 15.738 119.498 15.4622 118.156 15.4622C116.239 15.4622 115.417 16.0686 115.417 16.8403C115.417 19.3751 124.318 16.9227 124.318 22.7646C124.318 25.5202 121.771 27.4766 117.362 27.4766C114.872 27.4766 112.352 26.7879 110.983 25.8783Z" fill="#09090B"/>
<path id="Vector_8" d="M135.769 26.5396C134.893 27.1734 133.609 27.4766 132.291 27.4766C128.813 27.4766 126.787 25.6855 126.787 22.1565V16.0686H124.512V12.7621H126.787V9.15295H131.059V12.7627H134.729V16.0692H131.059V22.1033C131.059 23.3709 131.744 24.0597 132.894 24.0597C133.524 24.0597 134.153 23.8669 134.619 23.5088L135.769 26.5396Z" fill="#09090B"/>
<path id="Vector_9" d="M152.555 18.7693V27.2564H148.283V19.4306C148.283 17.0331 147.188 15.9307 145.298 15.9307C143.244 15.9307 141.765 17.1984 141.765 19.9266V27.2564H137.493V6.80753H141.765V13.9743C142.915 12.817 144.559 12.2112 146.448 12.2112C149.926 12.2112 152.555 14.25 152.555 18.7693Z" fill="#09090B"/>
<path id="Vector_10" d="M170.247 21.0564H159.101C159.512 22.9024 161.072 24.0311 163.318 24.0311C164.879 24.0311 166.002 23.5626 167.014 22.5981L169.288 25.078C167.919 26.6489 165.865 27.4755 163.208 27.4755C158.114 27.4755 154.801 24.2514 154.801 19.8425C154.801 15.4062 158.169 12.2101 162.66 12.2101C166.987 12.2101 170.329 15.1276 170.329 19.898C170.329 20.2298 170.274 20.6983 170.247 21.0564ZM159.047 18.5485H166.304C166.003 16.675 164.606 15.4622 162.689 15.4622C160.744 15.4622 159.347 16.647 159.046 18.5485H159.047Z" fill="#09090B"/>
<path id="Vector_11" d="M181.996 26.5396C181.119 27.1734 179.832 27.4766 178.518 27.4766C175.04 27.4766 173.013 25.6855 173.013 22.1565V16.0686H170.739V12.7621H173.013V9.15295H177.286V12.7627H180.955V16.0692H177.286V22.1033C177.286 23.3709 177.968 24.0597 179.12 24.0597C179.75 24.0597 180.38 23.8669 180.845 23.5088L181.996 26.5396Z" fill="#09090B"/>
<path id="Vector_12" d="M183.201 7.96709C183.201 6.61703 184.269 5.57016 185.857 5.57016C187.445 5.57016 188.514 6.56211 188.514 7.88472C188.514 9.31487 187.446 10.3646 185.857 10.3646C184.269 10.3646 183.201 9.31773 183.201 7.96709ZM183.721 12.4292H187.994V27.2564H183.721V12.4292Z" fill="#09090B"/>
<path id="Vector_13" d="M190.184 19.8436C190.184 15.3816 193.607 12.2112 198.4 12.2112C201.495 12.2112 203.932 13.5613 205 15.9868L201.686 17.7779C200.891 16.3724 199.715 15.7385 198.373 15.7385C196.209 15.7385 194.511 17.2539 194.511 19.8442C194.511 22.4345 196.209 23.9499 198.373 23.9499C199.715 23.9499 200.892 23.3441 201.686 21.9111L205 23.7297C203.932 26.0997 201.495 27.4772 198.4 27.4772C193.607 27.4766 190.184 24.308 190.184 19.8436Z" fill="#09090B"/>
</g>
</g>
</g>
<defs>
<clipPath id="clip0_54_3154">
<rect width="205" height="30" fill="white"/>
</clipPath>
</defs>
</svg>
