<svg width="16" height="17" viewBox="0 0 16 17" fill="none" xmlns="http://www.w3.org/2000/svg">
<g id="Frame">
<path id="Vector" d="M14.5 5V12C14.5 12.3978 14.342 12.7794 14.0607 13.0607C13.7794 13.342 13.3978 13.5 13 13.5H3C2.60218 13.5 2.22064 13.342 1.93934 13.0607C1.65804 12.7794 1.5 12.3978 1.5 12V5M14.5 5C14.5 4.60218 14.342 4.22064 14.0607 3.93934C13.7794 3.65804 13.3978 3.5 13 3.5H3C2.60218 3.5 2.22064 3.65804 1.93934 3.93934C1.65804 4.22064 1.5 4.60218 1.5 5M14.5 5V5.162C14.5 5.4181 14.4345 5.66994 14.3096 5.89353C14.1848 6.11712 14.0047 6.30502 13.7867 6.43933L8.78667 9.516C8.55014 9.66169 8.2778 9.73883 8 9.73883C7.7222 9.73883 7.44986 9.66169 7.21333 9.516L2.21333 6.44C1.99528 6.30569 1.81525 6.11779 1.69038 5.8942C1.56551 5.6706 1.49997 5.41876 1.5 5.16267V5" stroke="black" stroke-width="1.5" stroke-linecap="round" stroke-linejoin="round"/>
</g>
</svg>
