<svg width="41" height="40" viewBox="0 0 41 40" fill="none" xmlns="http://www.w3.org/2000/svg">
<g id="insta">
<circle id="bg" cx="20.9648" cy="20" r="20" fill="url(#paint0_linear_81_18686)"/>
<path id="icon insta" d="M21.0898 16.207C21.793 16.207 22.4609 16.418 23.0938 16.7695C23.7266 17.1211 24.2188 17.6133 24.5703 18.2461C24.9219 18.8789 25.1328 19.5469 25.1328 20.25C25.1328 20.9883 24.9219 21.6562 24.5703 22.2891C24.2188 22.9219 23.7266 23.4141 23.0938 23.7656C22.4609 24.1172 21.793 24.293 21.0898 24.293C20.3516 24.293 19.6836 24.1172 19.0508 23.7656C18.418 23.4141 17.9258 22.9219 17.5742 22.2891C17.2227 21.6562 17.0469 20.9883 17.0469 20.25C17.0469 19.5469 17.2227 18.8789 17.5742 18.2461C17.9258 17.6133 18.418 17.1211 19.0508 16.7695C19.6836 16.418 20.3516 16.207 21.0898 16.207ZM21.0898 22.8867C21.793 22.8867 22.4258 22.6406 22.9531 22.1133C23.4453 21.6211 23.7266 20.9883 23.7266 20.25C23.7266 19.5469 23.4453 18.9141 22.9531 18.3867C22.4258 17.8945 21.793 17.6133 21.0898 17.6133C20.3516 17.6133 19.7188 17.8945 19.2266 18.3867C18.6992 18.9141 18.4531 19.5469 18.4531 20.25C18.4531 20.9883 18.6992 21.6211 19.2266 22.1133C19.7188 22.6406 20.3516 22.8867 21.0898 22.8867ZM26.2578 16.0312C26.2578 15.7852 26.1523 15.5742 25.9766 15.3633C25.7656 15.1875 25.5547 15.082 25.3086 15.082C25.0273 15.082 24.8164 15.1875 24.6406 15.3633C24.4297 15.5742 24.3594 15.7852 24.3594 16.0312C24.3594 16.3125 24.4297 16.5234 24.6406 16.6992C24.8164 16.9102 25.0273 16.9805 25.3086 16.9805C25.5547 16.9805 25.7656 16.9102 25.9414 16.6992C26.1172 16.5234 26.2227 16.3125 26.2578 16.0312ZM28.9297 16.9805C28.9297 17.6484 28.9648 18.7383 28.9648 20.25C28.9648 21.7969 28.9297 22.8867 28.8945 23.5547C28.8594 24.2227 28.7539 24.7852 28.6133 25.2773C28.4023 25.875 28.0508 26.4023 27.6289 26.8242C27.207 27.2461 26.6797 27.5625 26.1172 27.7734C25.625 27.9492 25.0273 28.0547 24.3594 28.0898C23.6914 28.125 22.6016 28.125 21.0898 28.125C19.543 28.125 18.4531 28.125 17.7852 28.0898C17.1172 28.0547 16.5547 27.9492 16.0625 27.7383C15.4648 27.5625 14.9375 27.2461 14.5156 26.8242C14.0938 26.4023 13.7773 25.875 13.5664 25.2773C13.3906 24.7852 13.2852 24.2227 13.25 23.5547C13.2148 22.8867 13.2148 21.7969 13.2148 20.25C13.2148 18.7383 13.2148 17.6484 13.25 16.9805C13.2852 16.3125 13.3906 15.7148 13.5664 15.2227C13.7773 14.6602 14.0938 14.1328 14.5156 13.7109C14.9375 13.2891 15.4648 12.9375 16.0625 12.7266C16.5547 12.5859 17.1172 12.4805 17.7852 12.4453C18.4531 12.4102 19.543 12.375 21.0898 12.375C22.6016 12.375 23.6914 12.4102 24.3594 12.4453C25.0273 12.4805 25.625 12.5859 26.1172 12.7266C26.6797 12.9375 27.207 13.2891 27.6289 13.7109C28.0508 14.1328 28.4023 14.6602 28.6133 15.2227C28.7539 15.7148 28.8594 16.3125 28.9297 16.9805ZM27.2422 24.8906C27.3828 24.5039 27.4531 23.8711 27.5234 22.9922C27.5234 22.5 27.5586 21.7617 27.5586 20.8125V19.6875C27.5586 18.7383 27.5234 18 27.5234 17.5078C27.4531 16.6289 27.3828 15.9961 27.2422 15.6094C26.9609 14.9062 26.4336 14.3789 25.7305 14.0977C25.3438 13.957 24.7109 13.8867 23.832 13.8164C23.3047 13.8164 22.5664 13.7812 21.6523 13.7812H20.5273C19.5781 13.7812 18.8398 13.8164 18.3477 13.8164C17.4688 13.8867 16.8359 13.957 16.4492 14.0977C15.7109 14.3789 15.2188 14.9062 14.9375 15.6094C14.7969 15.9961 14.6914 16.6289 14.6562 17.5078C14.6211 18.0352 14.6211 18.7734 14.6211 19.6875V20.8125C14.6211 21.7617 14.6211 22.5 14.6562 22.9922C14.6914 23.8711 14.7969 24.5039 14.9375 24.8906C15.2188 25.6289 15.7461 26.1211 16.4492 26.4023C16.8359 26.543 17.4688 26.6484 18.3477 26.6836C18.8398 26.7188 19.5781 26.7188 20.5273 26.7188H21.6523C22.6016 26.7188 23.3398 26.7188 23.832 26.6836C24.7109 26.6484 25.3438 26.543 25.7305 26.4023C26.4336 26.1211 26.9609 25.5938 27.2422 24.8906Z" fill="white"/>
</g>
<defs>
<linearGradient id="paint0_linear_81_18686" x1="0.964844" y1="20" x2="40.9648" y2="20" gradientUnits="userSpaceOnUse">
<stop stop-color="#F12711"/>
<stop offset="1" stop-color="#F5AF19"/>
</linearGradient>
</defs>
</svg>
