<svg width="211" height="175" viewBox="0 0 211 175" fill="none" xmlns="http://www.w3.org/2000/svg">
<g id="Mobile First Design 2" clip-path="url(#clip0_54_3262)">
<path id="Vector" d="M138.817 0.5H77.7946C68.3037 0.5 60.6099 8.17208 60.6099 17.6361V156.684C60.6099 166.148 68.3037 173.82 77.7946 173.82H138.817C148.308 173.82 156.002 166.148 156.002 156.684V17.6361C156.002 8.17208 148.308 0.5 138.817 0.5Z" fill="#3F3D56"/>
<path id="Vector_2" d="M154.393 17.6372V156.684C154.388 160.802 152.745 164.75 149.825 167.662C146.905 170.574 142.946 172.211 138.817 172.216H77.7953C73.6658 172.211 69.7068 170.574 66.7868 167.662C63.8668 164.75 62.2243 160.802 62.2195 156.684V17.6372C62.2243 13.5194 63.8668 9.5716 66.7868 6.65987C69.7068 3.74814 73.6658 2.11024 77.7953 2.10547H85.7749V4.85409C85.7749 6.09844 86.2707 7.2918 87.1531 8.17168C88.0355 9.05157 89.2322 9.54592 90.4801 9.54599H126.132C127.38 9.54592 128.577 9.05157 129.459 8.17168C130.342 7.2918 130.837 6.09844 130.837 4.85409V2.10547H138.817C142.946 2.11024 146.905 3.74814 149.825 6.65987C152.745 9.5716 154.388 13.5194 154.393 17.6372Z" fill="white"/>
<path id="Vector_3" d="M60.1709 35.6601C59.8606 35.6598 59.5631 35.5367 59.3437 35.3179C59.1243 35.0991 59.0008 34.8024 59.0005 34.493V32.1587C59.0005 31.8492 59.1238 31.5523 59.3433 31.3334C59.5628 31.1145 59.8605 30.9916 60.1709 30.9916C60.4814 30.9916 60.7791 31.1145 60.9986 31.3334C61.2181 31.5523 61.3414 31.8492 61.3414 32.1587V34.493C61.341 34.8024 61.2176 35.0991 60.9982 35.3179C60.7788 35.5367 60.4813 35.6598 60.1709 35.6601Z" fill="#3F3D56"/>
<path id="Vector_4" d="M60.1709 47.6296C59.8606 47.6292 59.5631 47.5061 59.3437 47.2873C59.1243 47.0685 59.0008 46.7719 59.0005 46.4624V40.0369C59.0005 39.7273 59.1238 39.4305 59.3433 39.2116C59.5628 38.9927 59.8605 38.8698 60.1709 38.8698C60.4814 38.8698 60.7791 38.9927 60.9986 39.2116C61.2181 39.4305 61.3414 39.7273 61.3414 40.0369V46.4624C61.341 46.7719 61.2176 47.0685 60.9982 47.2873C60.7788 47.5061 60.4813 47.6292 60.1709 47.6296Z" fill="#3F3D56"/>
<path id="Vector_5" d="M60.1709 57.2523C59.8606 57.2519 59.5631 57.1288 59.3437 56.91C59.1243 56.6912 59.0008 56.3945 59.0005 56.0851V49.6596C59.0005 49.35 59.1238 49.0532 59.3433 48.8343C59.5628 48.6154 59.8605 48.4924 60.1709 48.4924C60.4814 48.4924 60.7791 48.6154 60.9986 48.8343C61.2181 49.0532 61.3414 49.35 61.3414 49.6596V56.0851C61.341 56.3945 61.2176 56.6912 60.9982 56.91C60.7788 57.1288 60.4813 57.2519 60.1709 57.2523Z" fill="#3F3D56"/>
<path id="Vector_6" d="M156.148 52.0001C155.838 51.9997 155.54 51.8766 155.321 51.6578C155.102 51.439 154.978 51.1424 154.978 50.8329V35.1543C154.978 34.8448 155.101 34.5479 155.321 34.329C155.54 34.1101 155.838 33.9872 156.148 33.9872C156.459 33.9872 156.756 34.1101 156.976 34.329C157.195 34.5479 157.319 34.8448 157.319 35.1543V50.8329C157.318 51.1424 157.195 51.439 156.975 51.6578C156.756 51.8766 156.459 51.9997 156.148 52.0001Z" fill="#3F3D56"/>
<path id="Vector_7" d="M110.82 5.85309H101.749C101.555 5.85309 101.369 5.77624 101.232 5.63943C101.095 5.50263 101.018 5.31709 101.018 5.12363C101.018 4.93016 101.095 4.74462 101.232 4.60782C101.369 4.47102 101.555 4.39417 101.749 4.39417H110.82C111.014 4.39417 111.2 4.47102 111.338 4.60782C111.475 4.74462 111.552 4.93016 111.552 5.12363C111.552 5.31709 111.475 5.50263 111.338 5.63943C111.2 5.77624 111.014 5.85309 110.82 5.85309Z" fill="white"/>
<path id="Vector_8" d="M115.502 5.70718C115.825 5.70718 116.087 5.44591 116.087 5.12361C116.087 4.80131 115.825 4.54004 115.502 4.54004C115.179 4.54004 114.917 4.80131 114.917 5.12361C114.917 5.44591 115.179 5.70718 115.502 5.70718Z" fill="white"/>
<path id="Vector_9" d="M185.818 166.531C186.032 166.539 186.243 166.481 186.423 166.365C186.602 166.249 186.742 166.081 186.822 165.884C186.903 165.686 186.921 165.469 186.873 165.261C186.826 165.053 186.715 164.865 186.557 164.721C186.53 164.617 186.51 164.543 186.483 164.439C186.682 163.919 187.033 163.471 187.49 163.151C187.946 162.831 188.488 162.655 189.046 162.644C189.604 162.633 190.153 162.789 190.621 163.092C191.09 163.394 191.457 163.829 191.676 164.341C192.94 167.213 194.568 170.184 193.803 173.369C198.951 162.215 197.032 148.419 189.176 138.997C187.019 137.838 185.259 135.76 184.783 133.332C185.849 133.681 187.165 132.807 186.355 131.699C186.005 131.275 185.652 130.856 185.301 130.432C189.295 126.109 194.168 132.798 189.781 138.624C191.252 140.427 192.529 142.378 193.592 144.445C193.33 142.242 193.597 140.007 194.369 137.926C195.154 135.986 196.644 134.345 197.954 132.661C199.547 130.611 202.874 131.518 203.116 134.099C201.633 134.601 201.46 136.746 203.164 137.023C202.765 141.833 199.658 146.279 195.342 148.427C196.986 152.892 197.657 157.656 197.31 162.399C198.023 156.852 203.973 155.451 208.121 153.21C208.384 153.038 208.692 152.946 209.008 152.945C209.323 152.945 209.631 153.036 209.895 153.207C210.16 153.379 210.368 153.623 210.495 153.91C210.623 154.198 210.663 154.516 210.612 154.826C210.039 155.065 209.491 155.36 208.977 155.707C208.736 155.872 208.552 156.107 208.45 156.38C208.348 156.654 208.334 156.952 208.409 157.234C208.483 157.516 208.644 157.768 208.868 157.955C209.092 158.142 209.369 158.256 209.66 158.281C207.608 163.486 202.21 167.019 196.63 167.053C196.116 169.381 195.361 171.65 194.377 173.822L186.096 173.901C186.066 173.81 186.038 173.715 186.011 173.624C186.777 173.664 187.546 173.611 188.3 173.466C186.25 171.091 184.67 169.884 185.818 166.531Z" fill="#F2F2F2"/>
<path id="Vector_10" d="M25.5378 166.531C25.3241 166.539 25.1132 166.481 24.9336 166.365C24.7541 166.249 24.6145 166.081 24.5339 165.884C24.4533 165.686 24.4356 165.469 24.483 165.261C24.5305 165.053 24.6409 164.865 24.7993 164.721C24.8266 164.617 24.8461 164.543 24.8734 164.439C24.674 163.919 24.3234 163.471 23.8667 163.151C23.4099 162.831 22.8678 162.655 22.3099 162.644C21.7519 162.633 21.2035 162.789 20.7349 163.092C20.2664 163.394 19.899 163.829 19.6799 164.341C18.4165 167.213 16.7885 170.184 17.5536 173.369C12.4054 162.215 14.3242 148.419 22.1799 138.997C24.3376 137.838 26.0973 135.76 26.5734 133.332C25.5077 133.681 24.1915 132.807 25.0008 131.699C25.3511 131.275 25.7047 130.856 26.0549 130.432C22.0607 126.109 17.1886 132.798 21.5749 138.624C20.1046 140.427 18.8273 142.378 17.7639 144.445C18.026 142.242 17.7596 140.007 16.9868 137.926C16.202 135.986 14.7118 134.345 13.4018 132.661C11.8091 130.611 8.48211 131.518 8.24051 134.099C9.72368 134.601 9.8965 136.746 8.1918 137.023C8.59167 141.833 11.6978 146.279 16.0139 148.427C14.3698 152.892 13.699 157.656 14.0461 162.399C13.3336 156.852 7.38291 155.451 3.23569 153.21C2.97201 153.038 2.66379 152.946 2.34862 152.945C2.03344 152.945 1.72494 153.036 1.46075 153.207C1.19655 153.379 0.988086 153.623 0.860777 153.91C0.733467 154.198 0.692817 154.516 0.743787 154.826C1.31686 155.065 1.86474 155.36 2.37934 155.707C2.62045 155.872 2.80448 156.107 2.90621 156.38C3.00794 156.654 3.02239 156.952 2.94758 157.234C2.87276 157.516 2.71235 157.768 2.48832 157.955C2.26429 158.142 1.98762 158.256 1.69623 158.281C3.74777 163.486 9.14662 167.019 14.7259 167.053C15.2398 169.381 15.9951 171.65 16.9794 173.822L25.2599 173.901C25.2905 173.81 25.3181 173.715 25.3457 173.624C24.5788 173.664 23.8097 173.611 23.0557 173.466C25.1064 171.091 26.6863 169.884 25.5381 166.531L25.5378 166.531Z" fill="#F2F2F2"/>
<path id="Vector_11" d="M82.2884 8.98304H74.3879C73.9998 8.98304 73.6277 8.82933 73.3533 8.55573C73.079 8.28213 72.9248 7.91104 72.9248 7.52411C72.9248 7.13718 73.079 6.7661 73.3533 6.49249C73.6277 6.21889 73.9998 6.06519 74.3879 6.06519H82.2884C82.6765 6.06519 83.0486 6.21889 83.323 6.49249C83.5974 6.7661 83.7515 7.13718 83.7515 7.52411C83.7515 7.91104 83.5974 8.28213 83.323 8.55573C83.0486 8.82933 82.6765 8.98304 82.2884 8.98304Z" fill="#E6E6E6"/>
<path id="Vector_12" d="M134.081 8.83725C134.808 8.83725 135.398 8.24938 135.398 7.52421C135.398 6.79905 134.808 6.21118 134.081 6.21118C133.354 6.21118 132.764 6.79905 132.764 7.52421C132.764 8.24938 133.354 8.83725 134.081 8.83725Z" fill="#E6E6E6"/>
<path id="Vector_13" d="M138.178 8.83725C138.905 8.83725 139.494 8.24938 139.494 7.52421C139.494 6.79905 138.905 6.21118 138.178 6.21118C137.45 6.21118 136.861 6.79905 136.861 7.52421C136.861 8.24938 137.45 8.83725 138.178 8.83725Z" fill="#E6E6E6"/>
<path id="Vector_14" d="M142.274 8.83725C143.002 8.83725 143.591 8.24938 143.591 7.52421C143.591 6.79905 143.002 6.21118 142.274 6.21118C141.547 6.21118 140.958 6.79905 140.958 7.52421C140.958 8.24938 141.547 8.83725 142.274 8.83725Z" fill="#E6E6E6"/>
<path id="Vector_15" d="M133.16 29.3743H83.5039C82.542 29.3756 81.6199 29.7572 80.9397 30.4355C80.2595 31.1137 79.8768 32.0332 79.8755 32.9924V65.1792C79.8768 66.1384 80.2595 67.0579 80.9397 67.7362C81.6199 68.4144 82.542 68.796 83.5039 68.7974H133.16C134.122 68.7965 135.045 68.4151 135.725 67.7367C136.405 67.0584 136.788 66.1386 136.789 65.1792V32.9924C136.788 32.0331 136.405 31.1133 135.725 30.4349C135.045 29.7566 134.122 29.3751 133.16 29.3743Z" fill="#F2F2F2"/>
<path id="Vector_16" d="M117.615 43.1148C113.127 51.0265 108.175 58.667 102.785 65.9966H94.9974C100.098 59.8004 105.202 53.6042 110.31 47.408C111.776 45.6239 113.366 43.7549 115.564 43.0299L117.615 43.1148Z" fill="#3F3D56"/>
<path id="Vector_17" d="M107.266 41.8462C106.454 42.6901 105.676 43.568 104.943 44.4799C103.33 46.4169 101.739 48.3709 100.143 50.3192C99.1494 51.5313 98.1555 52.7433 97.1728 53.9554C96.8608 53.7555 96.5646 53.5321 96.2868 53.2871C94.7173 51.9287 93.7439 50.0114 93.575 47.9459C93.4061 45.8805 94.0553 43.8313 95.3834 42.2374C96.7114 40.6434 98.6128 39.6316 100.68 39.4188C102.747 39.2059 104.816 39.8089 106.442 41.0986C106.736 41.3266 107.011 41.5765 107.266 41.8462Z" fill="#F97316"/>
<path id="Vector_18" d="M136.789 40.926V42.1019L136.262 41.9093L128.85 39.2074C126.436 38.3291 124.028 37.3254 121.535 36.6922C119.366 36.0735 117.063 36.1029 114.91 36.7768C112.992 37.4847 111.236 38.5714 109.748 39.9719C109.09 40.5788 108.452 41.2003 107.835 41.8451C107.633 42.0581 107.431 42.2711 107.232 42.4842C106.635 43.1319 106.059 43.7943 105.511 44.48C103.899 46.4174 102.307 48.3724 100.713 50.3186C99.7177 51.5324 98.7228 52.7433 97.7396 53.9542C94.4565 57.9604 91.1929 61.9744 87.9487 65.9962C87.5118 65.9913 87.0769 65.9365 86.6525 65.8328C89.9619 61.7332 93.287 57.6443 96.6277 53.5662C96.7037 53.4728 96.7798 53.3794 96.8559 53.286C97.248 52.7988 97.6489 52.3086 98.0468 51.8213C99.7118 49.7875 101.378 47.7557 103.045 45.7259C104.256 44.2494 105.459 42.7672 106.764 41.3666C106.843 41.2762 106.925 41.1886 107.01 41.0982C107.135 40.964 107.261 40.8326 107.39 40.6955C110.225 37.7747 113.763 35.1924 118 35.1224C120.493 35.0845 122.901 35.8723 125.219 36.7039C127.715 37.6055 130.202 38.5217 132.695 39.4321L136.789 40.926Z" fill="#3F3D56"/>
<path id="Vector_19" d="M137.956 139.862H78.6558C77.6938 139.861 76.7716 139.479 76.0915 138.801C75.4113 138.123 75.0287 137.203 75.0276 136.244V128.275C75.0287 127.315 75.4113 126.396 76.0915 125.717C76.7716 125.039 77.6938 124.658 78.6558 124.657H137.956C138.918 124.658 139.841 125.039 140.521 125.717C141.201 126.396 141.583 127.315 141.585 128.275V136.244C141.583 137.203 141.201 138.123 140.521 138.801C139.841 139.479 138.918 139.861 137.956 139.862Z" fill="#F2F2F2"/>
<path id="Vector_20" d="M137.956 99.012H78.6558C77.6938 99.0109 76.7716 98.6294 76.0915 97.9511C75.4113 97.2729 75.0287 96.3533 75.0276 95.3941V87.4247C75.0287 86.4655 75.4113 85.5459 76.0915 84.8676C76.7716 84.1894 77.6938 83.8079 78.6558 83.8068H137.956C138.918 83.8079 139.841 84.1894 140.521 84.8676C141.201 85.5459 141.583 86.4655 141.585 87.4247V95.3941C141.583 96.3533 141.201 97.2729 140.521 97.9511C139.841 98.6294 138.918 99.0109 137.956 99.012Z" fill="#F2F2F2"/>
<path id="Vector_21" d="M137.956 119.437H78.6558C77.6938 119.436 76.7716 119.054 76.0915 118.376C75.4113 117.698 75.0287 116.778 75.0276 115.819V107.85C75.0287 106.89 75.4113 105.971 76.0915 105.293C76.7716 104.614 77.6938 104.233 78.6558 104.232H137.956C138.918 104.233 139.841 104.614 140.521 105.293C141.201 105.971 141.583 106.89 141.585 107.85V115.819C141.583 116.778 141.201 117.698 140.521 118.376C139.841 119.054 138.918 119.436 137.956 119.437Z" fill="#F2F2F2"/>
<path id="Vector_22" d="M115.511 130.895H98.0381C97.8308 130.895 97.632 130.813 97.4854 130.667C97.3388 130.521 97.2565 130.323 97.2565 130.116C97.2565 129.909 97.3388 129.711 97.4854 129.565C97.632 129.419 97.8308 129.336 98.0381 129.336H115.511C115.718 129.336 115.917 129.419 116.063 129.565C116.21 129.711 116.292 129.909 116.292 130.116C116.292 130.323 116.21 130.521 116.063 130.667C115.917 130.813 115.718 130.895 115.511 130.895Z" fill="white"/>
<path id="Vector_23" d="M132.315 135.182H97.8428C97.6355 135.182 97.4367 135.1 97.2901 134.954C97.1435 134.808 97.0612 134.609 97.0612 134.403C97.0612 134.196 97.1435 133.998 97.2901 133.852C97.4367 133.705 97.6355 133.623 97.8428 133.623H132.315C132.523 133.623 132.722 133.705 132.868 133.852C133.015 133.998 133.097 134.196 133.097 134.403C133.097 134.609 133.015 134.808 132.868 134.954C132.722 135.1 132.523 135.182 132.315 135.182Z" fill="white"/>
<path id="Vector_24" d="M88.7557 137.485C91.65 137.485 93.9962 135.145 93.9962 132.259C93.9962 129.373 91.65 127.034 88.7557 127.034C85.8614 127.034 83.5151 129.373 83.5151 132.259C83.5151 135.145 85.8614 137.485 88.7557 137.485Z" fill="white"/>
<path id="Vector_25" d="M87.5879 139.318C87.0531 139.069 86.4419 139.037 85.8843 139.231C85.3268 139.424 84.8669 139.827 84.6025 140.353C84.5504 140.461 84.5074 140.573 84.4738 140.688L76.5823 141.158L75.4127 145.235L86.1533 143.425C86.6419 143.527 87.1504 143.465 87.5997 143.248C88.049 143.031 88.4136 142.672 88.6368 142.227C88.7613 141.972 88.8344 141.696 88.8518 141.413C88.8692 141.131 88.8306 140.847 88.7381 140.58C88.6457 140.312 88.5013 140.065 88.3132 139.853C88.125 139.641 87.8968 139.467 87.6416 139.343C87.6238 139.335 87.6059 139.326 87.5879 139.318Z" fill="#FFB6B6"/>
<path id="Vector_26" d="M70.1689 119.208C69.6489 118.996 69.0891 118.898 68.5277 118.921C67.9663 118.944 67.4165 119.087 66.9155 119.34C66.4145 119.594 65.9742 119.952 65.6244 120.391C65.2747 120.829 65.0238 121.338 64.8887 121.882L62.7191 130.619L63.1272 145.903C63.1272 145.903 74.452 148.07 76.3531 146.677C78.2543 145.285 78.0757 144.248 78.2542 145.285C78.4328 146.321 79.2488 146.757 79.2601 146.344C79.2714 145.932 79.3637 146.002 79.8375 145.878C80.3112 145.754 82.4022 144.985 82.4022 144.985L82.4958 140.627C82.4958 140.627 79.039 139.32 78.2004 139.71C77.3617 140.1 78.3789 140.747 77.3617 140.1C76.3446 139.453 76.2334 137.411 76.0595 139.251C75.8856 141.092 75.3765 141.434 74.6139 140.616C73.8513 139.798 70.3181 140.321 70.3181 140.321L72.5664 123.33C72.6795 122.475 72.5056 121.607 72.0718 120.862C71.6381 120.116 70.969 119.535 70.1689 119.208Z" fill="#F97316"/>
<path id="Vector_27" d="M146.434 164.535L146.553 161.317L134.16 159.327L133.985 164.077L146.434 164.535Z" fill="#FFB6B6"/>
<path id="Vector_28" d="M144.185 165.504L144.067 160.351L146.276 160.432L149.843 155.668C150.019 155.433 150.266 155.26 150.548 155.175C150.829 155.089 151.131 155.096 151.409 155.193C151.687 155.291 151.926 155.475 152.091 155.717C152.257 155.96 152.34 156.249 152.33 156.543L152.103 162.664L149.879 163.639L152.049 164.131L151.963 166.44L144.185 165.504Z" fill="#2F2E41"/>
<path id="Vector_29" d="M76.6869 171.916L115.939 167.364C115.939 167.364 132.889 168.341 136.866 165.761L141.06 165.233L141.287 159.09C141.287 159.09 138.723 159.109 137.248 158.424C135.774 157.739 136.799 156.9 135.393 157.725C133.987 158.549 134.136 158.648 133.049 158.269C131.962 157.89 82.1194 155.859 82.1194 155.859L76.6869 171.916Z" fill="#2F2E41"/>
<path id="Vector_30" d="M128.411 169.25L130.693 166.971L122.965 157.108L119.597 160.471L128.411 169.25Z" fill="#FFB6B6"/>
<path id="Vector_31" d="M126.101 168.435L129.529 164.577L131.094 166.135L136.958 165.062C137.247 165.009 137.546 165.049 137.811 165.178C138.076 165.306 138.292 165.516 138.429 165.776C138.566 166.036 138.616 166.332 138.572 166.623C138.528 166.913 138.392 167.182 138.184 167.389L133.843 171.723L131.547 170.929L132.802 172.762L131.165 174.396L126.101 168.435Z" fill="#2F2E41"/>
<path id="Vector_32" d="M61.2009 150.48L61.5912 159.525C62.0505 170.173 73.8105 176.618 82.9294 171.058C83.0975 170.956 83.2662 170.849 83.4353 170.74C83.4353 170.74 86.8924 169.814 86.7874 168.348C86.6825 166.882 87.527 166.168 88.2744 166.568C89.0218 166.968 98.8074 153.12 98.8074 153.12C98.8074 153.12 119.139 163.232 123.624 165.613L128.356 164.327C128.356 164.327 130.138 165.166 129.496 163.953C128.854 162.74 128.739 163.321 128.542 161.999C128.345 160.677 127.841 159.038 127.535 159.107C127.229 159.176 102.383 141.835 102.383 141.835C102.383 141.835 98.3351 137.75 93.314 140.447C93.2094 140.843 93.2988 140.857 93.2988 140.857L76.7122 154.334L74.3685 149.896L61.2009 150.48Z" fill="#2F2E41"/>
<path id="Vector_33" d="M72.3491 117.244L65.2375 113.921L63.1084 117.615C63.1084 117.615 57.3902 125.752 57.3073 131.622C57.2243 137.492 58.2392 139.238 58.2392 139.238C58.2392 139.238 55.7737 141.076 57.0064 142.199C58.2392 143.323 60.9683 143.808 58.8722 144.295C56.7761 144.782 57.3073 149.713 59.6482 150.588C61.9891 151.464 74.561 151.456 74.561 151.456C74.448 151.074 74.4397 150.668 74.5369 150.281C74.6341 149.895 74.8334 149.541 75.114 149.257C76.0886 148.283 76.9664 148.982 76.0886 147.466C75.2107 145.949 73.7477 146.824 74.9181 144.782C76.0886 142.739 76.0882 142.129 76.0882 142.129C76.0882 142.129 78.4742 137.601 74.8802 132.688C74.6611 132.389 74.8454 132.377 74.8454 132.377L71.9432 122.68L72.3491 117.244Z" fill="#F97316"/>
<path id="Vector_34" d="M60.8883 103.27C60.9485 104.768 60.0018 106.89 59.5356 108.17C59.0372 109.538 61.1974 111.354 62.5801 111.752C62.6521 111.278 62.8892 110.844 63.2498 110.527C63.1502 110.979 63.1415 111.446 63.2243 111.901L74.9136 114.555C77.0165 112.126 79.1309 108.635 78.6697 104.425C78.7802 103.625 78.6513 102.811 78.2994 102.084C77.9474 101.357 77.388 100.751 76.6914 100.34L70.7819 96.8586C68.2683 96.288 65.1028 95.9434 63.2873 97.4944C62.4761 98.214 61.8389 99.1075 61.4234 100.108C61.0079 101.108 60.825 102.189 60.8883 103.27Z" fill="#2F2E41"/>
<path id="Vector_35" d="M71.3369 113.272C75.0539 113.272 78.067 110.267 78.067 106.561C78.067 102.854 75.0539 99.8495 71.3369 99.8495C67.62 99.8495 64.6068 102.854 64.6068 106.561C64.6068 110.267 67.62 113.272 71.3369 113.272Z" fill="#FFB6B6"/>
<path id="Vector_36" d="M63.4525 102.975L63.1277 104.398L68.8054 105.687C68.8105 105.399 68.8751 105.115 68.9952 104.854C69.1154 104.592 69.2885 104.358 69.5036 104.166C69.3812 104.724 69.3951 105.303 69.5444 105.854C72.6064 107.568 75.3663 108.175 77.8411 107.738C78.1763 107.814 78.5282 107.754 78.8193 107.572C79.1103 107.389 79.3167 107.099 79.393 106.764C80.3888 102.403 77.7801 97.9451 73.4278 96.8625C72.3698 96.5987 71.2697 96.5482 70.192 96.714C69.1142 96.8797 68.0805 97.2583 67.1514 97.8277C66.2223 98.397 65.4165 99.1456 64.7814 100.029C64.1462 100.913 63.6944 101.915 63.4525 102.975Z" fill="#2F2E41"/>
<path id="Vector_37" d="M66.7721 93.5898C67.5207 93.4278 68.313 93.467 68.9899 92.9613L68.546 93.9774C69.7768 93.6412 71.0889 93.7719 72.2286 94.3442C72.5675 94.4957 72.8565 94.7397 73.0623 95.048C73.1729 95.2342 73.2402 95.4428 73.2592 95.6584C73.2781 95.874 73.2484 96.0911 73.172 96.2937C73.0992 96.4675 72.9909 96.6243 72.854 96.7539C72.717 96.8836 72.5545 96.9834 72.3767 97.0469C72.0615 97.1414 71.7314 97.1758 71.4035 97.1485C70.0217 97.1164 68.64 97.0843 67.2582 97.0522C66.7317 97.0848 66.2054 96.9828 65.7294 96.7559C65.4764 96.6001 65.2745 96.374 65.1485 96.1053C65.0225 95.8366 64.9779 95.5371 65.0202 95.2435C65.152 94.3198 66.0234 93.7519 66.7721 93.5898Z" fill="#2F2E41"/>
<path id="Vector_38" d="M103.28 146.187C103.264 146.168 103.245 146.151 103.225 146.137C103.175 146.078 103.113 146.031 103.045 145.996L102.552 145.733L99.2826 142.113C99.0934 142.015 98.8732 141.994 98.6687 142.055L98.6603 142.057L97.2597 142.489L96.0552 142.862L94.3726 143.382L82.912 146.921L75.3787 149.247C75.1751 149.311 75.0049 149.452 74.9047 149.64C74.8046 149.829 74.7826 150.048 74.8434 150.253C74.8788 150.365 74.9374 150.469 75.0154 150.557L75.2551 150.823L75.758 151.382L76.9229 153.789L77.2461 154.149C77.3491 154.264 77.4827 154.346 77.6312 154.388C77.7797 154.43 77.937 154.428 78.0847 154.384L102.903 147.502C103.032 147.46 103.148 147.388 103.242 147.291C103.337 147.193 103.405 147.075 103.443 146.945C103.48 146.815 103.485 146.678 103.456 146.546C103.428 146.413 103.367 146.29 103.28 146.187Z" fill="#CCCCCC"/>
<path id="Vector_39" d="M101.807 110.383L101.326 110.461C101.194 110.483 101.076 110.556 100.998 110.664L100.787 110.959L98.8766 115.722C98.7989 115.83 98.7676 115.966 98.7898 116.097L99.0136 117.454L98.1678 141.674C98.1892 141.799 98.2567 141.912 98.357 141.99L102.065 146.937L102.152 147.005L102.339 147.151C102.434 147.225 102.553 147.263 102.674 147.258L102.989 147.243C103.061 147.239 103.131 147.221 103.195 147.188C103.259 147.156 103.315 147.11 103.36 147.054C103.405 146.999 103.438 146.935 103.456 146.866C103.474 146.797 103.477 146.725 103.465 146.655L102.389 110.798C102.367 110.666 102.294 110.548 102.185 110.471C102.076 110.393 101.941 110.361 101.809 110.383L101.807 110.383Z" fill="#CCCCCC"/>
<path id="Vector_40" d="M101.002 112.265L99.3098 117.405L98.6553 137.933L101.289 140.267L101.002 112.265Z" fill="#F97316"/>
<path id="Vector_41" d="M87.9181 143.579C87.3833 143.33 86.7721 143.298 86.2145 143.492C85.657 143.685 85.1971 144.087 84.9327 144.614C84.8806 144.722 84.8376 144.833 84.8041 144.948L76.9125 145.419L75.7429 149.496L86.4835 147.686C86.9721 147.788 87.4807 147.725 87.9299 147.509C88.3792 147.292 88.7438 146.933 88.967 146.488C89.2185 145.974 89.255 145.381 89.0683 144.84C88.8817 144.3 88.4873 143.855 87.9718 143.604C87.954 143.595 87.9361 143.587 87.9181 143.579Z" fill="#FFB6B6"/>
<path id="Vector_42" d="M70.4991 123.469C69.9791 123.257 69.4193 123.159 68.8579 123.182C68.2965 123.204 67.7467 123.347 67.2457 123.601C66.7447 123.855 66.3044 124.213 65.9546 124.652C65.6049 125.09 65.354 125.599 65.2189 126.142L63.0493 134.879L63.4574 150.164C63.4574 150.164 74.7822 152.331 76.6833 150.938C78.5845 149.545 78.4059 148.508 78.5845 149.545C78.763 150.582 79.579 151.017 79.5903 150.605C79.6016 150.192 79.6939 150.263 80.1677 150.139C80.6414 150.014 82.7324 149.246 82.7324 149.246L82.826 144.888C82.826 144.888 79.3692 143.581 78.5306 143.971C77.6919 144.361 78.7091 145.008 77.6919 144.361C76.6748 143.714 76.5636 141.672 76.3897 143.512C76.2158 145.353 75.7067 145.695 74.9441 144.877C74.1815 144.059 70.6483 144.581 70.6483 144.581L72.8966 127.591C73.0097 126.736 72.8358 125.868 72.4021 125.123C71.9683 124.377 71.2992 123.795 70.4991 123.469Z" fill="#F97316"/>
<path id="Vector_43" d="M0.666628 174.153C0.666491 174.198 0.675407 174.244 0.692859 174.286C0.710311 174.328 0.735957 174.366 0.768321 174.399C0.800684 174.431 0.839125 174.456 0.881435 174.474C0.923746 174.491 0.969089 174.5 1.01486 174.5H210.318C210.411 174.5 210.499 174.463 210.565 174.398C210.63 174.333 210.667 174.245 210.667 174.153C210.667 174.061 210.63 173.972 210.565 173.907C210.499 173.842 210.411 173.806 210.318 173.806H1.01484C0.969073 173.805 0.923734 173.814 0.881426 173.832C0.839119 173.849 0.800677 173.875 0.768316 173.907C0.735955 173.939 0.71031 173.978 0.692859 174.02C0.675408 174.062 0.666493 174.107 0.666628 174.153Z" fill="#CCCCCC"/>
<path id="Vector_44" d="M185.36 99.012H126.059C125.097 99.0109 124.175 98.6294 123.495 97.9511C122.815 97.2729 122.432 96.3533 122.431 95.3941V87.4247C122.432 86.4655 122.815 85.5459 123.495 84.8676C124.175 84.1894 125.097 83.8079 126.059 83.8068H185.36C186.322 83.8079 187.244 84.1894 187.924 84.8676C188.604 85.5459 188.987 86.4655 188.988 87.4247V95.3941C188.987 96.3533 188.604 97.2729 187.924 97.9511C187.244 98.6294 186.322 99.0109 185.36 99.012Z" fill="#E6E6E6"/>
<path id="Vector_45" d="M162.914 90.0454H145.442C145.234 90.0454 145.035 89.9633 144.889 89.8171C144.742 89.6709 144.66 89.4727 144.66 89.266C144.66 89.0593 144.742 88.861 144.889 88.7148C145.035 88.5687 145.234 88.4866 145.442 88.4866H162.914C163.121 88.4866 163.32 88.5687 163.467 88.7148C163.613 88.861 163.696 89.0593 163.696 89.266C163.696 89.4727 163.613 89.6709 163.467 89.8171C163.32 89.9633 163.121 90.0454 162.914 90.0454Z" fill="white"/>
<path id="Vector_46" d="M179.719 94.3321H145.246C145.039 94.3321 144.84 94.25 144.693 94.1038C144.547 93.9577 144.464 93.7594 144.464 93.5527C144.464 93.346 144.547 93.1478 144.693 93.0016C144.84 92.8554 145.039 92.7733 145.246 92.7733H179.719C179.926 92.7733 180.125 92.8554 180.271 93.0016C180.418 93.1478 180.5 93.346 180.5 93.5527C180.5 93.7594 180.418 93.9577 180.271 94.1038C180.125 94.25 179.926 94.3321 179.719 94.3321Z" fill="white"/>
<path id="Vector_47" d="M136.159 96.635C139.053 96.635 141.4 94.2954 141.4 91.4093C141.4 88.5232 139.053 86.1836 136.159 86.1836C133.265 86.1836 130.918 88.5232 130.918 91.4093C130.918 94.2954 133.265 96.635 136.159 96.635Z" fill="white"/>
<path id="Vector_48" d="M166.34 119.437H107.039C106.077 119.436 105.155 119.054 104.475 118.376C103.795 117.698 103.412 116.778 103.411 115.819V107.85C103.412 106.89 103.795 105.971 104.475 105.293C105.155 104.614 106.077 104.233 107.039 104.232H166.34C167.302 104.233 168.224 104.614 168.904 105.293C169.584 105.971 169.967 106.89 169.968 107.85V115.819C169.967 116.778 169.584 117.698 168.904 118.376C168.224 119.054 167.302 119.436 166.34 119.437Z" fill="#E6E6E6"/>
<path id="Vector_49" d="M143.894 110.47H126.422C126.214 110.47 126.016 110.388 125.869 110.242C125.722 110.096 125.64 109.898 125.64 109.691C125.64 109.484 125.722 109.286 125.869 109.14C126.016 108.994 126.214 108.911 126.422 108.911H143.894C144.101 108.911 144.3 108.994 144.447 109.14C144.593 109.286 144.676 109.484 144.676 109.691C144.676 109.898 144.593 110.096 144.447 110.242C144.3 110.388 144.101 110.47 143.894 110.47Z" fill="white"/>
<path id="Vector_50" d="M160.699 114.757H126.226C126.019 114.757 125.82 114.675 125.674 114.529C125.527 114.383 125.445 114.184 125.445 113.978C125.445 113.771 125.527 113.573 125.674 113.427C125.82 113.28 126.019 113.198 126.226 113.198H160.699C160.906 113.198 161.105 113.28 161.252 113.427C161.398 113.573 161.481 113.771 161.481 113.978C161.481 114.184 161.398 114.383 161.252 114.529C161.105 114.675 160.906 114.757 160.699 114.757Z" fill="white"/>
<path id="Vector_51" d="M117.139 117.06C120.033 117.06 122.38 114.72 122.38 111.834C122.38 108.948 120.033 106.609 117.139 106.609C114.245 106.609 111.899 108.948 111.899 111.834C111.899 114.72 114.245 117.06 117.139 117.06Z" fill="white"/>
</g>
<defs>
<clipPath id="clip0_54_3262">
<rect width="210" height="174" fill="white" transform="translate(0.666626 0.5)"/>
</clipPath>
</defs>
</svg>
