<svg width="317" height="169" viewBox="0 0 317 169" fill="none" xmlns="http://www.w3.org/2000/svg">
<g clip-path="url(#clip0_54_3401)">
<path d="M15.1135 168.22L15.1791 167.874C15.1936 167.798 16.6853 160.229 22.2771 155.836C27.8692 151.444 35.5765 151.787 35.6536 151.791L36.005 151.81L35.9395 152.155C35.9249 152.231 34.4332 159.8 28.8414 164.193C23.2493 168.585 15.542 168.242 15.4649 168.238L15.1135 168.22ZM22.6563 156.319C17.9284 160.033 16.226 166.105 15.8617 167.632C17.4319 167.638 23.7388 167.42 28.4622 163.71C33.185 160 34.8911 153.925 35.2568 152.397C33.6857 152.391 27.3794 152.609 22.6563 156.319Z" fill="#A3B0BD"/>
<path d="M24.8802 158.003C22.3186 164.602 15.5751 168.139 15.5751 168.139C15.5751 168.139 12.9848 160.978 15.5464 154.38C18.108 147.781 24.8516 144.244 24.8516 144.244C24.8516 144.244 27.4418 151.405 24.8802 158.003Z" fill="#A3B0BD"/>
<path d="M307.058 168.238C306.981 168.242 299.273 168.585 293.681 164.193C288.089 159.8 286.598 152.231 286.583 152.155L286.518 151.81L286.869 151.791C286.946 151.787 294.653 151.444 300.245 155.836C305.837 160.229 307.329 167.798 307.344 167.874L307.409 168.22L307.058 168.238ZM287.266 152.397C287.631 153.925 289.338 160 294.06 163.71C298.784 167.42 305.091 167.638 306.661 167.632C306.297 166.105 304.594 160.033 299.866 156.319C295.143 152.609 288.837 152.391 287.266 152.397Z" fill="#A3B0BD"/>
<path d="M297.642 158.003C300.204 164.602 306.947 168.139 306.947 168.139C306.947 168.139 309.538 160.978 306.976 154.38C304.415 147.781 297.671 144.244 297.671 144.244C297.671 144.244 295.081 151.405 297.642 158.003Z" fill="#A3B0BD"/>
<path d="M181.449 166.642L176.971 164.756L173.898 142.304H132.984L129.653 164.664L125.646 166.668C125.455 166.764 125.301 166.921 125.21 167.116C125.119 167.31 125.097 167.529 125.146 167.737C125.195 167.946 125.313 168.132 125.481 168.265C125.649 168.398 125.858 168.47 126.072 168.47H181.08C181.3 168.47 181.513 168.394 181.683 168.255C181.853 168.116 181.97 167.923 182.013 167.707C182.057 167.492 182.024 167.268 181.921 167.074C181.819 166.88 181.652 166.727 181.449 166.642Z" fill="#E6E6E6"/>
<path d="M254.158 145.291H53.1732C52.1186 145.289 51.1081 144.868 50.3633 144.122C49.6185 143.375 49.2002 142.364 49.2002 141.309V112.968H258.131V141.309C258.131 142.364 257.712 143.375 256.967 144.122C256.223 144.868 255.212 145.289 254.158 145.291Z" fill="#CCCCCC"/>
<path d="M258.341 126.363H49.0168V5.09558C49.0183 3.82295 49.5245 2.60287 50.4244 1.703C51.3243 0.803128 52.5444 0.296959 53.8171 0.295532H253.54C254.813 0.296958 256.033 0.803125 256.933 1.70299C257.833 2.60286 258.339 3.82295 258.341 5.09558V126.363Z" fill="#111921"/>
<path d="M245.839 117.561H61.519C60.5379 117.56 59.5972 117.17 58.9035 116.476C58.2097 115.782 57.8195 114.842 57.8184 113.861V12.7977C57.8195 11.8165 58.2097 10.8759 58.9034 10.1821C59.5972 9.48831 60.5378 9.09805 61.519 9.09692H245.839C246.82 9.09805 247.76 9.48831 248.454 10.1821C249.148 10.8759 249.538 11.8165 249.539 12.7977V113.861C249.538 114.842 249.148 115.782 248.454 116.476C247.76 117.17 246.82 117.56 245.839 117.561Z" fill="white"/>
<path d="M315.865 168.705H0.820658C0.714562 168.707 0.610701 168.674 0.525257 168.611C0.439813 168.548 0.377585 168.459 0.348269 168.357C0.329967 168.287 0.327837 168.214 0.34204 168.144C0.356244 168.074 0.386402 168.008 0.430197 167.951C0.473992 167.894 0.530255 167.848 0.594657 167.816C0.659058 167.784 0.729882 167.768 0.801676 167.768H315.826C315.938 167.764 316.048 167.798 316.138 167.864C316.228 167.931 316.293 168.026 316.322 168.134C316.338 168.203 316.337 168.274 316.321 168.342C316.305 168.41 316.274 168.474 316.23 168.529C316.186 168.584 316.131 168.628 316.068 168.658C316.004 168.689 315.935 168.705 315.865 168.705Z" fill="#CCCCCC"/>
<path d="M98.0551 47.3175H67.7288V50.1655H98.0551V47.3175Z" fill="#E5E5E5"/>
<path d="M98.0551 54.2242H67.7288V57.0723H98.0551V54.2242Z" fill="#E5E5E5"/>
<path d="M98.0551 61.2836H67.7288V64.1316H98.0551V61.2836Z" fill="#E5E5E5"/>
<path d="M98.0551 68.3429H67.7288V71.1909H98.0551V68.3429Z" fill="#E5E5E5"/>
<path d="M90.872 77.3132H74.9119V79.7848H90.872V77.3132Z" fill="#F97316"/>
<path d="M145.245 64.9814H144.955V65.8514H145.245V64.9814Z" fill="#E5E5E5"/>
<path d="M145.245 84.3868H144.955V82.5332H145.245V84.3868ZM145.245 80.6797H144.955V78.8262H145.245V80.6797ZM145.245 76.9726H144.955V75.1191H145.245V76.9726ZM145.245 73.2655H144.955V71.4119H145.245V73.2655ZM145.245 69.5584H144.955V67.7048H145.245V69.5584Z" fill="#E5E5E5"/>
<path d="M145.245 86.2405H144.955V87.1104H145.245V86.2405Z" fill="#E5E5E5"/>
<path d="M176.997 64.9814H176.707V65.8514H176.997V64.9814Z" fill="#E5E5E5"/>
<path d="M176.997 84.3868H176.707V82.5332H176.997V84.3868ZM176.997 80.6797H176.707V78.8262H176.997V80.6797ZM176.997 76.9726H176.707V75.1191H176.997V76.9726ZM176.997 73.2655H176.707V71.4119H176.997V73.2655ZM176.997 69.5584H176.707V67.7048H176.997V69.5584Z" fill="#E5E5E5"/>
<path d="M176.997 86.2405H176.707V87.1104H176.997V86.2405Z" fill="#E5E5E5"/>
<path d="M193.014 47.9631H192.724V48.8331H193.014V47.9631Z" fill="#E5E5E5"/>
<path d="M193.014 84.4591H192.724V82.6778H193.014V84.4591ZM193.014 80.8965H192.724V79.1151H193.014V80.8965ZM193.014 77.3338H192.724V75.5525H193.014V77.3338ZM193.014 73.7712H192.724V71.9899H193.014V73.7712ZM193.014 70.2086H192.724V68.4273H193.014V70.2086ZM193.014 66.646H192.724V64.8647H193.014V66.646ZM193.014 63.0834H192.724V61.3021H193.014V63.0834ZM193.014 59.5208H192.724V57.7395H193.014V59.5208ZM193.014 55.9581H192.724V54.1768H193.014V55.9581ZM193.014 52.3956H192.724V50.6143H193.014V52.3956Z" fill="#E5E5E5"/>
<path d="M193.014 86.2405H192.724V87.1104H193.014V86.2405Z" fill="#E5E5E5"/>
<path d="M208.872 41.0035H208.582V41.8735H208.872V41.0035Z" fill="#E5E5E5"/>
<path d="M208.872 84.4657H208.582V82.691H208.872V84.4657ZM208.872 80.9164H208.582V79.1417H208.872V80.9164ZM208.872 77.3671H208.582V75.5923H208.872V77.3671ZM208.872 73.8177H208.582V72.043H208.872V73.8177ZM208.872 70.2683H208.582V68.4936H208.872V70.2683ZM208.872 66.719H208.582V64.9443H208.872V66.719ZM208.872 63.1696H208.582V61.3949H208.872V63.1696ZM208.872 59.6203H208.582V57.8456H208.872V59.6203ZM208.872 56.071H208.582V54.2962H208.872V56.071ZM208.872 52.5216H208.582V50.7469H208.872V52.5216ZM208.872 48.9723H208.582V47.1975H208.872V48.9723ZM208.872 45.4229H208.582V43.6482H208.872V45.4229Z" fill="#E5E5E5"/>
<path d="M208.872 86.2405H208.582V87.1104H208.872V86.2405Z" fill="#E5E5E5"/>
<path d="M161.193 53.3278H160.903V54.1977H161.193V53.3278Z" fill="#E5E5E5"/>
<path d="M161.193 84.554H160.903V82.8676H161.193V84.554ZM161.193 81.1811H160.903V79.4946H161.193V81.1811ZM161.193 77.8081H160.903V76.1217H161.193V77.8081ZM161.193 74.4352H160.903V72.7488H161.193V74.4352ZM161.193 71.0623H160.903V69.3759H161.193V71.0623ZM161.193 67.6894H160.903V66.0029H161.193V67.6894ZM161.193 64.3164H160.903V62.63H161.193V64.3164ZM161.193 60.9435H160.903V59.2571H161.193V60.9435ZM161.193 57.5706H160.903V55.8842H161.193V57.5706Z" fill="#E5E5E5"/>
<path d="M161.193 86.2405H160.903V87.1104H161.193V86.2405Z" fill="#E5E5E5"/>
<path d="M224.955 87.5143H128.954C128.875 87.5143 128.798 87.4827 128.742 87.4263C128.685 87.37 128.654 87.2936 128.654 87.2139V41.2007C128.654 41.121 128.685 41.0446 128.742 40.9883C128.798 40.9319 128.875 40.9003 128.954 40.9003C129.034 40.9003 129.11 40.9319 129.167 40.9883C129.223 41.0446 129.255 41.121 129.255 41.2007V86.9135H224.955C225.035 86.9135 225.111 86.9451 225.168 87.0014C225.224 87.0578 225.255 87.1342 225.255 87.2139C225.255 87.2936 225.224 87.37 225.168 87.4263C225.111 87.4827 225.035 87.5143 224.955 87.5143Z" fill="#3F3D56"/>
<path d="M176.984 65.3852L161.023 53.4301L145.28 65.2219L144.919 64.7409L161.023 52.6793L176.908 64.5777L192.694 47.3029L192.757 47.2771L208.68 40.8615L208.905 41.4191L193.045 47.809L176.984 65.3852Z" fill="#3F3D56"/>
<path d="M145.1 66.784C146.095 66.784 146.902 65.9769 146.902 64.9813C146.902 63.9858 146.095 63.1787 145.1 63.1787C144.104 63.1787 143.297 63.9858 143.297 64.9813C143.297 65.9769 144.104 66.784 145.1 66.784Z" fill="#F97316"/>
<path d="M161.023 55.0669C162.018 55.0669 162.825 54.2599 162.825 53.2643C162.825 52.2687 162.018 51.4617 161.023 51.4617C160.027 51.4617 159.22 52.2687 159.22 53.2643C159.22 54.2599 160.027 55.0669 161.023 55.0669Z" fill="#F97316"/>
<path d="M176.946 66.784C177.942 66.784 178.749 65.9769 178.749 64.9813C178.749 63.9858 177.942 63.1787 176.946 63.1787C175.951 63.1787 175.144 63.9858 175.144 64.9813C175.144 65.9769 175.951 66.784 176.946 66.784Z" fill="#F97316"/>
<path d="M192.869 49.3586C193.865 49.3586 194.672 48.5515 194.672 47.5559C194.672 46.5604 193.865 45.7533 192.869 45.7533C191.874 45.7533 191.067 46.5604 191.067 47.5559C191.067 48.5515 191.874 49.3586 192.869 49.3586Z" fill="#F97316"/>
<path d="M208.793 42.7489C209.788 42.7489 210.595 41.9419 210.595 40.9463C210.595 39.9507 209.788 39.1437 208.793 39.1437C207.797 39.1437 206.99 39.9507 206.99 40.9463C206.99 41.9419 207.797 42.7489 208.793 42.7489Z" fill="#F97316"/>
<path d="M107.533 9.0968H106.919V117.561H107.533V9.0968Z" fill="#E5E5E5"/>
<path d="M252.249 116.451C252.461 116.199 252.615 115.903 252.701 115.584C252.786 115.266 252.8 114.933 252.743 114.608C252.686 114.284 252.558 113.976 252.368 113.706C252.179 113.436 251.933 113.211 251.647 113.047L253.146 105.176L249.303 106.778L248.469 114.006C248.225 114.504 248.171 115.075 248.32 115.61C248.468 116.145 248.807 116.606 249.273 116.908C249.739 117.209 250.299 117.329 250.848 117.245C251.396 117.161 251.895 116.878 252.249 116.451Z" fill="#C68863"/>
<path d="M271.411 164.746H268.157L266.609 152.194L271.411 152.195L271.411 164.746Z" fill="#C68863"/>
<path d="M272.24 167.9L261.748 167.9V167.767C261.748 166.684 262.178 165.645 262.944 164.88C263.71 164.114 264.749 163.683 265.832 163.683L272.241 163.684L272.24 167.9Z" fill="#111921"/>
<path d="M253.627 164.746H250.373L248.825 152.194L253.628 152.195L253.627 164.746Z" fill="#C68863"/>
<path d="M253.661 167.9L243.168 167.9V167.767C243.169 166.684 243.599 165.645 244.365 164.88C245.131 164.114 246.169 163.683 247.252 163.683L253.661 163.684L253.661 167.9Z" fill="#111921"/>
<path d="M253.361 111.735L250.176 119.073L247.548 161.249L254.184 160.983L255.996 140.878L261.587 122.971L264.801 142.934L266.128 160.452L271.619 160.69L273.806 111.735H253.361Z" fill="#111921"/>
<path d="M269.282 75.5273L260.051 75.7583L254.631 78.5405L254.333 99.0677L250.953 113.24C250.953 113.24 272.073 114.694 274.993 112.57L271.542 96.3794L276.17 78.8817L269.282 75.5273Z" fill="#F97316"/>
<path d="M255.617 78.8614L254.631 78.5405C254.631 78.5405 251.503 80.548 251.8 85.4015C251.8 85.4015 251.683 87.9129 251.795 89.5844C251.923 91.5016 248.079 110.553 248.079 110.553H253.653L256.042 93.3003L255.617 78.8614Z" fill="#F97316"/>
<path d="M276.025 116.716C275.813 116.464 275.659 116.168 275.574 115.85C275.489 115.532 275.474 115.198 275.532 114.874C275.589 114.549 275.717 114.241 275.906 113.971C276.095 113.702 276.342 113.477 276.627 113.312L275.129 105.442L278.972 107.043L279.806 114.272C280.05 114.77 280.103 115.34 279.955 115.875C279.807 116.41 279.467 116.872 279.001 117.173C278.535 117.474 277.975 117.594 277.427 117.51C276.878 117.426 276.38 117.144 276.025 116.716Z" fill="#C68863"/>
<path d="M274.781 79.1268L275.767 78.8059C275.767 78.8059 278.895 80.8134 278.598 85.6668C278.598 85.6668 278.715 88.1783 278.603 89.8498C278.474 91.767 280.195 110.818 280.195 110.818H274.621L272.233 93.5657L274.781 79.1268Z" fill="#F97316"/>
<path d="M271.548 66.9154C271.548 68.181 271.173 69.4183 270.469 70.4706C269.766 71.523 268.767 72.3432 267.598 72.8276C266.428 73.3119 265.142 73.4387 263.9 73.1917C262.659 72.9448 261.519 72.3354 260.624 71.4404C259.729 70.5454 259.119 69.4052 258.872 68.1638C258.625 66.9225 258.752 65.6358 259.236 64.4664C259.721 63.2971 260.541 62.2977 261.593 61.5945C262.646 60.8913 263.883 60.516 265.149 60.516C265.987 60.5139 266.817 60.677 267.593 60.9958C268.368 61.3147 269.073 61.7831 269.667 62.3744C270.261 62.9657 270.733 63.6682 271.056 64.4419C271.379 65.2155 271.546 66.0452 271.548 66.8835C271.548 66.8941 271.548 66.9047 271.548 66.9154Z" fill="#C68863"/>
<path d="M258.77 58.3199C259.52 56.7079 260.971 57.0266 262.24 57.573C263.846 57.2166 265.374 56.1496 267.105 56.7806C268.811 59.2608 274.536 58.5311 273.318 62.5688C273.316 63.5363 275.138 62.9731 274.82 64.5577C275.786 67.6072 271.336 73.3825 268.782 72.1663C269.414 71.0085 270.857 68.3788 268.668 68.118C263.959 72.4989 268.182 59.7756 262.266 63.4758C260.307 65.2684 257.626 60.1129 258.77 58.3199Z" fill="#111921"/>
</g>
<defs>
<clipPath id="clip0_54_3401">
<rect width="316" height="168.409" fill="white" transform="translate(0.333252 0.295532)"/>
</clipPath>
</defs>
</svg>
