<svg width="312" height="187" viewBox="0 0 312 187" fill="none" xmlns="http://www.w3.org/2000/svg">
<g clip-path="url(#clip0_54_3320)">
<path d="M18.3842 143.214C9.20095 139.873 1.22928 131.882 0.218018 122.162C9.13299 127.946 19.8064 130.39 30.3498 129.062C34.4141 128.535 38.8797 127.525 42.3577 129.693C44.5218 131.042 45.8653 133.437 46.4817 135.912C47.098 138.386 47.0702 140.97 47.0387 143.52L47.3247 144.088C37.7317 145.95 27.5675 146.554 18.3842 143.214Z" fill="#A3B0BD"/>
<path d="M0.417242 122.114C5.09704 128.711 11.7366 133.666 19.3927 136.275C21.031 136.866 22.7521 137.195 24.4927 137.25C26.1901 137.248 27.8562 136.792 29.3178 135.93C30.6968 135.152 32.0174 134.198 33.5613 133.769C34.3548 133.562 35.1833 133.524 35.9924 133.659C36.8014 133.794 37.5728 134.099 38.2559 134.553C39.9874 135.64 41.2251 137.284 42.3795 138.935C43.6613 140.767 44.9636 142.69 46.9645 143.803C47.2069 143.937 46.9836 144.306 46.7416 144.171C43.2604 142.236 41.9714 138.131 39.0083 135.635C37.6256 134.471 35.8837 133.716 34.0564 134.092C32.4586 134.421 31.096 135.405 29.7065 136.204C28.293 137.066 26.6897 137.57 25.0367 137.67C23.2989 137.704 21.5679 137.442 19.918 136.895C16.1839 135.723 12.6573 133.971 9.46736 131.704C5.81235 129.136 2.62349 125.962 0.0387568 122.32C-0.121128 122.094 0.258402 121.89 0.417242 122.114Z" fill="white"/>
<path d="M16.878 135.58C16.2659 136.805 15.2383 137.773 13.9786 138.31C12.719 138.847 11.3093 138.919 10.0013 138.513C9.73696 138.43 9.85363 138.016 10.1183 138.099C11.3356 138.479 12.6487 138.412 13.8207 137.909C14.9927 137.406 15.9463 136.501 16.5095 135.357C16.6322 135.108 17 135.333 16.878 135.58Z" fill="white"/>
<path d="M28.6705 136.416C27.8081 133.752 25.9736 131.512 23.5327 130.141C23.2908 130.005 23.514 129.637 23.7556 129.772C26.2931 131.204 28.1974 133.539 29.0887 136.313C29.1734 136.577 28.7548 136.679 28.6705 136.416Z" fill="white"/>
<path d="M6.29925 128.838C6.63485 128.413 6.85973 127.912 6.95368 127.379C7.04762 126.846 7.00769 126.298 6.83749 125.784C6.74941 125.521 7.16819 125.42 7.25569 125.681C7.4411 126.25 7.48445 126.855 7.38196 127.444C7.27947 128.033 7.03426 128.588 6.66774 129.061C6.63693 129.108 6.5892 129.142 6.53428 129.156C6.47935 129.169 6.42134 129.161 6.37202 129.134C6.32338 129.104 6.28845 129.056 6.27483 129.001C6.2612 128.945 6.26997 128.887 6.29925 128.838Z" fill="white"/>
<path d="M23.3953 98.551C23.455 98.7138 23.5147 98.8766 23.5778 99.0404C24.3914 101.225 25.3811 103.34 26.5372 105.364C26.6241 105.522 26.7145 105.681 26.8057 105.836C29.6429 110.683 33.3554 114.961 37.7543 118.453C39.5061 119.841 41.3608 121.093 43.3026 122.2C45.9844 123.728 49.0136 125.171 50.9762 127.429C51.1836 127.663 51.3764 127.909 51.5534 128.166L47.9963 143.695C47.9705 143.727 47.9482 143.759 47.9223 143.79L47.8087 144.417C47.7045 144.367 47.5976 144.313 47.4935 144.262C47.433 144.234 47.3732 144.201 47.3127 144.173C47.2726 144.152 47.2325 144.132 47.1952 144.116C47.1818 144.109 47.1685 144.102 47.1586 144.096C47.1213 144.08 47.0883 144.062 47.0545 144.046C46.456 143.745 45.8585 143.439 45.2622 143.129C45.2586 143.128 45.2586 143.128 45.2559 143.124C40.6891 140.8 36.414 137.943 32.5202 134.613C32.4054 134.512 32.2869 134.41 32.1737 134.302C30.4609 132.781 28.8754 131.122 27.4329 129.342C26.6462 128.365 25.9094 127.348 25.2255 126.297C23.4634 123.576 22.1403 120.595 21.3046 117.463C19.6396 111.22 19.9899 104.513 23.1497 98.972C23.2307 98.8303 23.3108 98.6919 23.3953 98.551Z" fill="#A3B0BD"/>
<path d="M23.5844 98.6311C23.349 106.716 25.6671 114.67 30.2094 121.362C31.1617 122.82 32.3378 124.119 33.6946 125.211C35.0506 126.232 36.6553 126.871 38.3418 127.062C39.9108 127.272 41.54 127.305 43.0307 127.892C43.7893 128.204 44.4734 128.673 45.0381 129.268C45.6028 129.863 46.0353 130.571 46.3073 131.344C47.0353 133.255 47.0334 135.313 46.9616 137.326C46.8819 139.56 46.7637 141.88 47.6916 143.973C47.804 144.227 47.404 144.386 47.2917 144.133C45.6774 140.492 47.1196 136.438 46.2562 132.662C45.8533 130.9 44.9169 129.248 43.2315 128.448C41.7576 127.749 40.0776 127.714 38.4871 127.515C36.8391 127.353 35.2558 126.79 33.8757 125.875C32.4677 124.855 31.2434 123.604 30.2553 122.174C27.9794 118.99 26.2183 115.468 25.0365 111.737C23.664 107.486 23.0288 103.032 23.1583 98.5674C23.1664 98.2911 23.5924 98.3566 23.5844 98.6311Z" fill="white"/>
<path d="M28.6199 119.293C27.3936 119.903 25.9905 120.057 24.6612 119.728C23.3319 119.398 22.1629 118.607 21.363 117.496C21.202 117.27 21.5448 117.009 21.7061 117.235C22.449 118.271 23.538 119.008 24.7765 119.312C26.015 119.617 27.3214 119.468 28.4599 118.894C28.7075 118.769 28.8661 119.17 28.6199 119.293Z" fill="white"/>
<path d="M37.5324 127.061C38.4475 124.415 38.3317 121.521 37.2082 118.957C37.0966 118.703 37.4966 118.544 37.608 118.797C38.7722 121.468 38.8866 124.479 37.9283 127.23C37.8368 127.492 37.4414 127.321 37.5324 127.061Z" fill="white"/>
<path d="M24.2325 107.541C24.7561 107.404 25.2375 107.139 25.6335 106.77C26.0294 106.401 26.3275 105.94 26.501 105.427C26.5891 105.164 26.9844 105.335 26.8968 105.596C26.7026 106.162 26.3727 106.671 25.9362 107.08C25.4996 107.489 24.9696 107.784 24.3924 107.941C24.3393 107.96 24.2807 107.959 24.2287 107.937C24.1768 107.914 24.1352 107.873 24.1125 107.821C24.0916 107.768 24.0924 107.709 24.1149 107.657C24.1374 107.604 24.1796 107.563 24.2325 107.541Z" fill="white"/>
<path d="M296.336 142.893C305.039 138.449 311.968 129.538 311.777 119.768C303.641 126.604 293.348 130.341 282.722 130.319C278.623 130.296 274.068 129.843 270.883 132.422C268.901 134.027 267.862 136.569 267.554 139.1C267.247 141.632 267.592 144.192 267.937 146.719L267.723 147.318C277.472 147.987 287.633 147.337 296.336 142.893Z" fill="#A3B0BD"/>
<path d="M311.573 119.745C307.74 126.867 301.76 132.6 294.482 136.131C292.929 136.918 291.262 137.456 289.541 137.725C287.856 137.932 286.147 137.685 284.59 137.008C283.126 136.406 281.698 135.621 280.113 135.385C279.3 135.277 278.473 135.342 277.687 135.575C276.901 135.809 276.173 136.206 275.551 136.74C273.966 138.032 272.94 139.816 271.997 141.596C270.95 143.572 269.894 145.64 268.045 146.99C267.821 147.154 268.088 147.492 268.312 147.329C271.529 144.98 272.303 140.748 274.937 137.907C276.166 136.582 277.802 135.618 279.662 135.767C281.288 135.897 282.761 136.706 284.238 137.328C285.747 138.01 287.4 138.313 289.053 138.209C290.782 138.029 292.467 137.556 294.037 136.811C297.599 135.189 300.884 133.017 303.771 130.374C307.082 127.377 309.857 123.835 311.974 119.902C312.105 119.659 311.704 119.503 311.573 119.745Z" fill="white"/>
<path d="M296.893 135.132C297.651 136.272 298.789 137.106 300.106 137.485C301.422 137.863 302.83 137.762 304.078 137.198C304.33 137.083 304.163 136.686 303.911 136.801C302.749 137.328 301.438 137.423 300.213 137.068C298.988 136.713 297.931 135.932 297.231 134.865C297.079 134.634 296.741 134.902 296.893 135.132Z" fill="white"/>
<path d="M285.292 137.411C285.821 134.662 287.366 132.212 289.62 130.552C289.843 130.388 289.576 130.049 289.353 130.214C287.011 131.946 285.408 134.498 284.865 137.36C284.813 137.633 285.241 137.682 285.292 137.411Z" fill="white"/>
<path d="M306.563 127.141C306.177 126.761 305.892 126.291 305.734 125.773C305.575 125.256 305.547 124.707 305.653 124.176C305.708 123.904 305.28 123.855 305.225 124.125C305.111 124.712 305.143 125.318 305.317 125.89C305.491 126.463 305.802 126.983 306.224 127.407C306.261 127.451 306.312 127.478 306.368 127.485C306.424 127.492 306.481 127.477 306.527 127.443C306.571 127.408 306.6 127.356 306.607 127.299C306.613 127.243 306.598 127.186 306.563 127.141Z" fill="white"/>
<path d="M285.873 99.1848C285.834 99.3537 285.795 99.5226 285.752 99.6929C285.213 101.961 284.491 104.181 283.593 106.332C283.526 106.5 283.456 106.668 283.384 106.833C281.164 111.993 278.006 116.695 274.069 120.701C272.502 122.293 270.815 123.765 269.024 125.101C266.55 126.947 263.721 128.752 262.051 131.234C261.874 131.491 261.713 131.759 261.569 132.036L267.008 147.011C267.037 147.039 267.063 147.068 267.093 147.096L267.283 147.704C267.38 147.641 267.479 147.574 267.577 147.512C267.633 147.476 267.688 147.436 267.745 147.4C267.782 147.375 267.819 147.35 267.855 147.33C267.867 147.321 267.879 147.313 267.888 147.306C267.924 147.285 267.954 147.263 267.986 147.243C268.543 146.871 269.098 146.494 269.652 146.112C269.655 146.111 269.655 146.111 269.657 146.106C273.904 143.239 277.795 139.879 281.25 136.095C281.352 135.981 281.457 135.865 281.556 135.744C283.069 134.023 284.438 132.182 285.651 130.238C286.312 129.172 286.918 128.073 287.467 126.945C288.882 124.028 289.828 120.907 290.273 117.697C291.158 111.296 289.986 104.683 286.169 99.5724C286.071 99.4418 285.974 99.3142 285.873 99.1848Z" fill="#A3B0BD"/>
<path d="M285.695 99.2876C286.923 107.282 285.6 115.461 281.915 122.661C281.149 124.225 280.141 125.659 278.929 126.909C277.709 128.089 276.195 128.92 274.545 129.317C273.013 129.718 271.4 129.951 269.993 130.717C269.279 131.12 268.657 131.669 268.17 132.329C267.683 132.989 267.341 133.744 267.166 134.546C266.678 136.531 266.933 138.574 267.252 140.562C267.605 142.77 268.008 145.058 267.344 147.249C267.264 147.514 267.68 147.624 267.761 147.358C268.915 143.546 266.986 139.701 267.378 135.847C267.562 134.049 268.288 132.295 269.862 131.294C271.239 130.419 272.902 130.177 274.456 129.784C276.072 129.421 277.574 128.667 278.831 127.589C280.103 126.405 281.164 125.012 281.969 123.472C283.836 120.032 285.151 116.321 285.865 112.473C286.705 108.086 286.788 103.587 286.11 99.172C286.068 98.8988 285.654 99.0161 285.695 99.2876Z" fill="white"/>
<path d="M283.238 120.412C284.53 120.866 285.941 120.847 287.22 120.357C288.499 119.866 289.562 118.937 290.219 117.736C290.351 117.492 289.978 117.276 289.846 117.519C289.236 118.639 288.246 119.505 287.054 119.959C285.863 120.413 284.548 120.426 283.347 119.996C283.086 119.903 282.978 120.32 283.238 120.412Z" fill="white"/>
<path d="M275.348 129.216C274.115 126.703 273.874 123.817 274.674 121.134C274.753 120.868 274.336 120.759 274.257 121.025C273.43 123.818 273.687 126.821 274.976 129.433C275.099 129.682 275.47 129.464 275.348 129.216Z" fill="white"/>
<path d="M286.147 108.21C285.611 108.138 285.101 107.934 284.662 107.617C284.224 107.299 283.871 106.878 283.636 106.39C283.516 106.14 283.145 106.359 283.264 106.607C283.527 107.145 283.916 107.61 284.4 107.962C284.883 108.314 285.446 108.542 286.038 108.626C286.093 108.639 286.151 108.63 286.2 108.602C286.249 108.573 286.285 108.527 286.301 108.473C286.315 108.418 286.307 108.359 286.278 108.31C286.25 108.261 286.202 108.225 286.147 108.21Z" fill="white"/>
<path d="M271.774 6.85437H210.459V10.7988C210.458 11.0008 210.527 11.1968 210.655 11.3532C210.531 14.4363 210.459 18.3722 210.459 22.6492V128.105C210.459 137.989 210.855 146.032 211.341 146.032H270.892C271.378 146.032 271.774 137.989 271.774 128.105V22.6492C271.774 18.3722 271.702 14.4363 271.578 11.3532C271.706 11.1968 271.775 11.0008 271.774 10.7988L271.774 6.85437Z" fill="white"/>
<path d="M270.892 146.458H211.341C210.877 146.458 210.571 146.458 210.292 140.796C210.124 137.398 210.032 132.891 210.032 128.104V22.6493C210.032 18.5155 210.102 14.4978 210.229 11.336C210.308 9.43774 210.399 7.91713 210.499 6.81588C210.695 4.66 210.881 4.29584 211.341 4.29584H270.892C271.352 4.29584 271.538 4.66 271.734 6.81588C271.834 7.92129 271.925 9.4419 272.004 11.3352L272.004 11.336C272.131 14.4945 272.201 18.5122 272.201 22.6493V128.104C272.201 132.891 272.109 137.398 271.941 140.796C271.662 146.458 271.356 146.458 270.892 146.458ZM211.584 145.605H270.649C270.958 144.44 271.348 138.113 271.348 128.105V22.6493C271.348 18.5235 271.278 14.5182 271.152 11.371C271.074 9.49124 270.984 7.9846 270.885 6.89292C270.847 6.30654 270.767 5.72364 270.645 5.14869H211.588C211.466 5.72364 211.386 6.30654 211.348 6.89292C211.249 7.98043 211.16 9.48708 211.081 11.371C210.954 14.5209 210.885 18.5266 210.885 22.6493V128.104C210.885 138.112 211.275 144.44 211.584 145.605Z" fill="#E4E4E4"/>
<path d="M270.892 4.72223H211.341C211.107 4.72268 210.883 4.81582 210.718 4.98126C210.552 5.14669 210.459 5.37095 210.459 5.60494V10.7988C210.458 11.0008 210.527 11.1968 210.655 11.3532C210.738 11.4554 210.842 11.5379 210.961 11.5947C211.08 11.6515 211.21 11.6812 211.341 11.6815H270.892C271.023 11.6811 271.153 11.6515 271.272 11.5947C271.391 11.5379 271.495 11.4554 271.578 11.3532C271.706 11.1968 271.775 11.0008 271.774 10.7988V5.60494C271.774 5.37097 271.681 5.14672 271.515 4.98128C271.35 4.81583 271.126 4.72268 270.892 4.72223Z" fill="#CACACA"/>
<path d="M215.584 9.20189C216.276 9.20189 216.838 8.64066 216.838 7.94836C216.838 7.25605 216.276 6.69482 215.584 6.69482C214.892 6.69482 214.331 7.25605 214.331 7.94836C214.331 8.64066 214.892 9.20189 215.584 9.20189Z" fill="white"/>
<path d="M220.342 9.20189C221.034 9.20189 221.596 8.64066 221.596 7.94836C221.596 7.25605 221.034 6.69482 220.342 6.69482C219.65 6.69482 219.089 7.25605 219.089 7.94836C219.089 8.64066 219.65 9.20189 220.342 9.20189Z" fill="white"/>
<path d="M225.1 9.20189C225.793 9.20189 226.354 8.64066 226.354 7.94836C226.354 7.25605 225.793 6.69482 225.1 6.69482C224.408 6.69482 223.847 7.25605 223.847 7.94836C223.847 8.64066 224.408 9.20189 225.1 9.20189Z" fill="white"/>
<path d="M266.231 6.27441H260.751C260.644 6.27513 260.541 6.31804 260.466 6.39387C260.39 6.46969 260.347 6.57231 260.346 6.67952C260.345 6.74056 260.359 6.80094 260.389 6.85435C260.421 6.92303 260.473 6.9811 260.537 7.02185C260.601 7.0626 260.675 7.08437 260.751 7.08463H266.231C266.308 7.085 266.383 7.06355 266.448 7.02278C266.513 6.982 266.565 6.92359 266.598 6.85435C266.624 6.79984 266.637 6.73998 266.636 6.67952C266.636 6.6263 266.626 6.57361 266.605 6.52444C266.585 6.47528 266.555 6.4306 266.517 6.39298C266.48 6.35536 266.435 6.32552 266.386 6.30518C266.337 6.28483 266.284 6.27438 266.231 6.27441Z" fill="white"/>
<path d="M266.231 7.79681H260.751C260.644 7.79681 260.541 7.83949 260.465 7.91546C260.389 7.99144 260.346 8.09448 260.346 8.20192C260.346 8.30936 260.389 8.4124 260.465 8.48837C260.541 8.56434 260.644 8.60702 260.751 8.60702H266.231C266.338 8.60702 266.441 8.56434 266.517 8.48837C266.593 8.4124 266.636 8.30936 266.636 8.20192C266.636 8.09448 266.593 7.99144 266.517 7.91546C266.441 7.83949 266.338 7.79681 266.231 7.79681Z" fill="white"/>
<path d="M266.231 9.31909H260.751C260.644 9.31909 260.541 9.36178 260.465 9.43775C260.389 9.51372 260.346 9.61676 260.346 9.7242C260.346 9.83164 260.389 9.93468 260.465 10.0106C260.541 10.0866 260.644 10.1293 260.751 10.1293H266.231C266.338 10.1293 266.441 10.0866 266.517 10.0106C266.593 9.93468 266.636 9.83164 266.636 9.7242C266.636 9.61676 266.593 9.51372 266.517 9.43775C266.441 9.36178 266.338 9.31909 266.231 9.31909Z" fill="white"/>
<path d="M247.042 23.0671H235.767C235.201 23.0674 234.659 23.2921 234.259 23.6919C233.86 24.0917 233.635 24.6339 233.635 25.1993V34.9645C233.636 35.5296 233.861 36.0714 234.26 36.4711C234.66 36.8707 235.202 37.0956 235.767 37.0966H247.042C247.607 37.0949 248.148 36.8698 248.547 36.4703C248.947 36.0708 249.172 35.5294 249.174 34.9645V25.1993C249.173 24.6341 248.948 24.0923 248.548 23.6927C248.149 23.293 247.607 23.0681 247.042 23.0671Z" fill="url(#paint0_linear_54_3320)"/>
<path d="M261.05 43.4758H221.755C221.498 43.4758 221.252 43.5778 221.07 43.7593C220.889 43.9409 220.787 44.1871 220.787 44.4438C220.787 44.7005 220.889 44.9468 221.07 45.1283C221.252 45.3098 221.498 45.4118 221.755 45.4118H261.05C261.307 45.4118 261.553 45.3098 261.734 45.1283C261.916 44.9468 262.018 44.7005 262.018 44.4438C262.018 44.1871 261.916 43.9409 261.734 43.7593C261.553 43.5778 261.307 43.4758 261.05 43.4758Z" fill="#E4E4E4"/>
<path d="M236.68 48.0131H221.755C221.498 48.0131 221.252 48.1151 221.07 48.2966C220.889 48.4781 220.787 48.7243 220.787 48.9811C220.787 49.2378 220.889 49.484 221.07 49.6655C221.252 49.8471 221.498 49.949 221.755 49.949H236.68C236.936 49.949 237.183 49.8471 237.364 49.6655C237.546 49.484 237.648 49.2378 237.648 48.9811C237.648 48.7243 237.546 48.4781 237.364 48.2966C237.183 48.1151 236.936 48.0131 236.68 48.0131Z" fill="#E4E4E4"/>
<path d="M247.042 65.2833H235.767C235.201 65.2836 234.659 65.5083 234.259 65.9081C233.86 66.3079 233.635 66.8501 233.635 67.4155V77.1806C233.636 77.7458 233.861 78.2876 234.26 78.6872C234.66 79.0869 235.202 79.3118 235.767 79.3128H247.042C247.607 79.3111 248.148 79.086 248.547 78.6865C248.947 78.287 249.172 77.7456 249.174 77.1806V67.4155C249.173 66.8503 248.948 66.3085 248.548 65.9088C248.149 65.5092 247.607 65.2843 247.042 65.2833Z" fill="url(#paint1_linear_54_3320)"/>
<path d="M261.05 85.6921H221.755C221.498 85.6921 221.252 85.7941 221.07 85.9757C220.889 86.1572 220.787 86.4034 220.787 86.6601C220.787 86.9168 220.889 87.1631 221.07 87.3446C221.252 87.5261 221.498 87.6281 221.755 87.6281H261.05C261.307 87.6281 261.553 87.5261 261.734 87.3446C261.916 87.1631 262.018 86.9168 262.018 86.6601C262.018 86.4034 261.916 86.1572 261.734 85.9757C261.553 85.7941 261.307 85.6921 261.05 85.6921Z" fill="#E4E4E4"/>
<path d="M236.68 90.2294H221.755C221.498 90.2294 221.252 90.3314 221.07 90.5129C220.889 90.6944 220.787 90.9406 220.787 91.1974C220.787 91.4541 220.889 91.7003 221.07 91.8818C221.252 92.0634 221.498 92.1654 221.755 92.1654H236.68C236.936 92.1654 237.183 92.0634 237.364 91.8818C237.546 91.7003 237.648 91.4541 237.648 91.1974C237.648 90.9406 237.546 90.6944 237.364 90.5129C237.183 90.3314 236.936 90.2294 236.68 90.2294Z" fill="#E4E4E4"/>
<path d="M247.042 107.5H235.767C235.201 107.5 234.659 107.725 234.259 108.124C233.86 108.524 233.635 109.066 233.635 109.632V119.397C233.636 119.962 233.861 120.504 234.26 120.904C234.66 121.303 235.202 121.528 235.767 121.529H247.042C247.607 121.527 248.148 121.302 248.547 120.903C248.947 120.503 249.172 119.962 249.174 119.397V109.632C249.173 109.067 248.948 108.525 248.548 108.125C248.149 107.726 247.607 107.501 247.042 107.5Z" fill="url(#paint2_linear_54_3320)"/>
<path d="M261.05 127.908H221.755C221.498 127.908 221.252 128.01 221.07 128.192C220.889 128.373 220.787 128.62 220.787 128.876C220.787 129.133 220.889 129.379 221.07 129.561C221.252 129.742 221.498 129.844 221.755 129.844H261.05C261.307 129.844 261.553 129.742 261.734 129.561C261.916 129.379 262.018 129.133 262.018 128.876C262.018 128.62 261.916 128.373 261.734 128.192C261.553 128.01 261.307 127.908 261.05 127.908Z" fill="#E4E4E4"/>
<path d="M236.68 132.446H221.755C221.498 132.446 221.252 132.548 221.07 132.729C220.889 132.911 220.787 133.157 220.787 133.414C220.787 133.67 220.889 133.916 221.07 134.098C221.252 134.28 221.498 134.382 221.755 134.382H236.68C236.936 134.382 237.183 134.28 237.364 134.098C237.546 133.916 237.648 133.67 237.648 133.414C237.648 133.157 237.546 132.911 237.364 132.729C237.183 132.548 236.936 132.446 236.68 132.446Z" fill="#E4E4E4"/>
<path d="M193.738 1.76711C193.738 1.53315 193.645 1.30889 193.479 1.14345C193.314 0.978011 193.09 0.884859 192.856 0.884399H35.2271C34.9931 0.884851 34.7688 0.97799 34.6034 1.14343C34.4379 1.30886 34.3447 1.53312 34.3442 1.76711V6.96098C34.3435 7.17722 34.4242 7.3858 34.5704 7.54519C34.4296 11.0717 34.3442 15.7198 34.3442 20.8113V138.04C34.3442 149.034 34.7409 157.971 35.2271 157.971H192.856C193.342 157.971 193.738 149.034 193.738 138.04V20.8113C193.738 15.7198 193.653 11.0717 193.512 7.54519C193.658 7.38578 193.739 7.17719 193.738 6.96098V1.76711Z" fill="white"/>
<path d="M192.856 158.398H35.2272C34.7454 158.398 34.4545 158.398 34.1775 152.147C34.0101 148.371 33.918 143.361 33.918 138.04V20.8113C33.918 15.9043 33.9984 11.187 34.1445 7.5282C34.4248 0.458014 34.744 0.458008 35.2272 0.458008H192.856C193.339 0.458008 193.658 0.459263 193.939 7.5282C194.084 11.1836 194.165 15.901 194.165 20.8113V138.04C194.165 143.362 194.073 148.371 193.905 152.147C193.628 158.398 193.338 158.398 192.856 158.398ZM35.4762 157.545H192.607C192.956 156.208 193.312 148.701 193.312 138.04V20.8113C193.312 15.912 193.232 11.2065 193.086 7.56234C192.909 3.0834 192.701 1.72021 192.602 1.31086H35.4808C35.3816 1.72023 35.1742 3.0832 34.9966 7.56214C34.851 11.2101 34.7708 15.9154 34.7708 20.8113V138.04C34.7708 148.701 35.1272 156.208 35.4762 157.545Z" fill="#E4E4E4"/>
<path d="M192.856 0.884399H35.2271C34.9931 0.884851 34.7688 0.97799 34.6034 1.14343C34.4379 1.30886 34.3447 1.53312 34.3442 1.76711V6.96098C34.3435 7.17722 34.4242 7.3858 34.5704 7.54519C34.6523 7.63878 34.7533 7.71381 34.8665 7.76529C34.9798 7.81676 35.1027 7.84349 35.2271 7.84369H192.856C192.98 7.84349 193.103 7.81676 193.216 7.76529C193.329 7.71381 193.43 7.63878 193.512 7.54519C193.658 7.38578 193.739 7.17719 193.738 6.96098V1.76711C193.738 1.53315 193.645 1.30891 193.479 1.14347C193.314 0.978025 193.09 0.884868 192.856 0.884399Z" fill="#CACACA"/>
<path d="M39.4698 5.36406C40.1621 5.36406 40.7234 4.80283 40.7234 4.11053C40.7234 3.41822 40.1621 2.85699 39.4698 2.85699C38.7775 2.85699 38.2163 3.41822 38.2163 4.11053C38.2163 4.80283 38.7775 5.36406 39.4698 5.36406Z" fill="white"/>
<path d="M44.2279 5.36406C44.9202 5.36406 45.4814 4.80283 45.4814 4.11053C45.4814 3.41822 44.9202 2.85699 44.2279 2.85699C43.5356 2.85699 42.9744 3.41822 42.9744 4.11053C42.9744 4.80283 43.5356 5.36406 44.2279 5.36406Z" fill="white"/>
<path d="M48.9862 5.36406C49.6785 5.36406 50.2397 4.80283 50.2397 4.11053C50.2397 3.41822 49.6785 2.85699 48.9862 2.85699C48.2939 2.85699 47.7327 3.41822 47.7327 4.11053C47.7327 4.80283 48.2939 5.36406 48.9862 5.36406Z" fill="white"/>
<path d="M188.195 2.43658H182.715C182.608 2.43658 182.505 2.47926 182.429 2.55524C182.353 2.63121 182.31 2.73425 182.31 2.84169C182.31 2.94913 182.353 3.05217 182.429 3.12814C182.505 3.20411 182.608 3.2468 182.715 3.2468H188.195C188.302 3.2468 188.405 3.20411 188.481 3.12814C188.557 3.05217 188.6 2.94913 188.6 2.84169C188.6 2.73425 188.557 2.63121 188.481 2.55524C188.405 2.47926 188.302 2.43658 188.195 2.43658Z" fill="white"/>
<path d="M188.195 3.95892H182.715C182.608 3.95892 182.505 4.0016 182.429 4.07757C182.353 4.15355 182.31 4.25659 182.31 4.36403C182.31 4.47147 182.353 4.57451 182.429 4.65048C182.505 4.72645 182.608 4.76913 182.715 4.76913H188.195C188.302 4.76913 188.405 4.72645 188.481 4.65048C188.557 4.57451 188.6 4.47147 188.6 4.36403C188.6 4.25659 188.557 4.15355 188.481 4.07757C188.405 4.0016 188.302 3.95892 188.195 3.95892Z" fill="white"/>
<path d="M188.195 5.48126H182.715C182.608 5.48126 182.505 5.52395 182.429 5.59992C182.353 5.67589 182.31 5.77893 182.31 5.88637C182.31 5.99381 182.353 6.09685 182.429 6.17282C182.505 6.24879 182.608 6.29148 182.715 6.29148H188.195C188.302 6.29148 188.405 6.24879 188.481 6.17282C188.557 6.09685 188.6 5.99381 188.6 5.88637C188.6 5.77893 188.557 5.67589 188.481 5.59992C188.405 5.52395 188.302 5.48126 188.195 5.48126Z" fill="white"/>
<path d="M86.1766 26.9049H67.7292C66.8045 26.906 65.9179 27.2739 65.264 27.9278C64.6101 28.5818 64.2423 29.4683 64.2412 30.3931V46.3713C64.2423 47.2961 64.6101 48.1826 65.264 48.8365C65.9179 49.4905 66.8045 49.8583 67.7292 49.8595H86.1766C87.1013 49.8583 87.9879 49.4905 88.6418 48.8365C89.2957 48.1826 89.6635 47.2961 89.6646 46.3713V30.3931C89.6635 29.4683 89.2957 28.5818 88.6418 27.9278C87.9879 27.2739 87.1013 26.906 86.1766 26.9049Z" fill="url(#paint3_linear_54_3320)"/>
<path d="M162.264 33.0839H97.9672C97.5471 33.0839 97.1441 33.2508 96.8471 33.5479C96.55 33.8449 96.3831 34.2479 96.3831 34.668C96.3831 35.0882 96.55 35.4911 96.8471 35.7882C97.1441 36.0853 97.5471 36.2522 97.9672 36.2522H162.264C162.684 36.2522 163.087 36.0853 163.384 35.7882C163.681 35.4911 163.848 35.0882 163.848 34.668C163.848 34.2479 163.681 33.8449 163.384 33.5479C163.087 33.2508 162.684 33.0839 162.264 33.0839Z" fill="#E4E4E4"/>
<path d="M122.389 40.5079H97.9672C97.5471 40.5079 97.1441 40.6748 96.847 40.9719C96.5499 41.269 96.3831 41.672 96.3831 42.0921C96.3831 42.5123 96.5499 42.9152 96.847 43.2123C97.1441 43.5094 97.5471 43.6763 97.9672 43.6763H122.389C122.809 43.6763 123.212 43.5094 123.509 43.2123C123.806 42.9152 123.973 42.5123 123.973 42.0921C123.973 41.672 123.806 41.269 123.509 40.9719C123.212 40.6748 122.809 40.5079 122.389 40.5079Z" fill="#E4E4E4"/>
<path d="M86.1766 69.5476H67.7292C66.8045 69.5487 65.9179 69.9166 65.264 70.5705C64.6101 71.2245 64.2423 72.111 64.2412 73.0358V89.014C64.2423 89.9388 64.6101 90.8253 65.264 91.4792C65.9179 92.1332 66.8045 92.501 67.7292 92.5022H86.1766C87.1013 92.501 87.9879 92.1332 88.6418 91.4792C89.2957 90.8253 89.6635 89.9388 89.6646 89.014V73.0358C89.6635 72.111 89.2957 71.2245 88.6418 70.5705C87.9879 69.9166 87.1013 69.5487 86.1766 69.5476Z" fill="url(#paint4_linear_54_3320)"/>
<path d="M162.264 75.7266H97.9672C97.5471 75.7266 97.1441 75.8935 96.8471 76.1906C96.55 76.4876 96.3831 76.8906 96.3831 77.3107C96.3831 77.7309 96.55 78.1338 96.8471 78.4309C97.1441 78.728 97.5471 78.8949 97.9672 78.8949H162.264C162.684 78.8949 163.087 78.728 163.384 78.4309C163.681 78.1338 163.848 77.7309 163.848 77.3107C163.848 76.8906 163.681 76.4876 163.384 76.1906C163.087 75.8935 162.684 75.7266 162.264 75.7266Z" fill="#E4E4E4"/>
<path d="M122.389 83.1506H97.9672C97.5471 83.1506 97.1441 83.3175 96.847 83.6146C96.5499 83.9117 96.3831 84.3147 96.3831 84.7348C96.3831 85.155 96.5499 85.5579 96.847 85.855C97.1441 86.1521 97.5471 86.319 97.9672 86.319H122.389C122.809 86.319 123.212 86.1521 123.509 85.855C123.806 85.5579 123.973 85.155 123.973 84.7348C123.973 84.3147 123.806 83.9117 123.509 83.6146C123.212 83.3175 122.809 83.1506 122.389 83.1506Z" fill="#E4E4E4"/>
<path d="M86.1766 112.19H67.7292C66.8045 112.191 65.9179 112.559 65.264 113.213C64.6101 113.867 64.2423 114.754 64.2412 115.678V131.657C64.2423 132.581 64.6101 133.468 65.264 134.122C65.9179 134.776 66.8045 135.144 67.7292 135.145H86.1766C87.1013 135.144 87.9879 134.776 88.6418 134.122C89.2957 133.468 89.6635 132.581 89.6646 131.657V115.678C89.6635 114.754 89.2957 113.867 88.6418 113.213C87.9879 112.559 87.1013 112.191 86.1766 112.19Z" fill="url(#paint5_linear_54_3320)"/>
<path d="M162.264 118.369H97.9672C97.5471 118.369 97.1441 118.536 96.8471 118.833C96.55 119.13 96.3831 119.533 96.3831 119.953C96.3831 120.374 96.55 120.777 96.8471 121.074C97.1441 121.371 97.5471 121.538 97.9672 121.538H162.264C162.684 121.538 163.087 121.371 163.384 121.074C163.681 120.777 163.848 120.374 163.848 119.953C163.848 119.533 163.681 119.13 163.384 118.833C163.087 118.536 162.684 118.369 162.264 118.369Z" fill="#E4E4E4"/>
<path d="M122.389 125.793H97.9672C97.5471 125.793 97.1441 125.96 96.847 126.257C96.5499 126.554 96.3831 126.957 96.3831 127.377C96.3831 127.798 96.5499 128.2 96.847 128.498C97.1441 128.795 97.5471 128.962 97.9672 128.962H122.389C122.809 128.962 123.212 128.795 123.509 128.498C123.806 128.2 123.973 127.798 123.973 127.377C123.973 126.957 123.806 126.554 123.509 126.257C123.212 125.96 122.809 125.793 122.389 125.793Z" fill="#E4E4E4"/>
<path d="M221.001 186.116H115.397C114.91 186.116 114.514 178.632 114.514 169.432V71.2971C114.514 62.0975 114.91 54.6139 115.397 54.6139H221.001C221.488 54.6139 221.884 62.0975 221.884 71.2971V169.432C221.884 178.632 221.488 186.116 221.001 186.116Z" fill="white"/>
<path d="M221.001 186.542H115.397C114.95 186.542 114.627 186.542 114.347 181.246C114.18 178.085 114.088 173.889 114.088 169.432V71.2971C114.088 66.8407 114.18 62.6449 114.347 59.4831C114.627 54.1874 114.95 54.1874 115.397 54.1874H221.001C221.448 54.1874 221.771 54.1874 222.051 59.4831C222.218 62.6449 222.31 66.8407 222.31 71.2971V169.432C222.31 173.889 222.218 178.085 222.051 181.246C221.771 186.542 221.448 186.542 221.001 186.542ZM115.633 185.689H220.765C221.071 184.584 221.458 178.698 221.458 169.432V71.2971C221.458 62.0311 221.071 56.145 220.765 55.0402H115.633C115.327 56.145 114.941 62.0311 114.941 71.2971V169.432C114.94 178.698 115.327 184.584 115.633 185.689Z" fill="#E4E4E4"/>
<path d="M221.001 61.5733H115.397C115.163 61.5731 114.939 61.48 114.773 61.3145C114.608 61.1489 114.514 60.9245 114.514 60.6904V55.4968C114.514 55.2627 114.608 55.0383 114.773 54.8728C114.939 54.7073 115.163 54.6141 115.397 54.6139H221.001C221.235 54.6141 221.46 54.7073 221.625 54.8728C221.791 55.0383 221.884 55.2627 221.884 55.4968V60.6904C221.884 60.9245 221.791 61.1489 221.625 61.3145C221.46 61.48 221.235 61.5731 221.001 61.5733Z" fill="#CACACA"/>
<path d="M119.638 59.0937C120.33 59.0937 120.892 58.5325 120.892 57.8402C120.892 57.1479 120.33 56.5867 119.638 56.5867C118.946 56.5867 118.385 57.1479 118.385 57.8402C118.385 58.5325 118.946 59.0937 119.638 59.0937Z" fill="white"/>
<path d="M124.396 59.0937C125.088 59.0937 125.65 58.5325 125.65 57.8402C125.65 57.1479 125.088 56.5867 124.396 56.5867C123.704 56.5867 123.143 57.1479 123.143 57.8402C123.143 58.5325 123.704 59.0937 124.396 59.0937Z" fill="white"/>
<path d="M129.154 59.0937C129.847 59.0937 130.408 58.5325 130.408 57.8402C130.408 57.1479 129.847 56.5867 129.154 56.5867C128.462 56.5867 127.901 57.1479 127.901 57.8402C127.901 58.5325 128.462 59.0937 129.154 59.0937Z" fill="white"/>
<path d="M216.339 56.9775H210.86C210.753 56.9775 210.649 56.9347 210.573 56.8586C210.497 56.7825 210.454 56.6793 210.454 56.5716C210.454 56.464 210.497 56.3607 210.573 56.2846C210.649 56.2085 210.753 56.1658 210.86 56.1658H216.339C216.447 56.1661 216.55 56.209 216.625 56.2851C216.701 56.3612 216.744 56.4642 216.744 56.5716C216.744 56.679 216.701 56.7821 216.625 56.8581C216.55 56.9342 216.447 56.9771 216.339 56.9775Z" fill="white"/>
<path d="M216.339 58.4994H210.86C210.753 58.4994 210.649 58.4567 210.573 58.3806C210.497 58.3045 210.454 58.2012 210.454 58.0936C210.454 57.986 210.497 57.8827 210.573 57.8066C210.649 57.7305 210.753 57.6877 210.86 57.6877H216.339C216.447 57.6877 216.55 57.7305 216.626 57.8066C216.702 57.8827 216.745 57.986 216.745 58.0936C216.745 58.2012 216.702 58.3045 216.626 58.3806C216.55 58.4567 216.447 58.4994 216.339 58.4994Z" fill="white"/>
<path d="M216.339 60.0214H210.86C210.753 60.0214 210.649 59.9787 210.573 59.9025C210.497 59.8264 210.454 59.7232 210.454 59.6156C210.454 59.5079 210.497 59.4047 210.573 59.3286C210.649 59.2525 210.753 59.2097 210.86 59.2097H216.339C216.447 59.2101 216.55 59.253 216.625 59.3291C216.701 59.4051 216.744 59.5082 216.744 59.6156C216.744 59.723 216.701 59.826 216.625 59.9021C216.55 59.9782 216.447 60.0211 216.339 60.0214Z" fill="white"/>
<path d="M147.848 93.8098H134.376C133.7 93.8091 133.053 93.5404 132.575 93.0628C132.098 92.5852 131.829 91.9376 131.828 91.2621V79.5937C131.829 78.9183 132.098 78.2707 132.575 77.7931C133.053 77.3155 133.7 77.0468 134.376 77.046H147.848C148.523 77.0468 149.171 77.3155 149.649 77.7931C150.126 78.2707 150.395 78.9183 150.396 79.5937V91.2621C150.395 91.9376 150.126 92.5851 149.649 93.0628C149.171 93.5404 148.523 93.8091 147.848 93.8098Z" fill="url(#paint6_linear_54_3320)"/>
<path d="M203.413 83.8739H156.459C156.153 83.8739 155.858 83.752 155.642 83.5351C155.425 83.3182 155.303 83.024 155.303 82.7172C155.303 82.4104 155.425 82.1162 155.642 81.8993C155.858 81.6824 156.153 81.5605 156.459 81.5605H203.413C203.72 81.5605 204.014 81.6824 204.231 81.8993C204.448 82.1162 204.57 82.4104 204.57 82.7172C204.57 83.024 204.448 83.3182 204.231 83.5351C204.014 83.752 203.72 83.8739 203.413 83.8739Z" fill="#E4E4E4"/>
<path d="M174.293 89.2954H156.459C156.153 89.2954 155.858 89.1735 155.642 88.9566C155.425 88.7397 155.303 88.4455 155.303 88.1387C155.303 87.832 155.425 87.5378 155.642 87.3208C155.858 87.1039 156.153 86.9821 156.459 86.9821H174.293C174.445 86.9818 174.596 87.0115 174.737 87.0695C174.877 87.1275 175.005 87.2126 175.113 87.3201C175.22 87.4275 175.306 87.5551 175.364 87.6956C175.422 87.8361 175.452 87.9866 175.452 88.1387C175.452 88.2908 175.422 88.4414 175.364 88.5819C175.306 88.7224 175.22 88.85 175.113 88.9574C175.005 89.0648 174.877 89.15 174.737 89.208C174.596 89.266 174.445 89.2957 174.293 89.2954Z" fill="#E4E4E4"/>
<path d="M147.848 128.35H134.376C133.7 128.35 133.053 128.081 132.575 127.603C132.098 127.126 131.829 126.478 131.828 125.803V114.134C131.829 113.459 132.098 112.811 132.575 112.334C133.053 111.856 133.7 111.587 134.376 111.587H147.848C148.523 111.587 149.171 111.856 149.649 112.334C150.126 112.811 150.395 113.459 150.396 114.134V125.803C150.395 126.478 150.126 127.126 149.649 127.603C149.171 128.081 148.523 128.35 147.848 128.35Z" fill="url(#paint7_linear_54_3320)"/>
<path d="M203.413 118.414H156.459C156.153 118.414 155.858 118.293 155.642 118.076C155.425 117.859 155.303 117.565 155.303 117.258C155.303 116.951 155.425 116.657 155.642 116.44C155.858 116.223 156.153 116.101 156.459 116.101H203.413C203.72 116.101 204.014 116.223 204.231 116.44C204.448 116.657 204.57 116.951 204.57 117.258C204.57 117.565 204.448 117.859 204.231 118.076C204.014 118.293 203.72 118.414 203.413 118.414Z" fill="#E4E4E4"/>
<path d="M174.293 123.836H156.459C156.153 123.836 155.858 123.714 155.642 123.497C155.425 123.28 155.303 122.986 155.303 122.679C155.303 122.372 155.425 122.078 155.642 121.861C155.858 121.644 156.153 121.523 156.459 121.523H174.293C174.445 121.522 174.596 121.552 174.737 121.61C174.877 121.668 175.005 121.753 175.113 121.861C175.22 121.968 175.306 122.096 175.364 122.236C175.422 122.377 175.452 122.527 175.452 122.679C175.452 122.831 175.422 122.982 175.364 123.122C175.306 123.263 175.22 123.39 175.113 123.498C175.005 123.605 174.877 123.69 174.737 123.748C174.596 123.806 174.445 123.836 174.293 123.836Z" fill="#E4E4E4"/>
<path d="M147.848 162.891H134.376C133.7 162.89 133.053 162.622 132.575 162.144C132.098 161.666 131.829 161.019 131.828 160.343V148.675C131.829 147.999 132.098 147.352 132.575 146.874C133.053 146.397 133.7 146.128 134.376 146.127H147.848C148.523 146.128 149.171 146.397 149.649 146.874C150.126 147.352 150.395 147.999 150.396 148.675V160.343C150.395 161.019 150.126 161.666 149.649 162.144C149.171 162.622 148.523 162.89 147.848 162.891Z" fill="url(#paint8_linear_54_3320)"/>
<path d="M203.413 152.955H156.459C156.153 152.955 155.858 152.833 155.642 152.616C155.425 152.399 155.303 152.105 155.303 151.798C155.303 151.492 155.425 151.197 155.642 150.98C155.858 150.763 156.153 150.642 156.459 150.642H203.413C203.72 150.642 204.014 150.763 204.231 150.98C204.448 151.197 204.57 151.492 204.57 151.798C204.57 152.105 204.448 152.399 204.231 152.616C204.014 152.833 203.72 152.955 203.413 152.955Z" fill="#E4E4E4"/>
<path d="M174.293 158.377H156.459C156.153 158.377 155.858 158.255 155.642 158.038C155.425 157.821 155.303 157.527 155.303 157.22C155.303 156.913 155.425 156.619 155.642 156.402C155.858 156.185 156.153 156.063 156.459 156.063H174.293C174.445 156.063 174.596 156.093 174.737 156.151C174.877 156.209 175.005 156.294 175.113 156.401C175.22 156.509 175.306 156.636 175.364 156.777C175.422 156.917 175.452 157.068 175.452 157.22C175.452 157.372 175.422 157.523 175.364 157.663C175.306 157.804 175.22 157.931 175.113 158.039C175.005 158.146 174.877 158.231 174.737 158.289C174.596 158.347 174.445 158.377 174.293 158.377Z" fill="#E4E4E4"/>
</g>
<defs>
<linearGradient id="paint0_linear_54_3320" x1="233.635" y1="30.0819" x2="249.174" y2="30.0819" gradientUnits="userSpaceOnUse">
<stop stop-color="#F12711"/>
<stop offset="1" stop-color="#F5AF19"/>
</linearGradient>
<linearGradient id="paint1_linear_54_3320" x1="233.635" y1="72.298" x2="249.174" y2="72.298" gradientUnits="userSpaceOnUse">
<stop stop-color="#F12711"/>
<stop offset="1" stop-color="#F5AF19"/>
</linearGradient>
<linearGradient id="paint2_linear_54_3320" x1="233.635" y1="114.514" x2="249.174" y2="114.514" gradientUnits="userSpaceOnUse">
<stop stop-color="#F12711"/>
<stop offset="1" stop-color="#F5AF19"/>
</linearGradient>
<linearGradient id="paint3_linear_54_3320" x1="64.2412" y1="38.3822" x2="89.6646" y2="38.3822" gradientUnits="userSpaceOnUse">
<stop stop-color="#F12711"/>
<stop offset="1" stop-color="#F5AF19"/>
</linearGradient>
<linearGradient id="paint4_linear_54_3320" x1="64.2412" y1="81.0249" x2="89.6646" y2="81.0249" gradientUnits="userSpaceOnUse">
<stop stop-color="#F12711"/>
<stop offset="1" stop-color="#F5AF19"/>
</linearGradient>
<linearGradient id="paint5_linear_54_3320" x1="64.2412" y1="123.668" x2="89.6646" y2="123.668" gradientUnits="userSpaceOnUse">
<stop stop-color="#F12711"/>
<stop offset="1" stop-color="#F5AF19"/>
</linearGradient>
<linearGradient id="paint6_linear_54_3320" x1="131.828" y1="85.4279" x2="150.396" y2="85.4279" gradientUnits="userSpaceOnUse">
<stop stop-color="#F12711"/>
<stop offset="1" stop-color="#F5AF19"/>
</linearGradient>
<linearGradient id="paint7_linear_54_3320" x1="131.828" y1="119.968" x2="150.396" y2="119.968" gradientUnits="userSpaceOnUse">
<stop stop-color="#F12711"/>
<stop offset="1" stop-color="#F5AF19"/>
</linearGradient>
<linearGradient id="paint8_linear_54_3320" x1="131.828" y1="154.509" x2="150.396" y2="154.509" gradientUnits="userSpaceOnUse">
<stop stop-color="#F12711"/>
<stop offset="1" stop-color="#F5AF19"/>
</linearGradient>
<clipPath id="clip0_54_3320">
<rect width="312" height="186.084" fill="white" transform="translate(0.000244141 0.458008)"/>
</clipPath>
</defs>
</svg>
