<svg width="41" height="40" viewBox="0 0 41 40" fill="none" xmlns="http://www.w3.org/2000/svg">
<g id="twitter">
<circle id="bg" cx="20.9648" cy="20" r="20" fill="url(#paint0_linear_81_18689)"/>
<path id="icon twitter" d="M29.1016 16.5938C29.8047 16.0664 30.4375 15.4336 30.9648 14.6602C30.2617 14.9766 29.5586 15.1875 28.8555 15.2578C29.6289 14.7656 30.1914 14.0977 30.4727 13.2188C29.7344 13.6406 28.9609 13.957 28.1172 14.0977C27.7656 13.7461 27.3438 13.4648 26.8867 13.2539C26.4297 13.043 25.9375 12.9375 25.4102 12.9375C24.7422 12.9375 24.1445 13.1133 23.582 13.4297C23.0195 13.7812 22.5625 14.2383 22.2461 14.8008C21.8945 15.3633 21.7539 15.9961 21.7539 16.6289C21.7539 16.9102 21.7539 17.1914 21.8242 17.4727C20.3125 17.4023 18.9062 17.0508 17.5703 16.3477C16.2344 15.6797 15.1445 14.7656 14.2305 13.6055C13.8789 14.2031 13.7031 14.8359 13.7031 15.4688C13.7031 16.1016 13.8438 16.6992 14.1602 17.2266C14.4414 17.7891 14.8633 18.2109 15.3555 18.5625C14.7578 18.5625 14.1953 18.3867 13.7031 18.0703V18.1406C13.7031 19.0195 13.9844 19.793 14.5469 20.4609C15.1094 21.1641 15.8125 21.5859 16.6562 21.7617C16.3047 21.832 15.9883 21.8672 15.6719 21.8672C15.4609 21.8672 15.2148 21.8672 15.0039 21.832C15.2148 22.5703 15.6367 23.168 16.2695 23.6602C16.9023 24.1523 17.6055 24.3633 18.4492 24.3633C17.0781 25.418 15.5312 25.9453 13.8438 25.9453C13.4922 25.9453 13.2109 25.9453 12.9648 25.9102C14.6523 27.0352 16.5508 27.5625 18.625 27.5625C20.7695 27.5625 22.668 27.0352 24.3555 25.9102C25.8672 24.9258 27.0625 23.625 27.9062 21.9375C28.7148 20.3906 29.1367 18.7383 29.1367 17.0508C29.1367 16.8398 29.1016 16.6992 29.1016 16.5938Z" fill="white"/>
</g>
<defs>
<linearGradient id="paint0_linear_81_18689" x1="0.964844" y1="20" x2="40.9648" y2="20" gradientUnits="userSpaceOnUse">
<stop stop-color="#F12711"/>
<stop offset="1" stop-color="#F5AF19"/>
</linearGradient>
</defs>
</svg>
