<svg width="702" height="380" viewBox="0 0 702 380" fill="none" xmlns="http://www.w3.org/2000/svg">
<g clip-path="url(#clip0_54_3464)">
<path d="M44.465 317.029L42.2753 328.017C42.1103 328.857 41.9379 329.713 41.7504 330.56C39.9202 330.181 38.0227 330.287 36.2462 330.868C37.6556 332.882 38.9187 334.995 40.0256 337.191C38.6458 341.443 36.6211 345.374 33.2316 348.216C30.9678 350.073 28.2639 351.314 25.3808 351.821C22.4977 352.329 19.5326 352.084 16.7714 351.112L16.8689 350.677C13.2244 343.604 15.2041 334.685 19.7335 328.152C22.0436 324.929 24.7808 322.035 27.8698 319.549C30.9294 316.999 34.2365 314.711 37.5135 312.454C38.2495 311.947 39.1197 311.672 40.0129 311.663C40.9061 311.654 41.7818 311.911 42.528 312.403C43.2742 312.894 43.857 313.596 44.2021 314.42C44.5471 315.244 44.6386 316.153 44.465 317.029Z" fill="#E4E4E4"/>
<path d="M17.5513 377.551C16.6297 370.836 15.6818 364.035 16.3282 357.248C16.9026 351.22 18.7406 345.333 22.4841 340.506C24.471 337.948 26.8886 335.757 29.6283 334.03C30.343 333.58 30.9999 334.712 30.289 335.161C25.5487 338.157 21.8823 342.582 19.8182 347.797C17.5385 353.596 17.1726 359.919 17.5685 366.079C17.8063 369.804 18.3094 373.504 18.8171 377.202C18.858 377.369 18.8334 377.546 18.7484 377.696C18.6633 377.846 18.5243 377.957 18.3597 378.008C18.1923 378.053 18.0137 378.03 17.863 377.945C17.7122 377.859 17.6012 377.717 17.5543 377.55L17.5513 377.551Z" fill="#F2F2F2"/>
<path d="M25.4608 40.7284C57.5842 40.1697 89.7111 40.0894 121.841 40.4876C153.967 40.8881 186.082 41.7692 218.186 43.1309C236.201 43.8951 254.209 44.8105 272.209 45.8773C273.655 45.9628 273.651 43.7124 272.209 43.6271C240.137 41.7288 208.042 40.3085 175.922 39.366C143.808 38.426 111.684 37.9666 79.5513 37.9879C61.5201 37.9999 43.49 38.1633 25.4608 38.4782C24.0147 38.5034 24.0101 40.7536 25.4608 40.7284Z" fill="#E6E6E6"/>
<path d="M249.331 26.6193L263.377 25.5736C264.812 25.4668 264.824 23.2158 263.377 23.3234L249.331 24.3691C247.896 24.4759 247.884 26.727 249.331 26.6193Z" fill="#E6E6E6"/>
<path d="M249.331 40.1203L263.377 39.0746C264.812 38.9678 264.824 36.7167 263.377 36.8244L249.331 37.8701C247.896 37.9769 247.884 40.2279 249.331 40.1203Z" fill="#E6E6E6"/>
<path d="M248.274 33.9546L268.245 35.7694C269.687 35.9004 269.678 33.6494 268.245 33.5192L248.274 31.7045C246.833 31.5735 246.842 33.8245 248.274 33.9546Z" fill="#E6E6E6"/>
<path d="M33.7738 23.5931C32.797 23.5871 31.84 23.8687 31.0221 24.403C30.2043 24.9373 29.5617 25.7005 29.1746 26.5975C28.7415 27.4754 28.6078 28.4711 28.7939 29.4322C28.9801 30.3934 29.4758 31.2671 30.2054 31.9197C30.8912 32.5034 31.7138 32.9035 32.5962 33.0828C33.4786 33.2621 34.3921 33.2147 35.2513 32.9451C36.1299 32.6381 36.8918 32.0663 37.4321 31.3084C37.9725 30.5505 38.2646 29.6436 38.2684 28.7128C38.3076 27.68 38.0279 26.6602 37.4672 25.7921C36.9066 24.9239 36.0922 24.2495 35.1349 23.8606C34.8473 23.7825 34.5404 23.8212 34.2812 23.9684C34.022 24.1156 33.8315 24.3593 33.7512 24.6464C33.6803 24.9339 33.7222 25.2376 33.8683 25.495C34.0145 25.7525 34.2537 25.9441 34.5368 26.0304C34.7329 26.1062 34.3578 25.934 34.5408 26.0338C34.6161 26.0748 34.6927 26.1119 34.7666 26.1556C34.8295 26.1929 34.8896 26.2336 34.9507 26.2735C35.1607 26.4106 34.8482 26.1729 34.9824 26.2961C35.0988 26.403 35.2142 26.5072 35.3199 26.6252C35.36 26.6697 35.5167 26.7937 35.3949 26.7071C35.3017 26.6408 35.3589 26.6563 35.3948 26.7096C35.4221 26.75 35.4509 26.7893 35.4778 26.8299C35.5655 26.9627 35.6452 27.1005 35.7166 27.2427C35.7331 27.2756 35.7482 27.3093 35.765 27.3421C35.7965 27.4034 35.8422 27.4195 35.7681 27.3426C35.6974 27.2692 35.7424 27.2742 35.7677 27.3449C35.7844 27.3913 35.8025 27.4372 35.8187 27.4838C35.8715 27.6356 35.9158 27.7902 35.9514 27.9468C35.9678 28.0192 35.9811 28.0921 35.9953 28.165C36.0455 28.4233 35.988 28.0043 36.0001 28.1963C36.0102 28.3565 36.0221 28.515 36.0193 28.6759C36.018 28.7495 36.0148 28.8231 36.0097 28.8965C36.0071 28.9331 36.003 28.9697 36.0006 29.0063C35.9889 29.1828 35.9885 28.9418 36.0132 28.9253C35.9618 29.0752 35.9277 29.2304 35.9116 29.3881C35.8914 29.458 35.8675 29.5264 35.8451 29.5956C35.7668 29.837 35.9186 29.464 35.8352 29.629C35.7665 29.7707 35.6898 29.9084 35.6054 30.0413C35.5687 30.097 35.4305 30.2227 35.5435 30.1352C35.6661 30.0403 35.4792 30.2038 35.4393 30.2459C35.3881 30.2999 35.3349 30.3521 35.2798 30.4024C35.2445 30.4368 35.2073 30.4692 35.1683 30.4994C35.1611 30.4958 35.3562 30.3691 35.251 30.4361C35.1174 30.5214 34.9908 30.6126 34.85 30.6868C34.8336 30.6955 34.6535 30.7789 34.6542 30.7819C34.6465 30.7515 34.8857 30.6976 34.7215 30.7507C34.687 30.7618 34.6532 30.7753 34.6188 30.7869C34.4693 30.8372 34.3166 30.8779 34.1619 30.9086C34.1264 30.9157 34.089 30.9193 34.0541 30.9283C33.9378 30.9584 34.1652 30.9107 34.172 30.9146C34.0861 30.9109 34 30.9185 33.916 30.9373C33.7564 30.9464 33.5964 30.9464 33.4368 30.9372C33.3999 30.9351 33.3631 30.9314 33.3262 30.9293C33.2404 30.9243 33.1775 30.8625 33.2916 30.9296C33.3796 30.9813 33.3723 30.9436 33.2943 30.9292C33.2579 30.9224 33.2212 30.9167 33.1848 30.9099C33.0268 30.8803 32.8706 30.8421 32.7168 30.7953C32.6341 30.77 32.553 30.7407 32.4714 30.7122C32.4359 30.7019 32.4012 30.6885 32.3679 30.6723C32.3674 30.6631 32.5783 30.7731 32.467 30.7131C32.3265 30.6374 32.1812 30.5739 32.044 30.4911C31.9708 30.4469 31.9004 30.3989 31.8292 30.3516C31.7979 30.3327 31.7682 30.3114 31.7402 30.2878C31.7426 30.2783 31.9146 30.4378 31.8243 30.3517C31.7101 30.2428 31.5879 30.1454 31.4798 30.0294C31.455 30.0029 31.4316 29.9752 31.4069 29.9486L31.3831 29.9213C31.3221 29.8468 31.321 29.8471 31.3797 29.9224C31.4393 29.9399 31.4366 30.0054 31.38 29.9204C31.3599 29.8901 31.3384 29.8607 31.3183 29.8304C31.227 29.7002 31.1491 29.5611 31.0858 29.4151C31.0913 29.4109 31.1833 29.6858 31.1129 29.4783C31.0997 29.4391 31.0847 29.4005 31.0717 29.3612C31.0458 29.2833 31.0231 29.2045 31.0034 29.1248C30.984 29.0459 30.974 28.9644 30.9544 28.8858C30.9214 28.7533 30.9737 28.9904 30.9678 28.9845C30.949 28.9659 30.957 28.851 30.9556 28.8235C30.9466 28.647 30.9667 28.4756 30.9698 28.3002C30.9723 28.1642 30.9586 28.4061 30.9558 28.399C30.9564 28.3583 30.9637 28.3179 30.9771 28.2795C30.9975 28.187 31.0164 28.0945 31.0413 28.003C31.0699 27.8982 31.1027 27.7947 31.1399 27.6925C31.1538 27.6542 31.1707 27.6165 31.1837 27.578C31.231 27.4367 31.0899 27.7486 31.1677 27.6212C31.2747 27.4459 31.3544 27.2562 31.4681 27.0831C31.495 27.0421 31.6587 26.8135 31.5718 26.9289C31.4853 27.0439 31.6607 26.826 31.6939 26.789C31.8319 26.6353 31.9942 26.5092 32.137 26.362C32.2216 26.2749 32.078 26.4049 32.0695 26.411C32.1138 26.3794 32.1571 26.3465 32.2019 26.3157C32.28 26.2618 32.36 26.2109 32.4419 26.163C32.5342 26.1088 32.6386 26.0686 32.728 26.0113C32.8337 25.9437 32.6472 26.041 32.6438 26.043C32.6921 26.0191 32.7426 25.9998 32.7945 25.9856C32.8816 25.9547 33.2604 25.7912 33.3399 25.8423C33.3363 25.84 33.0523 25.8652 33.2819 25.8504C33.3362 25.847 33.3902 25.8417 33.4445 25.8394C33.5545 25.8349 33.664 25.8376 33.7738 25.8433C34.0715 25.8414 34.3565 25.7222 34.567 25.5116C34.7776 25.3011 34.8967 25.016 34.8987 24.7182C34.8923 24.4218 34.7717 24.1393 34.5621 23.9297C34.3526 23.7201 34.0701 23.5995 33.7738 23.5931Z" fill="#E6E6E6"/>
<path d="M49.5213 23.5931C48.5445 23.5871 47.5875 23.8687 46.7697 24.403C45.9518 24.9373 45.3093 25.7005 44.9221 26.5975C44.489 27.4754 44.3553 28.4711 44.5415 29.4322C44.7276 30.3934 45.2234 31.2671 45.953 31.9197C46.6388 32.5034 47.4613 32.9035 48.3438 33.0828C49.2262 33.2621 50.1397 33.2147 50.9988 32.9451C51.8775 32.6381 52.6394 32.0663 53.1797 31.3084C53.72 30.5505 54.0122 29.6436 54.0159 28.7128C54.0552 27.68 53.7754 26.6602 53.2148 25.7921C52.6542 24.9239 51.8398 24.2495 50.8825 23.8606C50.5948 23.7825 50.288 23.8212 50.0288 23.9684C49.7696 24.1156 49.5791 24.3593 49.4988 24.6464C49.4278 24.9339 49.4697 25.2376 49.6159 25.495C49.762 25.7525 50.0013 25.9441 50.2844 26.0304C50.4804 26.1062 50.1053 25.934 50.2884 26.0338C50.3636 26.0748 50.4403 26.1119 50.5142 26.1556C50.577 26.1929 50.6372 26.2336 50.6983 26.2735C50.9083 26.4106 50.5958 26.1729 50.73 26.2961C50.8464 26.403 50.9617 26.5072 51.0675 26.6252C51.1075 26.6697 51.2642 26.7937 51.1424 26.7071C51.0493 26.6408 51.1065 26.6563 51.1424 26.7096C51.1697 26.75 51.1985 26.7893 51.2254 26.8299C51.3131 26.9627 51.3928 27.1005 51.4641 27.2427C51.4807 27.2756 51.4958 27.3093 51.5126 27.3421C51.5441 27.4034 51.5897 27.4195 51.5157 27.3426C51.4449 27.2692 51.49 27.2742 51.5153 27.3449C51.5319 27.3913 51.5501 27.4372 51.5663 27.4838C51.619 27.6356 51.6633 27.7902 51.6989 27.9468C51.7154 28.0192 51.7287 28.0921 51.7428 28.165C51.7931 28.4233 51.7355 28.0043 51.7477 28.1963C51.7578 28.3565 51.7696 28.515 51.7668 28.6759C51.7655 28.7495 51.7623 28.8231 51.7572 28.8965C51.7546 28.9331 51.7505 28.9697 51.7481 29.0063C51.7365 29.1828 51.7361 28.9418 51.7608 28.9253C51.7094 29.0752 51.6753 29.2304 51.6591 29.3881C51.639 29.458 51.6151 29.5264 51.5926 29.5956C51.5144 29.837 51.6661 29.464 51.5827 29.629C51.5141 29.7707 51.4373 29.9084 51.3529 30.0413C51.3163 30.097 51.1781 30.2227 51.2911 30.1352C51.4137 30.0403 51.2268 30.2038 51.1869 30.2459C51.1357 30.2999 51.0825 30.3521 51.0274 30.4024C50.9921 30.4368 50.9548 30.4692 50.9158 30.4994C50.9087 30.4958 51.1037 30.3691 50.9986 30.4361C50.8649 30.5214 50.7384 30.6126 50.5975 30.6868C50.5811 30.6955 50.4011 30.7789 50.4018 30.7819C50.394 30.7515 50.6333 30.6976 50.4691 30.7507C50.4346 30.7618 50.4007 30.7753 50.3664 30.7869C50.2168 30.8372 50.0642 30.8779 49.9094 30.9086C49.874 30.9157 49.8365 30.9193 49.8016 30.9283C49.6853 30.9584 49.9127 30.9107 49.9196 30.9146C49.8336 30.9109 49.7476 30.9185 49.6636 30.9373C49.504 30.9464 49.344 30.9464 49.1844 30.9372C49.1475 30.9351 49.1106 30.9314 49.0737 30.9293C48.988 30.9243 48.9251 30.8625 49.0392 30.9296C49.1272 30.9813 49.1199 30.9436 49.0419 30.9292C49.0054 30.9224 48.9688 30.9167 48.9323 30.9099C48.7744 30.8803 48.6182 30.8421 48.4644 30.7953C48.3817 30.77 48.3006 30.7407 48.219 30.7122C48.1834 30.7019 48.1488 30.6885 48.1155 30.6723C48.115 30.6631 48.3259 30.7731 48.2145 30.7131C48.074 30.6374 47.9287 30.5739 47.7915 30.4911C47.7183 30.4469 47.648 30.3989 47.5768 30.3516C47.5455 30.3327 47.5157 30.3114 47.4878 30.2878C47.4901 30.2783 47.6622 30.4378 47.5719 30.3517C47.4576 30.2428 47.3355 30.1454 47.2273 30.0294C47.2026 30.0029 47.1792 29.9752 47.1545 29.9486L47.1306 29.9213C47.0697 29.8468 47.0685 29.8471 47.1272 29.9224C47.1869 29.9399 47.1841 30.0054 47.1276 29.9204C47.1074 29.8901 47.086 29.8607 47.0659 29.8304C46.9745 29.7002 46.8966 29.5611 46.8334 29.4151C46.8389 29.4109 46.9308 29.6858 46.8605 29.4783C46.8472 29.4391 46.8323 29.4005 46.8193 29.3612C46.7934 29.2833 46.7707 29.2045 46.751 29.1248C46.7316 29.0459 46.7216 28.9644 46.702 28.8858C46.6689 28.7533 46.7213 28.9904 46.7153 28.9845C46.6966 28.9659 46.7045 28.851 46.7031 28.8235C46.6941 28.647 46.7143 28.4756 46.7174 28.3002C46.7198 28.1642 46.7061 28.4061 46.7033 28.399C46.704 28.3583 46.7112 28.3179 46.7247 28.2795C46.745 28.187 46.764 28.0945 46.7889 28.003C46.8174 27.8982 46.8503 27.7947 46.8875 27.6925C46.9014 27.6542 46.9183 27.6165 46.9312 27.578C46.9786 27.4367 46.8375 27.7486 46.9153 27.6212C47.0223 27.4459 47.102 27.2562 47.2156 27.0831C47.2426 27.0421 47.4062 26.8135 47.3194 26.9289C47.2328 27.0439 47.4083 26.826 47.4415 26.789C47.5795 26.6353 47.7417 26.5092 47.8846 26.362C47.9691 26.2749 47.8256 26.4049 47.8171 26.411C47.8613 26.3794 47.9047 26.3465 47.9495 26.3157C48.0276 26.2618 48.1076 26.2109 48.1895 26.163C48.2818 26.1088 48.3861 26.0686 48.4755 26.0113C48.5812 25.9437 48.3947 26.041 48.3914 26.043C48.4397 26.0191 48.4901 25.9998 48.5421 25.9856C48.6292 25.9547 49.008 25.7912 49.0875 25.8423C49.0839 25.84 48.7998 25.8652 49.0294 25.8504C49.0837 25.847 49.1377 25.8417 49.1921 25.8394C49.302 25.8349 49.4116 25.8376 49.5214 25.8433C49.8191 25.8414 50.1041 25.7222 50.3146 25.5116C50.5251 25.3011 50.6443 25.016 50.6462 24.7182C50.6398 24.4218 50.5193 24.1393 50.3097 23.9297C50.1001 23.7201 49.8177 23.5995 49.5213 23.5931Z" fill="#E6E6E6"/>
<path d="M65.2691 23.5931C64.2923 23.5871 63.3353 23.8687 62.5175 24.403C61.6996 24.9373 61.0571 25.7005 60.6699 26.5975C60.2368 27.4754 60.1031 28.4711 60.2893 29.4322C60.4754 30.3934 60.9712 31.2671 61.7008 31.9197C62.3866 32.5034 63.2092 32.9035 64.0916 33.0828C64.974 33.2621 65.8875 33.2147 66.7466 32.9451C67.6253 32.6381 68.3872 32.0663 68.9275 31.3084C69.4678 30.5505 69.76 29.6436 69.7637 28.7128C69.803 27.68 69.5232 26.6602 68.9626 25.7921C68.402 24.9239 67.5876 24.2495 66.6303 23.8606C66.3426 23.7825 66.0358 23.8212 65.7766 23.9684C65.5174 24.1156 65.3269 24.3593 65.2466 24.6464C65.1756 24.9339 65.2175 25.2376 65.3637 25.495C65.5098 25.7525 65.7491 25.9441 66.0322 26.0304C66.2282 26.1062 65.8531 25.934 66.0362 26.0338C66.1114 26.0748 66.1881 26.1119 66.262 26.1556C66.3248 26.1929 66.385 26.2336 66.4461 26.2735C66.6561 26.4106 66.3436 26.1729 66.4778 26.2961C66.5942 26.403 66.7095 26.5072 66.8153 26.6252C66.8553 26.6697 67.012 26.7937 66.8902 26.7071C66.7971 26.6408 66.8543 26.6563 66.8902 26.7096C66.9175 26.75 66.9463 26.7893 66.9732 26.8299C67.0609 26.9627 67.1406 27.1005 67.2119 27.2427C67.2285 27.2756 67.2436 27.3093 67.2604 27.3421C67.2919 27.4034 67.3375 27.4195 67.2635 27.3426C67.1927 27.2692 67.2378 27.2742 67.2631 27.3449C67.2797 27.3913 67.2979 27.4372 67.3141 27.4838C67.3668 27.6356 67.4111 27.7902 67.4467 27.9468C67.4632 28.0192 67.4765 28.0921 67.4906 28.165C67.5409 28.4233 67.4833 28.0043 67.4955 28.1963C67.5056 28.3565 67.5174 28.515 67.5146 28.6759C67.5133 28.7495 67.5101 28.8231 67.505 28.8965C67.5024 28.9331 67.4984 28.9697 67.4959 29.0063C67.4843 29.1828 67.4839 28.9418 67.5086 28.9253C67.4572 29.0752 67.4231 29.2304 67.4069 29.3881C67.3868 29.458 67.3629 29.5264 67.3404 29.5956C67.2622 29.837 67.4139 29.464 67.3305 29.629C67.2619 29.7707 67.1851 29.9084 67.1007 30.0413C67.0641 30.097 66.9259 30.2227 67.0389 30.1352C67.1615 30.0403 66.9746 30.2038 66.9347 30.2459C66.8835 30.2999 66.8303 30.3521 66.7752 30.4024C66.7399 30.4368 66.7026 30.4692 66.6636 30.4994C66.6565 30.4958 66.8515 30.3691 66.7464 30.4361C66.6127 30.5214 66.4862 30.6126 66.3453 30.6868C66.3289 30.6955 66.1489 30.7789 66.1496 30.7819C66.1418 30.7515 66.3811 30.6976 66.2169 30.7507C66.1824 30.7618 66.1485 30.7753 66.1142 30.7869C65.9646 30.8372 65.812 30.8779 65.6572 30.9086C65.6218 30.9157 65.5843 30.9193 65.5494 30.9283C65.4331 30.9584 65.6605 30.9107 65.6674 30.9146C65.5814 30.9109 65.4954 30.9185 65.4114 30.9373C65.2518 30.9464 65.0918 30.9464 64.9322 30.9372C64.8953 30.9351 64.8584 30.9314 64.8215 30.9293C64.7358 30.9243 64.6729 30.8625 64.787 30.9296C64.875 30.9813 64.8677 30.9436 64.7897 30.9292C64.7532 30.9224 64.7166 30.9167 64.6801 30.9099C64.5222 30.8803 64.366 30.8421 64.2122 30.7953C64.1295 30.77 64.0484 30.7407 63.9668 30.7122C63.9312 30.7019 63.8966 30.6885 63.8633 30.6723C63.8628 30.6631 64.0737 30.7731 63.9623 30.7131C63.8218 30.6374 63.6765 30.5739 63.5393 30.4911C63.4661 30.4469 63.3958 30.3989 63.3246 30.3516C63.2933 30.3327 63.2635 30.3114 63.2356 30.2878C63.2379 30.2783 63.41 30.4378 63.3197 30.3517C63.2055 30.2428 63.0833 30.1454 62.9751 30.0294C62.9504 30.0029 62.927 29.9752 62.9023 29.9486L62.8784 29.9213C62.8175 29.8468 62.8163 29.8471 62.8751 29.9224C62.9347 29.9399 62.9319 30.0054 62.8754 29.9204C62.8552 29.8901 62.8338 29.8607 62.8137 29.8304C62.7223 29.7002 62.6444 29.5611 62.5812 29.4151C62.5867 29.4109 62.6786 29.6858 62.6083 29.4783C62.595 29.4391 62.5801 29.4005 62.5671 29.3612C62.5412 29.2833 62.5185 29.2045 62.4988 29.1248C62.4794 29.0459 62.4694 28.9644 62.4498 28.8858C62.4167 28.7533 62.4691 28.9904 62.4631 28.9845C62.4444 28.9659 62.4523 28.851 62.4509 28.8235C62.4419 28.647 62.4621 28.4756 62.4652 28.3002C62.4676 28.1642 62.454 28.4061 62.4511 28.399C62.4518 28.3583 62.459 28.3179 62.4725 28.2795C62.4928 28.187 62.5118 28.0945 62.5367 28.003C62.5652 27.8982 62.5981 27.7947 62.6353 27.6925C62.6492 27.6542 62.6661 27.6165 62.679 27.578C62.7264 27.4367 62.5853 27.7486 62.6631 27.6212C62.7701 27.4459 62.8498 27.2562 62.9634 27.0831C62.9904 27.0421 63.1541 26.8135 63.0672 26.9289C62.9806 27.0439 63.1561 26.826 63.1893 26.789C63.3273 26.6353 63.4895 26.5092 63.6324 26.362C63.717 26.2749 63.5734 26.4049 63.5649 26.411C63.6091 26.3794 63.6525 26.3465 63.6973 26.3157C63.7754 26.2618 63.8554 26.2109 63.9373 26.163C64.0296 26.1088 64.1339 26.0686 64.2234 26.0113C64.329 25.9437 64.1425 26.041 64.1392 26.043C64.1875 26.0191 64.2379 25.9998 64.2899 25.9856C64.377 25.9547 64.7558 25.7912 64.8353 25.8423C64.8317 25.84 64.5476 25.8652 64.7772 25.8504C64.8315 25.847 64.8856 25.8417 64.9399 25.8394C65.0498 25.8349 65.1594 25.8376 65.2692 25.8433C65.5669 25.8414 65.8519 25.7222 66.0624 25.5116C66.2729 25.3011 66.3921 25.016 66.394 24.7182C66.3876 24.4218 66.2671 24.1393 66.0575 23.9297C65.8479 23.7201 65.5655 23.5995 65.2691 23.5931Z" fill="#E6E6E6"/>
<path d="M292.767 272.77H16.8772C13.3885 272.766 10.0438 271.379 7.57696 268.911C5.11007 266.444 3.72243 263.098 3.71851 259.609V13.6615C3.72242 10.1721 5.11003 6.82665 7.57691 4.35923C10.0438 1.89182 13.3885 0.503913 16.8772 0.5H292.767C296.256 0.503913 299.601 1.89182 302.068 4.35923C304.535 6.82665 305.922 10.1721 305.926 13.6615V259.609C305.922 263.098 304.535 266.444 302.068 268.911C299.601 271.379 296.256 272.766 292.767 272.77ZM16.8772 2.00011C13.7861 2.00363 10.8227 3.23337 8.63699 5.41954C6.45129 7.60571 5.22181 10.5698 5.2183 13.6615V259.609C5.22189 262.701 6.45141 265.665 8.6371 267.851C10.8228 270.037 13.7862 271.267 16.8772 271.27H292.767C295.858 271.267 298.822 270.037 301.008 267.851C303.193 265.665 304.423 262.701 304.426 259.609V13.6615C304.423 10.5698 303.193 7.60571 301.008 5.41954C298.822 3.23337 295.858 2.00363 292.767 2.00011H16.8772Z" fill="#E6E6E6"/>
<path d="M16.42 167.842L113.441 167.547L209.967 167.253L264.417 167.087C264.709 167.077 264.985 166.954 265.188 166.744C265.39 166.534 265.504 166.254 265.504 165.962C265.504 165.67 265.39 165.39 265.188 165.18C264.985 164.97 264.709 164.847 264.417 164.837L167.396 165.132L70.8705 165.426L16.42 165.592C16.1285 165.602 15.8522 165.725 15.6495 165.935C15.4468 166.145 15.3335 166.425 15.3335 166.717C15.3335 167.009 15.4468 167.289 15.6495 167.499C15.8522 167.709 16.1285 167.832 16.42 167.842Z" fill="#E6E6E6"/>
<path d="M65.3654 166.018L65.9653 130.587C65.9898 129.139 63.7401 129.138 63.7156 130.587L63.1157 166.018C63.0911 167.466 65.3408 167.466 65.3654 166.018Z" fill="#E6E6E6"/>
<path d="M111.735 166.401L113.197 121.867L113.615 109.143C113.663 107.694 111.413 107.696 111.365 109.143L109.903 153.677L109.486 166.401C109.438 167.849 111.688 167.848 111.735 166.401Z" fill="#E6E6E6"/>
<path d="M157.98 88.0324C157.098 103.806 155.467 150.332 154.585 166.106C154.504 167.552 156.754 167.548 156.835 166.106C157.716 150.332 159.348 103.806 160.23 88.0324C160.311 86.5855 158.061 86.5901 157.98 88.0324Z" fill="#E6E6E6"/>
<path d="M204.003 150.278L203.727 165.439C203.7 166.887 205.95 166.888 205.976 165.439C206.302 147.533 207.137 148.116 207.229 143.063C207.256 141.614 205.006 141.614 204.98 143.063C204.98 143.063 204.328 132.372 204.003 150.278Z" fill="#E6E6E6"/>
<path d="M249.08 110.45L249.335 152.984L249.407 165.164C249.417 165.455 249.54 165.732 249.75 165.934C249.96 166.137 250.24 166.251 250.532 166.251C250.824 166.251 251.104 166.137 251.314 165.934C251.524 165.732 251.647 165.455 251.657 165.164L251.403 122.629L251.33 110.45C251.32 110.158 251.197 109.882 250.987 109.679C250.777 109.476 250.497 109.363 250.205 109.363C249.913 109.363 249.633 109.476 249.423 109.679C249.213 109.882 249.09 110.158 249.08 110.45Z" fill="#E6E6E6"/>
<path d="M16.601 166.576C14.7388 161.458 18.9365 156.535 23.2498 154.323C28.4173 151.673 34.3619 151.072 39.5842 148.517C47.3698 144.708 53.0406 137.873 58.0866 131.03C63.2802 123.988 68.0322 116.43 74.6316 110.578C78.1092 107.426 82.2164 105.049 86.6815 103.603C92.3074 101.847 98.2739 101.727 104.087 102.434C116.099 103.897 127.235 108.859 138.825 112.013C149.753 114.987 161.793 116.659 172.519 112.035C177.968 109.686 182.424 105.745 187.211 102.336C191.843 99.001 197.022 96.502 202.515 94.9515C213.282 91.9569 225.04 92.7565 235.064 97.819C244.278 102.413 251.574 110.114 255.663 119.565C260.416 130.92 259.797 143.609 258.245 155.56C257.843 158.649 257.366 161.728 256.883 164.806C256.661 166.222 258.828 166.833 259.052 165.404C260.986 153.08 262.913 140.366 260.507 127.964C258.428 117.135 252.474 107.435 243.761 100.68C235.012 93.9054 224.135 90.4719 213.082 90.9953C207.29 91.2642 201.589 92.5325 196.229 94.7444C190.665 97.0462 185.954 100.458 181.168 104.048C176.248 107.739 171.176 110.792 165.067 111.996C159.142 113.163 152.978 112.726 147.079 111.623C134.906 109.348 123.56 104.134 111.491 101.462C100.309 98.9865 88.242 98.7392 78.2288 105.058C70.5263 109.918 65.0837 117.464 59.8603 124.75C54.6828 131.972 49.4397 139.695 41.8688 144.628C37.2504 147.638 32.0588 148.748 26.8924 150.441C21.7126 152.137 16.74 155 14.628 160.308C13.7178 162.494 13.6478 164.94 14.4316 167.174C14.9228 168.524 17.0977 167.941 16.601 166.576Z" fill="#E6E6E6"/>
<path d="M64.6197 125.688L64.6162 125.69L64.6232 125.688H64.6197Z" fill="#E6E6E6"/>
<path d="M68.5199 123.618C67.9999 122.697 67.1705 121.99 66.1788 121.623C65.1871 121.256 64.0974 121.253 63.1033 121.613C62.6091 121.793 62.1561 122.071 61.7711 122.43C61.3861 122.788 61.0769 123.22 60.8618 123.701C60.8187 123.803 60.7936 123.91 60.7584 124.014C60.7097 124.093 60.6511 124.165 60.6074 124.247C60.1412 125.176 60.0135 126.239 60.2464 127.252C60.4793 128.266 61.0582 129.166 61.8834 129.798C62.7086 130.431 63.7284 130.756 64.7673 130.717C65.8061 130.678 66.7988 130.278 67.5746 129.586C68.3898 128.849 68.9282 127.855 69.1002 126.769C69.2722 125.683 69.0674 124.571 68.5199 123.618ZM65.7023 125.529C65.7082 125.638 65.7116 125.586 65.7023 125.529V125.529ZM65.416 124.878C65.4049 124.865 65.4063 124.866 65.416 124.878V124.878ZM64.1536 125.385C64.1351 125.355 64.1367 125.359 64.1536 125.385V125.385ZM64.4528 125.639C64.4959 125.658 64.5241 125.663 64.4528 125.639V125.639ZM64.5864 125.703L64.616 125.689C64.6088 125.69 64.6015 125.688 64.5951 125.685L64.596 125.685L64.6192 125.688L64.6235 125.686L64.6101 125.683C64.6217 125.682 64.6227 125.684 64.6235 125.686C64.7573 125.625 64.667 125.654 64.5895 125.678L64.5843 125.677C64.5358 125.652 64.4838 125.635 64.43 125.627C64.4251 125.625 64.4192 125.622 64.415 125.62C64.372 125.589 64.1543 125.419 64.3562 125.597C64.3123 125.558 64.2688 125.52 64.2275 125.478C64.2032 125.453 64.1811 125.426 64.1615 125.397C64.135 125.352 64.1093 125.306 64.0844 125.26L64.0807 125.235C64.0774 125.214 64.0749 125.205 64.0722 125.193C64.0735 125.18 64.0755 125.166 64.0775 125.153C64.0926 125.112 64.1022 125.07 64.1061 125.027L64.1148 125.016C64.1471 124.971 64.1754 124.918 64.2062 124.871C64.0432 125.119 64.27 124.844 64.2869 124.809C64.2898 124.803 64.2848 124.807 64.286 124.802C64.2926 124.799 64.2906 124.801 64.2986 124.797C64.3491 124.767 64.397 124.734 64.4483 124.705C64.5094 124.671 64.7501 124.603 64.5005 124.674C64.5572 124.658 64.6116 124.638 64.6689 124.623C64.6793 124.62 64.7633 124.608 64.8086 124.6C64.8483 124.599 64.8869 124.598 64.891 124.598C64.9096 124.598 64.9283 124.6 64.947 124.601C64.9056 124.607 65.0892 124.647 65.1437 124.655C65.1515 124.661 65.1556 124.665 65.1663 124.673C65.2124 124.707 65.2684 124.737 65.3171 124.768C65.0995 124.627 65.3199 124.779 65.3615 124.821C65.3863 124.846 65.4092 124.872 65.4326 124.898C65.4541 124.923 65.4734 124.95 65.4906 124.978C65.5262 125.043 65.5642 125.109 65.6016 125.174L65.612 125.19C65.6118 125.192 65.6117 125.194 65.6117 125.196C65.6312 125.301 65.6601 125.403 65.6979 125.502C65.6997 125.511 65.7011 125.519 65.7021 125.528C65.7056 125.585 65.7104 125.642 65.7105 125.699L65.71 125.711C65.5367 125.621 65.3445 125.573 65.1492 125.571C64.9538 125.57 64.7609 125.615 64.5864 125.703Z" fill="#E6E6E6"/>
<path d="M64.6263 125.687C64.6306 125.688 64.6255 125.688 64.6255 125.688L64.6263 125.687Z" fill="#E6E6E6"/>
<path d="M64.6256 125.688L64.6221 125.688C64.6265 125.689 64.6256 125.688 64.6256 125.688Z" fill="#E6E6E6"/>
<path d="M64.6238 125.686L64.6258 125.687L64.6238 125.686Z" fill="#E6E6E6"/>
<path d="M112.613 104.687L112.609 104.688L112.616 104.687H112.613Z" fill="#E6E6E6"/>
<path d="M116.513 102.617C115.993 101.696 115.164 100.989 114.172 100.622C113.18 100.255 112.091 100.251 111.096 100.611C110.602 100.792 110.149 101.07 109.764 101.428C109.379 101.787 109.07 102.219 108.855 102.699C108.812 102.801 108.787 102.908 108.752 103.013C108.703 103.092 108.644 103.163 108.601 103.245C108.134 104.175 108.007 105.238 108.24 106.251C108.472 107.264 109.051 108.165 109.877 108.797C110.702 109.429 111.722 109.754 112.76 109.715C113.799 109.676 114.792 109.276 115.568 108.584C116.383 107.847 116.921 106.853 117.093 105.767C117.265 104.682 117.061 103.57 116.513 102.617ZM113.696 104.527C113.701 104.636 113.705 104.584 113.696 104.527V104.527ZM113.409 103.876C113.398 103.863 113.399 103.865 113.409 103.876V103.876ZM112.147 104.384C112.128 104.353 112.13 104.358 112.147 104.384V104.384ZM112.446 104.638C112.489 104.657 112.517 104.662 112.446 104.638V104.638ZM112.58 104.701L112.609 104.688C112.602 104.688 112.595 104.687 112.588 104.684L112.589 104.683L112.612 104.686L112.617 104.684L112.603 104.681C112.615 104.681 112.616 104.682 112.617 104.684C112.75 104.623 112.66 104.652 112.583 104.676L112.577 104.675C112.529 104.651 112.477 104.634 112.423 104.626C112.418 104.623 112.412 104.621 112.408 104.618C112.365 104.587 112.147 104.417 112.349 104.595C112.305 104.557 112.262 104.519 112.221 104.477C112.196 104.452 112.174 104.424 112.155 104.396C112.128 104.35 112.102 104.304 112.078 104.258L112.074 104.233C112.071 104.212 112.068 104.204 112.065 104.191C112.067 104.178 112.069 104.165 112.071 104.151C112.086 104.111 112.095 104.068 112.099 104.025L112.108 104.014C112.14 103.969 112.169 103.917 112.199 103.87C112.036 104.117 112.263 103.842 112.28 103.808C112.283 103.802 112.278 103.805 112.279 103.801C112.286 103.797 112.284 103.8 112.292 103.795C112.342 103.765 112.39 103.732 112.441 103.704C112.503 103.67 112.743 103.601 112.494 103.673C112.55 103.657 112.605 103.636 112.662 103.621C112.672 103.618 112.756 103.607 112.802 103.598C112.841 103.597 112.88 103.596 112.884 103.596C112.903 103.597 112.921 103.599 112.94 103.6C112.899 103.605 113.082 103.645 113.137 103.653C113.145 103.659 113.149 103.663 113.159 103.671C113.205 103.705 113.262 103.735 113.31 103.766C113.093 103.626 113.313 103.778 113.355 103.819C113.379 103.844 113.402 103.87 113.426 103.897C113.447 103.922 113.467 103.948 113.484 103.976C113.519 104.041 113.557 104.108 113.595 104.172L113.605 104.188C113.605 104.191 113.605 104.193 113.605 104.195C113.624 104.299 113.653 104.402 113.691 104.501C113.693 104.509 113.694 104.518 113.695 104.526C113.699 104.583 113.703 104.64 113.704 104.698L113.703 104.709C113.53 104.619 113.338 104.571 113.142 104.57C112.947 104.568 112.754 104.613 112.58 104.701Z" fill="#E6E6E6"/>
<path d="M112.619 104.686L112.615 104.687C112.62 104.687 112.619 104.686 112.619 104.686Z" fill="#E6E6E6"/>
<path d="M112.617 104.684L112.619 104.685L112.617 104.684Z" fill="#E6E6E6"/>
<path d="M112.62 104.685C112.624 104.686 112.619 104.687 112.619 104.687L112.62 104.685Z" fill="#E6E6E6"/>
<path d="M159.11 115.185L159.112 115.186L159.11 115.185Z" fill="#E6E6E6"/>
<path d="M163.006 81.6152C162.487 80.6942 161.657 79.9874 160.665 79.6203C159.674 79.2532 158.584 79.2495 157.59 79.61C157.096 79.7904 156.643 80.0681 156.258 80.4267C155.873 80.7852 155.563 81.2174 155.348 81.6975C155.305 81.7996 155.28 81.9069 155.245 82.0114C155.196 82.0903 155.138 82.1614 155.094 82.2439C154.628 83.1732 154.5 84.2361 154.733 85.2494C154.966 86.2627 155.545 87.1631 156.37 87.7954C157.195 88.4278 158.215 88.7525 159.254 88.7137C160.293 88.6748 161.285 88.2749 162.061 87.5827C162.876 86.8456 163.415 85.8515 163.587 84.7658C163.759 83.6802 163.554 82.5683 163.006 81.6152ZM160.189 83.526C160.195 83.635 160.198 83.5828 160.189 83.526V83.526ZM159.903 82.8747C159.891 82.862 159.893 82.8634 159.903 82.8747V82.8747ZM158.64 83.3824C158.622 83.352 158.623 83.3564 158.64 83.3824V83.3824ZM158.939 83.6361C158.982 83.6553 159.011 83.6604 158.939 83.6361V83.6361ZM159.073 83.6998L159.103 83.6862C159.095 83.6869 159.088 83.6855 159.082 83.6821L159.082 83.6819L159.106 83.6848L159.11 83.6828L159.097 83.6797C159.108 83.6793 159.109 83.681 159.11 83.6828C159.244 83.6215 159.154 83.6509 159.076 83.6749L159.071 83.6737C159.022 83.6491 158.97 83.6324 158.917 83.6242C158.912 83.6214 158.906 83.6194 158.902 83.6165C158.858 83.5858 158.641 83.4157 158.843 83.594C158.799 83.5552 158.755 83.5171 158.714 83.4752C158.69 83.4502 158.668 83.423 158.648 83.3941C158.622 83.3486 158.596 83.3027 158.571 83.2565L158.567 83.2315C158.564 83.2108 158.561 83.2022 158.559 83.1897C158.56 83.1769 158.562 83.1631 158.564 83.1496C158.579 83.1092 158.589 83.0669 158.593 83.0239L158.601 83.0129C158.634 82.9678 158.662 82.9152 158.693 82.8683C158.53 83.116 158.757 82.841 158.773 82.8062C158.776 82.8002 158.771 82.8035 158.773 82.7993C158.779 82.7957 158.777 82.7982 158.785 82.7935C158.836 82.7638 158.884 82.7306 158.935 82.7021C158.996 82.6683 159.237 82.5999 158.987 82.6713C159.044 82.6551 159.098 82.6346 159.155 82.6196C159.166 82.6169 159.25 82.6052 159.295 82.597C159.335 82.596 159.373 82.5948 159.378 82.5949C159.396 82.5951 159.415 82.5974 159.434 82.5982C159.392 82.6038 159.576 82.6435 159.63 82.6518C159.638 82.658 159.642 82.662 159.653 82.6698C159.699 82.7035 159.755 82.7335 159.804 82.7649C159.586 82.6243 159.806 82.7761 159.848 82.8176C159.873 82.8425 159.896 82.869 159.919 82.8952C159.941 82.92 159.96 82.9466 159.977 82.9746C160.013 83.04 160.051 83.1062 160.088 83.1705L160.099 83.187C160.098 83.1891 160.098 83.1913 160.098 83.1934C160.118 83.2977 160.147 83.4 160.184 83.4992C160.186 83.5076 160.188 83.5161 160.189 83.5246C160.192 83.5818 160.197 83.6387 160.197 83.6962L160.197 83.7078C160.023 83.6175 159.831 83.5696 159.636 83.5682C159.44 83.5668 159.247 83.6119 159.073 83.6998Z" fill="#E6E6E6"/>
<path d="M159.107 115.187L159.103 115.189L159.11 115.187H159.107Z" fill="#E6E6E6"/>
<path d="M159.112 115.187L159.109 115.188C159.113 115.188 159.112 115.187 159.112 115.187Z" fill="#E6E6E6"/>
<path d="M159.113 115.186C159.117 115.187 159.112 115.187 159.112 115.187L159.113 115.186Z" fill="#E6E6E6"/>
<path d="M210.25 139.369C209.73 138.448 208.9 137.742 207.909 137.375C206.917 137.007 205.827 137.004 204.833 137.364C204.339 137.545 203.886 137.822 203.501 138.181C203.116 138.54 202.807 138.972 202.592 139.452C202.549 139.554 202.524 139.661 202.488 139.766C202.44 139.845 202.381 139.916 202.337 139.998C201.871 140.927 201.743 141.99 201.976 143.004C202.209 144.017 202.788 144.917 203.613 145.55C204.439 146.182 205.458 146.507 206.497 146.468C207.536 146.429 208.529 146.029 209.305 145.337C210.12 144.6 210.658 143.606 210.83 142.52C211.002 141.434 210.797 140.323 210.25 139.369ZM207.432 141.28C207.438 141.389 207.442 141.337 207.432 141.28V141.28ZM207.146 140.629C207.135 140.616 207.136 140.618 207.146 140.629V140.629ZM205.884 141.137C205.865 141.106 205.867 141.111 205.884 141.137V141.137ZM206.183 141.39C206.226 141.41 206.254 141.415 206.183 141.39V141.39ZM206.316 141.454L206.346 141.44C206.339 141.441 206.331 141.44 206.325 141.436L206.326 141.436L206.349 141.439L206.353 141.437L206.34 141.434C206.352 141.434 206.353 141.435 206.353 141.437C206.487 141.376 206.397 141.405 206.319 141.429L206.314 141.428C206.266 141.403 206.214 141.387 206.16 141.379C206.155 141.376 206.149 141.374 206.145 141.371C206.102 141.34 205.884 141.17 206.086 141.348C206.042 141.309 205.999 141.271 205.957 141.229C205.933 141.204 205.911 141.177 205.891 141.148C205.865 141.103 205.839 141.057 205.814 141.011L205.811 140.986C205.807 140.965 205.805 140.956 205.802 140.944C205.803 140.931 205.805 140.917 205.807 140.904C205.823 140.863 205.832 140.821 205.836 140.778L205.845 140.767C205.877 140.722 205.905 140.669 205.936 140.623C205.773 140.87 206 140.595 206.017 140.56C206.02 140.554 206.015 140.558 206.016 140.554C206.023 140.55 206.021 140.552 206.029 140.548C206.079 140.518 206.127 140.485 206.178 140.456C206.239 140.423 206.48 140.354 206.23 140.426C206.287 140.409 206.342 140.389 206.399 140.374C206.409 140.371 206.493 140.359 206.539 140.351C206.578 140.35 206.617 140.349 206.621 140.349C206.64 140.349 206.658 140.352 206.677 140.352C206.636 140.358 206.819 140.398 206.874 140.406C206.881 140.412 206.885 140.416 206.896 140.424C206.942 140.458 206.998 140.488 207.047 140.519C206.829 140.379 207.05 140.53 207.091 140.572C207.116 140.597 207.139 140.623 207.163 140.649C207.184 140.674 207.203 140.701 207.22 140.729C207.256 140.794 207.294 140.86 207.332 140.925L207.342 140.941C207.342 140.943 207.342 140.946 207.342 140.948C207.361 141.052 207.39 141.154 207.428 141.253C207.43 141.262 207.431 141.27 207.432 141.279C207.436 141.336 207.44 141.393 207.44 141.45L207.44 141.462C207.267 141.372 207.074 141.324 206.879 141.322C206.684 141.321 206.491 141.366 206.316 141.454Z" fill="#E6E6E6"/>
<path d="M206.35 91.9355L206.346 91.9373L206.353 91.9355H206.35Z" fill="#E6E6E6"/>
<path d="M206.356 91.9353L206.352 91.9358C206.357 91.9363 206.356 91.9353 206.356 91.9353Z" fill="#E6E6E6"/>
<path d="M206.357 91.9341C206.361 91.9354 206.356 91.9356 206.356 91.9356L206.357 91.9341Z" fill="#E6E6E6"/>
<path d="M206.354 91.9333L206.356 91.9343L206.354 91.9333Z" fill="#E6E6E6"/>
<path d="M254.494 104.867C253.974 103.946 253.144 103.239 252.153 102.872C251.161 102.505 250.071 102.501 249.077 102.862C248.583 103.042 248.13 103.32 247.745 103.678C247.36 104.037 247.051 104.469 246.836 104.949C246.793 105.051 246.767 105.159 246.732 105.263C246.684 105.342 246.625 105.413 246.581 105.496C246.115 106.425 245.987 107.488 246.22 108.501C246.453 109.514 247.032 110.415 247.857 111.047C248.682 111.679 249.702 112.004 250.741 111.965C251.78 111.927 252.773 111.527 253.548 110.834C254.364 110.097 254.902 109.103 255.074 108.018C255.246 106.932 255.041 105.82 254.494 104.867ZM251.676 106.778C251.682 106.887 251.685 106.835 251.676 106.778V106.778ZM251.39 106.126C251.379 106.114 251.38 106.115 251.39 106.126V106.126ZM250.127 106.634C250.109 106.604 250.111 106.608 250.127 106.634V106.634ZM250.427 106.888C250.47 106.907 250.498 106.912 250.427 106.888V106.888ZM250.56 106.951L250.59 106.938C250.583 106.939 250.575 106.937 250.569 106.934L250.57 106.934L250.593 106.936L250.597 106.935L250.584 106.931C250.596 106.931 250.597 106.933 250.597 106.935C250.731 106.873 250.641 106.903 250.563 106.927L250.558 106.925C250.51 106.901 250.458 106.884 250.404 106.876C250.399 106.873 250.393 106.871 250.389 106.868C250.346 106.837 250.128 106.667 250.33 106.846C250.286 106.807 250.243 106.769 250.201 106.727C250.177 106.702 250.155 106.675 250.135 106.646C250.109 106.6 250.083 106.554 250.058 106.508L250.055 106.483C250.051 106.463 250.049 106.454 250.046 106.441C250.047 106.429 250.049 106.415 250.051 106.401C250.066 106.361 250.076 106.319 250.08 106.276L250.089 106.265C250.121 106.22 250.149 106.167 250.18 106.12C250.017 106.368 250.244 106.093 250.261 106.058C250.264 106.052 250.259 106.055 250.26 106.051C250.266 106.047 250.264 106.05 250.272 106.045C250.323 106.015 250.371 105.982 250.422 105.954C250.483 105.92 250.724 105.852 250.474 105.923C250.531 105.907 250.585 105.886 250.643 105.871C250.653 105.869 250.737 105.857 250.782 105.849C250.822 105.848 250.861 105.847 250.865 105.847C250.883 105.847 250.902 105.849 250.921 105.85C250.879 105.855 251.063 105.895 251.118 105.904C251.125 105.91 251.129 105.914 251.14 105.922C251.186 105.955 251.242 105.985 251.291 106.017C251.073 105.876 251.294 106.028 251.335 106.069C251.36 106.094 251.383 106.121 251.406 106.147C251.428 106.172 251.447 106.198 251.464 106.226C251.5 106.292 251.538 106.358 251.575 106.422L251.586 106.439C251.586 106.441 251.586 106.443 251.586 106.445C251.605 106.549 251.634 106.652 251.672 106.751C251.674 106.759 251.675 106.768 251.676 106.776C251.679 106.833 251.684 106.89 251.684 106.948L251.684 106.959C251.511 106.869 251.318 106.821 251.123 106.82C250.928 106.819 250.735 106.864 250.56 106.951Z" fill="#E6E6E6"/>
<path d="M250.594 106.937L250.59 106.938L250.597 106.937H250.594Z" fill="#E6E6E6"/>
<path d="M250.598 106.934L250.6 106.935L250.598 106.934Z" fill="#E6E6E6"/>
<path d="M250.6 106.935C250.604 106.937 250.599 106.937 250.599 106.937L250.6 106.935Z" fill="#E6E6E6"/>
<path d="M250.599 106.936L250.596 106.937C250.6 106.937 250.599 106.936 250.599 106.936Z" fill="#E6E6E6"/>
<path d="M238.469 141.31L203.601 143.249C203.405 143.26 203.212 143.195 203.061 143.067C202.911 142.94 202.816 142.76 202.794 142.564C202.773 142.369 202.828 142.172 202.947 142.015C203.066 141.859 203.241 141.754 203.435 141.722L239.073 135.922L238.469 141.31Z" fill="#3F3D56"/>
<path d="M282.781 218.953L295.92 196.843L305.632 201.431C305.632 201.431 288.898 222.336 288.365 222.937C288.593 223.954 288.507 225.015 288.119 225.981C287.731 226.948 287.059 227.774 286.192 228.35C285.324 228.926 284.302 229.225 283.261 229.208C282.22 229.19 281.209 228.857 280.361 228.252C279.514 227.647 278.87 226.799 278.514 225.82C278.159 224.841 278.109 223.778 278.371 222.77C278.634 221.762 279.196 220.857 279.983 220.176C280.77 219.494 281.746 219.068 282.781 218.953Z" fill="#FFB6B6"/>
<path d="M288.246 167.593L309.534 178.702C310.864 179.66 311.98 180.886 312.81 182.3C313.64 183.715 314.165 185.287 314.353 186.916C314.541 188.545 314.387 190.196 313.9 191.762C313.414 193.328 312.606 194.776 311.529 196.012L296.854 212.85L290.46 204.185L295.388 193.879L285.846 191.363L288.246 167.593Z" fill="#F97316"/>
<path d="M227.582 141.672L225.185 167.281L214.444 167.299C214.444 167.299 220.606 141.237 220.83 140.465C220.189 139.645 219.811 138.649 219.747 137.61C219.684 136.57 219.937 135.536 220.474 134.644C221.011 133.752 221.806 133.043 222.754 132.613C223.703 132.182 224.759 132.05 225.784 132.233C226.809 132.416 227.754 132.906 228.495 133.638C229.235 134.37 229.736 135.31 229.931 136.333C230.126 137.356 230.006 138.414 229.586 139.368C229.167 140.321 228.468 141.124 227.582 141.672Z" fill="#FFB6B6"/>
<path d="M248.961 194.042L224.241 189.507C213.832 188.255 209.56 181.405 211.438 174.723L217.482 153.218L226.972 158.307L226.935 169.73L240.218 167.914L248.961 194.042Z" fill="#F97316"/>
<path d="M238.842 371.022H232.045L228.812 344.798H238.844L238.842 371.022Z" fill="#FFB6B6"/>
<path d="M239.082 378.114L218.18 378.113V377.849C218.18 375.691 219.037 373.621 220.563 372.095C222.088 370.569 224.158 369.712 226.315 369.712L230.134 366.814L237.258 369.712L239.082 369.712L239.082 378.114Z" fill="#111921"/>
<path d="M286.937 371.022H293.734L296.967 344.798H286.935L286.937 371.022Z" fill="#FFB6B6"/>
<path d="M286.697 378.114L307.599 378.113V377.849C307.599 375.691 306.742 373.621 305.216 372.095C303.691 370.569 301.621 369.712 299.464 369.712L295.645 366.814L288.522 369.712L286.697 369.712L286.697 378.114Z" fill="#111921"/>
<path d="M228.513 325.528C228.613 324.031 229.411 315.756 229.411 315.756L231.323 298.207L234.693 251.687L237.696 239.459L252.563 245.252L264.627 239.468L278.965 244.052L290.13 248.24C290.13 248.24 290.15 250.033 290.236 252.198C290.35 255.033 290.551 258.509 291.029 259.412C291.827 261.009 291.626 269.581 291.626 269.581C291.626 269.581 292.42 287.02 293.419 288.932C294.418 290.845 294.618 294.827 294.317 295.625C294.016 296.423 295.316 317.367 295.316 317.367C295.316 317.367 298.653 354.43 296.559 360.018C294.466 365.607 286.555 361.946 286.555 361.946C286.555 361.946 286.938 360.454 284.644 359.752C282.349 359.049 275.362 306.496 275.362 306.496C275.362 306.496 274.062 295.721 272.867 292.632C271.672 289.544 270.573 280.867 270.573 280.867C270.573 280.867 263.193 266.507 263.097 263.313C263.097 263.313 262.132 260.325 261.219 263.614C260.306 266.903 257.615 274.782 257.615 274.782L254.991 284.458L251.904 298.914L249.906 311.085C249.906 311.085 246.914 327.239 246.436 327.937C245.958 328.635 246.436 343.392 246.436 343.392C246.436 343.392 244.123 355.961 240.853 358.155C237.584 360.349 228.923 358.19 228.923 358.19C228.923 358.19 228.412 327.024 228.513 325.528Z" fill="#111921"/>
<path d="M239.627 200.114L237.727 224.729L234.873 227.684C234.615 227.95 234.414 228.266 234.282 228.612C234.149 228.958 234.088 229.327 234.102 229.697C234.115 230.067 234.203 230.431 234.36 230.766C234.518 231.102 234.741 231.402 235.017 231.649L233.444 234.346L232.888 242.844C232.729 243.505 232.718 244.193 232.856 244.859C232.994 245.525 233.277 246.152 233.685 246.696C234.093 247.24 234.617 247.687 235.218 248.005C235.818 248.323 236.482 248.505 237.161 248.537L286.378 250.85C287.054 250.881 287.728 250.764 288.353 250.507C288.978 250.249 289.539 249.858 289.997 249.36C290.454 248.862 290.796 248.269 291 247.624C291.203 246.979 291.262 246.298 291.173 245.627L286.988 214.115V211.758L285.114 207.208L286.077 191.964L288.317 167.768L275.297 164.404L268.238 159.546L255.974 159.741L248.532 165.854L238.609 167.409L231.106 168.9L230.15 170.978L232.061 170.563L238.991 197.596L239.627 200.114Z" fill="#F97316"/>
<path d="M261.831 156.247C269.811 156.247 276.279 149.778 276.279 141.797C276.279 133.816 269.811 127.346 261.831 127.346C253.852 127.346 247.384 133.816 247.384 141.797C247.384 149.778 253.852 156.247 261.831 156.247Z" fill="#FFB6B6"/>
<path d="M258.348 155.315L268.786 154.783C270.124 154.714 271.584 154.596 272.557 153.676C273.08 153.107 273.482 152.438 273.74 151.71C274.705 149.468 275.67 147.226 276.61 144.973C277.911 141.857 279.188 138.568 278.856 135.208C278.779 133.673 278.135 132.222 277.05 131.134C276.497 130.61 275.785 130.284 275.027 130.207C274.268 130.13 273.506 130.307 272.858 130.709C272.698 129.646 272.297 128.634 271.688 127.749C271.078 126.864 270.275 126.129 269.34 125.6C267.451 124.556 265.294 124.098 263.144 124.286C260.024 124.487 257.046 125.661 254.628 127.643C253.948 128.27 253.222 128.846 252.456 129.365C252.07 129.622 251.636 129.799 251.18 129.883C250.724 129.968 250.256 129.958 249.804 129.855C249.356 129.736 248.967 129.458 248.708 129.073C248.449 128.689 248.338 128.223 248.395 127.763C247.66 128.313 247.156 129.117 246.982 130.018C246.807 130.92 246.974 131.854 247.451 132.639C246.909 132.866 246.318 132.949 245.734 132.88C245.151 132.811 244.595 132.592 244.121 132.245C243.614 132.497 243.164 132.852 242.802 133.288C242.439 133.724 242.172 134.23 242.016 134.775C241.861 135.321 241.821 135.892 241.899 136.454C241.977 137.015 242.172 137.554 242.47 138.036C242.769 138.518 243.165 138.932 243.633 139.253C244.101 139.573 244.63 139.791 245.187 139.895C245.745 139.999 246.317 139.985 246.869 139.854C247.42 139.723 247.939 139.479 248.39 139.136C249.024 140.024 248.788 141.23 248.705 142.317C248.623 143.405 248.914 144.756 249.962 145.057C251.379 145.463 252.527 143.555 254.001 143.575C254.364 143.605 254.715 143.724 255.022 143.921C255.328 144.119 255.581 144.389 255.758 144.708C256.106 145.349 256.344 146.043 256.462 146.762L258.348 155.256" fill="#111921"/>
<path d="M665.35 285.249C665.35 283.011 664.598 281.195 663.676 281.191H412.203C411.276 281.195 410.529 283.011 410.525 285.249V377.363C410.525 377.57 410.447 377.771 410.308 377.925C410.168 378.079 409.976 378.175 409.77 378.195C409.095 378.26 408.42 378.32 407.745 378.376C407.728 378.376 407.711 378.38 407.695 378.38C407.327 378.414 406.96 378.439 406.593 378.468H406.589C406.4 378.118 406.213 377.766 406.028 377.41C405.966 377.291 405.933 377.158 405.933 377.023V279.984C405.933 279.366 405.958 278.744 406 278.131C406.06 277.288 406.164 276.449 406.313 275.618C407.019 271.739 408.613 269.113 410.424 269.105H665.45C665.714 269.107 665.975 269.162 666.218 269.268C666.574 269.425 666.895 269.651 667.165 269.931C667.531 270.312 667.844 270.74 668.096 271.205C669.135 273.276 669.734 275.541 669.853 277.855C669.853 277.88 669.857 277.905 669.857 277.93C669.916 278.607 669.945 279.295 669.941 279.984L669.999 288.931L670.037 294.266L670.15 311.007L670.191 316.952L670.375 377.988C670.375 378.209 670.287 378.422 670.13 378.578C669.974 378.735 669.762 378.823 669.54 378.823H666.184C665.963 378.823 665.751 378.735 665.594 378.578C665.438 378.422 665.35 378.209 665.35 377.988V285.249Z" fill="#E6E6E6"/>
<path d="M597.016 227.242H569.919C569.536 227.242 569.169 227.395 568.898 227.667C568.627 227.938 568.475 228.306 568.476 228.689V271.503H598.463V228.689C598.463 228.499 598.426 228.311 598.353 228.135C598.281 227.96 598.174 227.8 598.04 227.666C597.905 227.531 597.746 227.425 597.57 227.352C597.394 227.279 597.206 227.242 597.016 227.242ZM583.559 251.568C582.711 251.564 581.9 251.226 581.301 250.626C580.702 250.027 580.363 249.215 580.359 248.368V243.43C580.359 242.581 580.696 241.767 581.296 241.167C581.896 240.566 582.71 240.229 583.559 240.229C584.407 240.229 585.221 240.566 585.821 241.167C586.421 241.767 586.759 242.581 586.759 243.43V248.368C586.755 249.215 586.416 250.027 585.817 250.626C585.218 251.226 584.406 251.564 583.559 251.568Z" fill="#CCCCCC"/>
<path d="M568.383 270.134V274.265C568.383 274.479 568.468 274.684 568.62 274.835C568.771 274.986 568.976 275.072 569.19 275.072H597.749C597.963 275.071 598.168 274.986 598.319 274.834C598.47 274.683 598.555 274.478 598.556 274.265V270.134H568.383Z" fill="#3F3D56"/>
<path d="M641.886 160.426H526.058C525.063 160.427 524.109 160.823 523.405 161.527C522.702 162.231 522.306 163.185 522.304 164.181V242.358C522.305 243.354 522.701 244.308 523.405 245.012C524.108 245.716 525.063 246.112 526.058 246.113H641.886C642.881 246.112 643.835 245.716 644.539 245.012C645.243 244.308 645.639 243.354 645.64 242.358V164.181C645.638 163.185 645.242 162.231 644.538 161.527C643.835 160.823 642.881 160.427 641.886 160.426Z" fill="#E6E6E6"/>
<path d="M640.919 163.138H527.026C526.493 163.139 525.982 163.351 525.606 163.729C525.23 164.106 525.018 164.617 525.018 165.15V241.39C525.019 241.922 525.231 242.433 525.607 242.809C525.983 243.185 526.494 243.397 527.026 243.398H640.919C641.451 243.397 641.961 243.185 642.337 242.809C642.714 242.433 642.926 241.922 642.927 241.39V165.15C642.926 164.617 642.715 164.106 642.339 163.729C641.962 163.351 641.452 163.139 640.919 163.138Z" fill="white"/>
<path d="M618.735 276.51H550.974C550.789 276.51 550.606 276.468 550.438 276.388C550.271 276.309 550.123 276.192 550.006 276.048C549.889 275.904 549.806 275.736 549.763 275.556C549.719 275.375 549.716 275.187 549.755 275.006L550.806 270.011C550.866 269.732 551.019 269.481 551.241 269.301C551.463 269.121 551.74 269.022 552.026 269.021H617.683C617.969 269.022 618.246 269.121 618.468 269.301C618.689 269.481 618.843 269.732 618.903 270.011L619.954 275.006C619.992 275.187 619.99 275.375 619.946 275.556C619.903 275.736 619.819 275.904 619.702 276.048C619.586 276.192 619.438 276.309 619.271 276.388C619.103 276.468 618.92 276.51 618.735 276.51Z" fill="#CCCCCC"/>
<path d="M554.227 269.921H552.873C552.67 269.921 552.507 270.085 552.507 270.287V270.807C552.507 271.009 552.67 271.173 552.873 271.173H554.227C554.43 271.173 554.594 271.009 554.594 270.807V270.287C554.594 270.085 554.43 269.921 554.227 269.921Z" fill="#E6E6E6"/>
<path d="M558.402 269.921H557.047C556.845 269.921 556.681 270.085 556.681 270.287V270.807C556.681 271.009 556.845 271.173 557.047 271.173H558.402C558.604 271.173 558.768 271.009 558.768 270.807V270.287C558.768 270.085 558.604 269.921 558.402 269.921Z" fill="#E6E6E6"/>
<path d="M562.575 269.921H561.221C561.018 269.921 560.854 270.085 560.854 270.287V270.807C560.854 271.009 561.018 271.173 561.221 271.173H562.575C562.778 271.173 562.941 271.009 562.941 270.807V270.287C562.941 270.085 562.778 269.921 562.575 269.921Z" fill="#E6E6E6"/>
<path d="M566.749 269.921H565.394C565.192 269.921 565.028 270.085 565.028 270.287V270.807C565.028 271.009 565.192 271.173 565.394 271.173H566.749C566.951 271.173 567.115 271.009 567.115 270.807V270.287C567.115 270.085 566.951 269.921 566.749 269.921Z" fill="#E6E6E6"/>
<path d="M570.923 269.921H569.568C569.366 269.921 569.202 270.085 569.202 270.287V270.807C569.202 271.009 569.366 271.173 569.568 271.173H570.923C571.125 271.173 571.289 271.009 571.289 270.807V270.287C571.289 270.085 571.125 269.921 570.923 269.921Z" fill="#E6E6E6"/>
<path d="M575.097 269.921H573.742C573.54 269.921 573.376 270.085 573.376 270.287V270.807C573.376 271.009 573.54 271.173 573.742 271.173H575.097C575.299 271.173 575.463 271.009 575.463 270.807V270.287C575.463 270.085 575.299 269.921 575.097 269.921Z" fill="#E6E6E6"/>
<path d="M579.271 269.921H577.916C577.714 269.921 577.55 270.085 577.55 270.287V270.807C577.55 271.009 577.714 271.173 577.916 271.173H579.271C579.473 271.173 579.637 271.009 579.637 270.807V270.287C579.637 270.085 579.473 269.921 579.271 269.921Z" fill="#E6E6E6"/>
<path d="M583.445 269.921H582.09C581.888 269.921 581.724 270.085 581.724 270.287V270.807C581.724 271.009 581.888 271.173 582.09 271.173H583.445C583.647 271.173 583.811 271.009 583.811 270.807V270.287C583.811 270.085 583.647 269.921 583.445 269.921Z" fill="#E6E6E6"/>
<path d="M587.619 269.921H586.264C586.062 269.921 585.898 270.085 585.898 270.287V270.807C585.898 271.009 586.062 271.173 586.264 271.173H587.619C587.821 271.173 587.985 271.009 587.985 270.807V270.287C587.985 270.085 587.821 269.921 587.619 269.921Z" fill="#E6E6E6"/>
<path d="M591.793 269.921H590.438C590.236 269.921 590.072 270.085 590.072 270.287V270.807C590.072 271.009 590.236 271.173 590.438 271.173H591.793C591.995 271.173 592.159 271.009 592.159 270.807V270.287C592.159 270.085 591.995 269.921 591.793 269.921Z" fill="#E6E6E6"/>
<path d="M595.966 269.921H594.612C594.409 269.921 594.246 270.085 594.246 270.287V270.807C594.246 271.009 594.409 271.173 594.612 271.173H595.966C596.169 271.173 596.333 271.009 596.333 270.807V270.287C596.333 270.085 596.169 269.921 595.966 269.921Z" fill="#E6E6E6"/>
<path d="M600.14 269.921H598.786C598.583 269.921 598.419 270.085 598.419 270.287V270.807C598.419 271.009 598.583 271.173 598.786 271.173H600.14C600.342 271.173 600.506 271.009 600.506 270.807V270.287C600.506 270.085 600.342 269.921 600.14 269.921Z" fill="#E6E6E6"/>
<path d="M604.314 269.921H602.96C602.757 269.921 602.594 270.085 602.594 270.287V270.807C602.594 271.009 602.757 271.173 602.96 271.173H604.314C604.517 271.173 604.68 271.009 604.68 270.807V270.287C604.68 270.085 604.517 269.921 604.314 269.921Z" fill="#E6E6E6"/>
<path d="M608.488 269.921H607.133C606.931 269.921 606.767 270.085 606.767 270.287V270.807C606.767 271.009 606.931 271.173 607.133 271.173H608.488C608.69 271.173 608.854 271.009 608.854 270.807V270.287C608.854 270.085 608.69 269.921 608.488 269.921Z" fill="#E6E6E6"/>
<path d="M612.662 269.921H611.307C611.105 269.921 610.941 270.085 610.941 270.287V270.807C610.941 271.009 611.105 271.173 611.307 271.173H612.662C612.864 271.173 613.028 271.009 613.028 270.807V270.287C613.028 270.085 612.864 269.921 612.662 269.921Z" fill="#E6E6E6"/>
<path d="M616.836 269.921H615.481C615.279 269.921 615.115 270.085 615.115 270.287V270.807C615.115 271.009 615.279 271.173 615.481 271.173H616.836C617.038 271.173 617.202 271.009 617.202 270.807V270.287C617.202 270.085 617.038 269.921 616.836 269.921Z" fill="#E6E6E6"/>
<path d="M554.178 272.008H552.823C552.621 272.008 552.457 272.172 552.457 272.374V272.894C552.457 273.097 552.621 273.26 552.823 273.26H554.178C554.38 273.26 554.544 273.097 554.544 272.894V272.374C554.544 272.172 554.38 272.008 554.178 272.008Z" fill="#E6E6E6"/>
<path d="M558.352 272.008H556.997C556.795 272.008 556.631 272.172 556.631 272.374V272.894C556.631 273.097 556.795 273.26 556.997 273.26H558.352C558.554 273.26 558.718 273.097 558.718 272.894V272.374C558.718 272.172 558.554 272.008 558.352 272.008Z" fill="#E6E6E6"/>
<path d="M562.526 272.008H561.171C560.969 272.008 560.805 272.172 560.805 272.374V272.894C560.805 273.097 560.969 273.26 561.171 273.26H562.526C562.728 273.26 562.892 273.097 562.892 272.894V272.374C562.892 272.172 562.728 272.008 562.526 272.008Z" fill="#E6E6E6"/>
<path d="M566.7 272.008H565.345C565.143 272.008 564.979 272.172 564.979 272.374V272.894C564.979 273.097 565.143 273.26 565.345 273.26H566.7C566.902 273.26 567.066 273.097 567.066 272.894V272.374C567.066 272.172 566.902 272.008 566.7 272.008Z" fill="#E6E6E6"/>
<path d="M570.874 272.008H569.519C569.317 272.008 569.153 272.172 569.153 272.374V272.894C569.153 273.097 569.317 273.26 569.519 273.26H570.874C571.076 273.26 571.24 273.097 571.24 272.894V272.374C571.24 272.172 571.076 272.008 570.874 272.008Z" fill="#E6E6E6"/>
<path d="M575.048 272.008H573.693C573.491 272.008 573.327 272.172 573.327 272.374V272.894C573.327 273.097 573.491 273.26 573.693 273.26H575.048C575.25 273.26 575.414 273.097 575.414 272.894V272.374C575.414 272.172 575.25 272.008 575.048 272.008Z" fill="#E6E6E6"/>
<path d="M579.222 272.008H577.867C577.665 272.008 577.501 272.172 577.501 272.374V272.894C577.501 273.097 577.665 273.26 577.867 273.26H579.222C579.424 273.26 579.588 273.097 579.588 272.894V272.374C579.588 272.172 579.424 272.008 579.222 272.008Z" fill="#E6E6E6"/>
<path d="M583.395 272.008H582.041C581.838 272.008 581.675 272.172 581.675 272.374V272.894C581.675 273.097 581.838 273.26 582.041 273.26H583.395C583.598 273.26 583.762 273.097 583.762 272.894V272.374C583.762 272.172 583.598 272.008 583.395 272.008Z" fill="#E6E6E6"/>
<path d="M587.569 272.008H586.215C586.013 272.008 585.849 272.172 585.849 272.374V272.894C585.849 273.097 586.013 273.26 586.215 273.26H587.569C587.772 273.26 587.936 273.097 587.936 272.894V272.374C587.936 272.172 587.772 272.008 587.569 272.008Z" fill="#E6E6E6"/>
<path d="M591.743 272.008H590.389C590.186 272.008 590.022 272.172 590.022 272.374V272.894C590.022 273.097 590.186 273.26 590.389 273.26H591.743C591.946 273.26 592.109 273.097 592.109 272.894V272.374C592.109 272.172 591.946 272.008 591.743 272.008Z" fill="#E6E6E6"/>
<path d="M595.917 272.008H594.562C594.36 272.008 594.196 272.172 594.196 272.374V272.894C594.196 273.097 594.36 273.26 594.562 273.26H595.917C596.119 273.26 596.283 273.097 596.283 272.894V272.374C596.283 272.172 596.119 272.008 595.917 272.008Z" fill="#E6E6E6"/>
<path d="M600.091 272.008H598.736C598.534 272.008 598.37 272.172 598.37 272.374V272.894C598.37 273.097 598.534 273.26 598.736 273.26H600.091C600.293 273.26 600.457 273.097 600.457 272.894V272.374C600.457 272.172 600.293 272.008 600.091 272.008Z" fill="#E6E6E6"/>
<path d="M604.265 272.008H602.91C602.708 272.008 602.544 272.172 602.544 272.374V272.894C602.544 273.097 602.708 273.26 602.91 273.26H604.265C604.467 273.26 604.631 273.097 604.631 272.894V272.374C604.631 272.172 604.467 272.008 604.265 272.008Z" fill="#E6E6E6"/>
<path d="M608.439 272.008H607.084C606.882 272.008 606.718 272.172 606.718 272.374V272.894C606.718 273.097 606.882 273.26 607.084 273.26H608.439C608.641 273.26 608.805 273.097 608.805 272.894V272.374C608.805 272.172 608.641 272.008 608.439 272.008Z" fill="#E6E6E6"/>
<path d="M612.613 272.008H611.258C611.056 272.008 610.892 272.172 610.892 272.374V272.894C610.892 273.097 611.056 273.26 611.258 273.26H612.613C612.815 273.26 612.979 273.097 612.979 272.894V272.374C612.979 272.172 612.815 272.008 612.613 272.008Z" fill="#E6E6E6"/>
<path d="M616.787 272.008H615.432C615.23 272.008 615.066 272.172 615.066 272.374V272.894C615.066 273.097 615.23 273.26 615.432 273.26H616.787C616.989 273.26 617.153 273.097 617.153 272.894V272.374C617.153 272.172 616.989 272.008 616.787 272.008Z" fill="#E6E6E6"/>
<path d="M588.822 274.513H572.858C572.656 274.513 572.492 274.677 572.492 274.879V275.399C572.492 275.601 572.656 275.765 572.858 275.765H588.822C589.024 275.765 589.188 275.601 589.188 275.399V274.879C589.188 274.677 589.024 274.513 588.822 274.513Z" fill="#E6E6E6"/>
<path d="M635.194 173.642H528.624C528.514 173.639 528.408 173.594 528.331 173.515C528.253 173.435 528.21 173.329 528.21 173.218C528.21 173.107 528.253 173.001 528.331 172.922C528.408 172.842 528.514 172.797 528.624 172.794H635.194C635.305 172.797 635.41 172.842 635.487 172.922C635.565 173.001 635.608 173.107 635.608 173.218C635.608 173.329 635.565 173.435 635.487 173.515C635.41 173.594 635.305 173.639 635.194 173.642Z" fill="#CACACA"/>
<path d="M535.879 170.63C537.25 170.63 538.362 169.493 538.362 168.09C538.362 166.688 537.25 165.551 535.879 165.551C534.507 165.551 533.395 166.688 533.395 168.09C533.395 169.493 534.507 170.63 535.879 170.63Z" fill="#CCCCCC"/>
<path d="M544.459 170.63C545.83 170.63 546.942 169.493 546.942 168.09C546.942 166.688 545.83 165.551 544.459 165.551C543.087 165.551 541.975 166.688 541.975 168.09C541.975 169.493 543.087 170.63 544.459 170.63Z" fill="#CCCCCC"/>
<path d="M553.038 170.63C554.41 170.63 555.522 169.493 555.522 168.09C555.522 166.688 554.41 165.551 553.038 165.551C551.667 165.551 550.555 166.688 550.555 168.09C550.555 169.493 551.667 170.63 553.038 170.63Z" fill="#CCCCCC"/>
<path d="M630.028 166.18H623.933C623.812 166.183 623.697 166.232 623.613 166.319C623.528 166.405 623.481 166.521 623.481 166.642C623.481 166.763 623.528 166.879 623.613 166.965C623.697 167.051 623.812 167.101 623.933 167.103H630.028C630.149 167.101 630.264 167.051 630.348 166.965C630.433 166.879 630.48 166.763 630.48 166.642C630.48 166.521 630.433 166.405 630.348 166.319C630.264 166.232 630.149 166.183 630.028 166.18Z" fill="#CCCCCC"/>
<path d="M630.028 167.913H623.933C623.812 167.915 623.697 167.965 623.613 168.051C623.528 168.138 623.481 168.254 623.481 168.374C623.481 168.495 623.528 168.611 623.613 168.698C623.697 168.784 623.812 168.834 623.933 168.836H630.028C630.149 168.834 630.264 168.784 630.348 168.698C630.433 168.611 630.48 168.495 630.48 168.374C630.48 168.254 630.433 168.138 630.348 168.051C630.264 167.965 630.149 167.915 630.028 167.913Z" fill="#CCCCCC"/>
<path d="M630.028 169.643H623.933C623.812 169.646 623.697 169.695 623.613 169.782C623.528 169.868 623.481 169.984 623.481 170.105C623.481 170.226 623.528 170.342 623.613 170.428C623.697 170.514 623.812 170.564 623.933 170.566H630.028C630.149 170.564 630.264 170.514 630.348 170.428C630.433 170.342 630.48 170.226 630.48 170.105C630.48 169.984 630.433 169.868 630.348 169.782C630.264 169.695 630.149 169.646 630.028 169.643Z" fill="#CCCCCC"/>
<path d="M590.513 196.736H577.197C576.197 196.736 575.386 197.547 575.386 198.548C575.386 199.548 576.197 200.359 577.197 200.359H590.513C591.514 200.359 592.324 199.548 592.324 198.548C592.324 197.547 591.514 196.736 590.513 196.736Z" fill="#F97316"/>
<path d="M599.116 203.982H568.595C567.595 203.982 566.784 204.793 566.784 205.793C566.784 206.794 567.595 207.605 568.595 207.605H599.116C600.116 207.605 600.927 206.794 600.927 205.793C600.927 204.793 600.116 203.982 599.116 203.982Z" fill="#E6E6E6"/>
<path d="M599.116 211.228H568.595C567.595 211.228 566.784 212.039 566.784 213.039C566.784 214.039 567.595 214.85 568.595 214.85H599.116C600.116 214.85 600.927 214.039 600.927 213.039C600.927 212.039 600.116 211.228 599.116 211.228Z" fill="#E6E6E6"/>
<path d="M393.489 324.109L387.351 321.172L395.783 295.507L404.843 299.841L393.489 324.109Z" fill="#FFB6B6"/>
<path d="M434.645 319.971C434.199 320.251 433.752 320.526 433.302 320.801C432.404 321.351 431.498 321.893 430.591 322.425C430.136 322.691 429.676 322.957 429.221 323.219V323.232L429.194 323.237L429.185 323.241L428.49 323.413L427.494 320.779L427.034 319.565L426.384 317.847L425.194 314.703L418.926 298.151L428.671 295.747L429.036 297.24H429.04L429.221 297.98L432.625 311.79L433.32 314.613L433.342 314.699L433.761 316.386L434.122 317.847L434.523 319.48L434.645 319.971Z" fill="#FFB6B6"/>
<path d="M492.774 261.844C492.156 262.836 491.525 263.824 490.889 264.802C489.708 266.624 488.495 268.419 487.25 270.187C487.25 270.192 487.246 270.192 487.241 270.196C486.515 270.869 485.713 271.455 484.852 271.942C484.816 271.969 484.775 271.987 484.739 272.009C484.104 272.36 483.429 272.632 482.728 272.817C482.475 272.88 482.218 272.943 481.966 273.006C481.055 273.223 480.153 273.408 479.256 273.57C477.659 273.854 476.081 274.057 474.512 274.183C474.386 274.197 474.259 274.206 474.133 274.215C467.681 274.688 461.399 273.926 454.843 272.677C451.605 272.064 448.3 271.328 444.878 270.566C443.759 270.314 442.637 270.066 441.5 269.818C441.415 269.8 441.324 269.777 441.234 269.759C439.611 269.403 437.961 269.051 436.27 268.704C434.141 268.266 431.945 267.842 429.664 267.441L429.826 270.656C429.961 273.13 430.475 275.568 431.35 277.886C432.324 280.737 433.095 282.992 431.467 287.687L430.683 289.96C431.089 291.089 431.229 292.296 431.091 293.488C430.952 294.68 430.539 295.824 429.885 296.829L429.727 297.068L436.27 313.625L436.693 314.698H433.343L429.222 314.703H422.237L412.159 294.479L411.677 293.514V293.464L412.718 254.6C412.732 254.258 412.759 253.91 412.804 253.567C412.987 252.009 413.48 250.503 414.252 249.137C415.023 247.771 416.06 246.573 417.299 245.612C418.488 244.683 419.849 244 421.303 243.602C422.758 243.204 424.277 243.099 425.772 243.293L429.222 243.74L436.27 244.651L441.234 245.296L441.333 245.309L455.975 247.204L457.025 242.919L457.219 242.847L463.383 240.587L484.703 232.771L484.757 232.753L486.159 232.239L486.326 232.51C486.376 232.591 486.425 232.672 486.47 232.753C487.856 235.239 488.985 237.859 489.839 240.574C491.274 245.009 492.456 249.521 493.378 254.091C493.419 254.289 493.455 254.47 493.487 254.632L493.5 254.682C493.514 254.758 493.523 254.808 493.527 254.821C493.95 257.186 493.689 259.622 492.774 261.844Z" fill="#111921"/>
<path d="M493.674 247.521C493.606 247.232 493.521 246.939 493.43 246.655C492.715 244.503 491.881 242.392 490.932 240.332C489.868 237.987 488.592 235.475 487.072 232.755C486.337 231.438 485.547 230.068 484.701 228.646C484.277 227.934 483.836 227.207 483.379 226.468C483.362 226.434 483.342 226.401 483.321 226.369L483.19 226.152L462.096 228.975L454.241 230.026L453.772 233.941L453.659 234.911C453.655 234.911 453.655 234.911 453.659 234.915L453.344 237.558V237.563L452.924 241.054L452.888 241.049L441.232 239.538L429.22 237.982L422.767 237.148C421.272 236.953 419.752 237.058 418.298 237.456C416.843 237.854 415.482 238.537 414.294 239.466C413.055 240.427 412.019 241.626 411.247 242.992C410.475 244.358 409.983 245.864 409.799 247.422C409.758 247.738 409.731 248.062 409.717 248.383L403.63 262.811C399.987 271.439 397.668 280.568 396.749 289.89L392.285 304.164L392.921 304.223L402.381 305.102L404.879 305.337L410.38 297.304C411.007 296.389 411.602 295.446 412.157 294.481C413.07 292.905 413.882 291.272 414.587 289.592L426.487 261.268C427.407 261.426 428.318 261.576 429.22 261.719C433.391 262.396 437.395 262.947 441.232 263.374C453.709 264.768 464.513 264.876 474.131 263.695C476.832 263.365 479.443 262.932 481.964 262.396C482.888 262.202 483.8 261.993 484.701 261.769C484.913 261.719 485.12 261.67 485.327 261.615C487.191 261.135 488.904 260.194 490.31 258.88C491.716 257.566 492.771 255.92 493.376 254.093C494.099 251.975 494.203 249.695 493.674 247.521Z" fill="#111921"/>
<path d="M395.451 319.918L388.809 316.734L387.767 316.233L386.103 320.319L374.487 322.877C373.913 323.003 373.394 323.309 373.006 323.751C372.618 324.193 372.382 324.747 372.331 325.333C372.281 325.919 372.419 326.506 372.726 327.008C373.033 327.509 373.492 327.9 374.036 328.122L385.386 332.754L388.989 329.511L388.105 333.864L392.38 335.609L397.065 320.694L395.451 319.918Z" fill="#111921"/>
<path d="M436.269 313.625L436.694 314.698H436.269V313.625Z" fill="#111921"/>
<path d="M433.956 314.927L426.997 317.339L425.904 317.717L427.597 321.791L421.142 331.783C420.822 332.277 420.669 332.86 420.704 333.447C420.739 334.034 420.962 334.594 421.338 335.046C421.714 335.498 422.225 335.817 422.796 335.958C423.367 336.099 423.968 336.053 424.511 335.828L435.834 331.131L436.113 326.292L438.547 330.006L442.812 328.238L435.649 314.343L433.956 314.927Z" fill="#111921"/>
<path d="M391.715 165.699C392.045 166.342 392.512 166.905 393.083 167.348C393.654 167.791 394.315 168.103 395.02 168.263C395.725 168.423 396.456 168.426 397.162 168.273C397.868 168.119 398.532 167.813 399.107 167.375L413.742 177.092L413.77 167.962L399.868 160.134C399.069 159.217 397.96 158.625 396.754 158.47C395.547 158.315 394.325 158.609 393.32 159.295C392.315 159.981 391.597 161.011 391.301 162.192C391.005 163.372 391.152 164.62 391.715 165.699Z" fill="#FFB6B6"/>
<path d="M402.648 169.919L409.476 162.149L437.278 178.658L474.132 175.282C475.954 175.115 477.79 175.351 479.51 175.974C481.23 176.597 482.792 177.591 484.085 178.885C485.378 180.18 486.37 181.743 486.991 183.464C487.612 185.185 487.846 187.022 487.678 188.844C487.37 192.134 485.769 195.168 483.227 197.279C480.686 199.391 477.41 200.408 474.12 200.107L432.613 196.264L402.648 169.919Z" fill="#CCCCCC"/>
<path d="M488.186 170.039L488.122 169.958C482.937 169.447 477.716 170.45 473.09 172.848C468.464 175.245 464.633 178.933 462.061 183.464L458.934 188.975C448.817 201.346 456.168 209.877 456.609 211.146L453.097 227.34L453.884 232.76L454.277 234.37L494.362 255.32C496.644 244.353 494.437 235.007 486.123 227.867L494.168 202.832C495.951 197.296 496.338 191.405 495.295 185.684C494.251 179.962 491.809 174.588 488.186 170.039Z" fill="#CCCCCC"/>
<path d="M456.314 291.666H443.456C442.749 291.665 442.065 291.409 441.532 290.945C440.998 290.481 440.649 289.84 440.55 289.14C439.756 283.297 439.756 277.373 440.55 271.529C440.648 270.837 440.989 270.203 441.513 269.74C442.037 269.277 442.708 269.016 443.407 269.004C447.452 267.19 451.809 267.191 456.358 269.004C456.782 269.009 457.199 269.108 457.581 269.292C457.962 269.476 458.299 269.741 458.567 270.069C458.847 270.411 459.047 270.81 459.153 271.239C459.259 271.667 459.268 272.114 459.18 272.546C458.147 277.687 458.147 282.982 459.18 288.123C459.268 288.556 459.259 289.002 459.153 289.431C459.047 289.859 458.847 290.258 458.567 290.6C458.294 290.934 457.95 291.203 457.561 291.387C457.171 291.571 456.745 291.666 456.314 291.666Z" fill="#F97316"/>
<path d="M454.967 275.718H444.145C444.056 275.719 443.967 275.702 443.884 275.668C443.802 275.635 443.726 275.585 443.663 275.522C443.599 275.459 443.549 275.384 443.515 275.302C443.48 275.219 443.463 275.131 443.463 275.042C443.463 274.952 443.48 274.864 443.515 274.781C443.549 274.699 443.599 274.624 443.663 274.561C443.726 274.498 443.802 274.448 443.884 274.415C443.967 274.381 444.056 274.364 444.145 274.365H454.967C455.056 274.364 455.145 274.381 455.228 274.415C455.31 274.448 455.386 274.498 455.449 274.561C455.513 274.624 455.563 274.699 455.597 274.781C455.632 274.864 455.649 274.952 455.649 275.042C455.649 275.131 455.632 275.219 455.597 275.302C455.563 275.384 455.513 275.459 455.449 275.522C455.386 275.585 455.31 275.635 455.228 275.668C455.145 275.702 455.056 275.719 454.967 275.718Z" fill="white"/>
<path d="M454.967 281.13H444.145C444.056 281.131 443.967 281.114 443.884 281.081C443.802 281.047 443.726 280.997 443.663 280.934C443.599 280.871 443.549 280.797 443.515 280.714C443.48 280.632 443.463 280.543 443.463 280.454C443.463 280.364 443.48 280.276 443.515 280.193C443.549 280.111 443.599 280.036 443.663 279.973C443.726 279.91 443.802 279.861 443.884 279.827C443.967 279.793 444.056 279.776 444.145 279.777H454.967C455.056 279.776 455.145 279.793 455.228 279.827C455.31 279.861 455.386 279.91 455.449 279.973C455.513 280.036 455.563 280.111 455.597 280.193C455.632 280.276 455.649 280.364 455.649 280.454C455.649 280.543 455.632 280.632 455.597 280.714C455.563 280.797 455.513 280.871 455.449 280.934C455.386 280.997 455.31 281.047 455.228 281.081C455.145 281.114 455.056 281.131 454.967 281.13Z" fill="white"/>
<path d="M454.967 286.542H444.145C444.056 286.543 443.967 286.526 443.884 286.493C443.801 286.459 443.726 286.409 443.663 286.347C443.599 286.284 443.549 286.209 443.514 286.126C443.48 286.044 443.462 285.955 443.462 285.866C443.462 285.777 443.48 285.688 443.514 285.605C443.549 285.523 443.599 285.448 443.663 285.385C443.726 285.322 443.801 285.273 443.884 285.239C443.967 285.205 444.056 285.189 444.145 285.189H454.967C455.056 285.189 455.145 285.205 455.228 285.239C455.311 285.273 455.386 285.322 455.449 285.385C455.513 285.448 455.563 285.523 455.598 285.605C455.632 285.688 455.65 285.777 455.65 285.866C455.65 285.955 455.632 286.044 455.598 286.126C455.563 286.209 455.513 286.284 455.449 286.347C455.386 286.409 455.311 286.459 455.228 286.493C455.145 286.526 455.056 286.543 454.967 286.542Z" fill="white"/>
<path d="M394.072 170.157H381.214C380.507 170.156 379.824 169.9 379.29 169.436C378.756 168.972 378.408 168.331 378.308 167.631C377.514 161.788 377.514 155.864 378.308 150.02C378.406 149.328 378.748 148.694 379.272 148.231C379.795 147.768 380.467 147.507 381.165 147.495C385.211 145.681 389.567 145.681 394.116 147.495C394.54 147.5 394.957 147.599 395.339 147.783C395.721 147.967 396.058 148.232 396.326 148.56C396.605 148.902 396.805 149.301 396.912 149.729C397.018 150.158 397.027 150.604 396.939 151.037C395.906 156.178 395.906 161.473 396.939 166.614C397.027 167.047 397.018 167.493 396.912 167.922C396.805 168.35 396.605 168.749 396.326 169.091C396.053 169.425 395.709 169.693 395.319 169.878C394.929 170.062 394.503 170.157 394.072 170.157Z" fill="#F97316"/>
<path d="M392.726 154.209H381.904C381.814 154.21 381.726 154.193 381.643 154.159C381.56 154.126 381.485 154.076 381.421 154.013C381.358 153.95 381.308 153.875 381.273 153.793C381.239 153.71 381.221 153.622 381.221 153.532C381.221 153.443 381.239 153.355 381.273 153.272C381.308 153.19 381.358 153.115 381.421 153.052C381.485 152.989 381.56 152.939 381.643 152.906C381.726 152.872 381.814 152.855 381.904 152.856H392.726C392.815 152.855 392.904 152.872 392.986 152.906C393.069 152.939 393.144 152.989 393.208 153.052C393.271 153.115 393.322 153.19 393.356 153.272C393.39 153.355 393.408 153.443 393.408 153.532C393.408 153.622 393.39 153.71 393.356 153.793C393.322 153.875 393.271 153.95 393.208 154.013C393.144 154.076 393.069 154.126 392.986 154.159C392.904 154.193 392.815 154.21 392.726 154.209Z" fill="white"/>
<path d="M392.726 159.621H381.904C381.814 159.622 381.726 159.605 381.643 159.571C381.56 159.538 381.485 159.488 381.421 159.425C381.358 159.362 381.308 159.287 381.273 159.205C381.239 159.123 381.221 159.034 381.221 158.945C381.221 158.855 381.239 158.767 381.273 158.684C381.308 158.602 381.358 158.527 381.421 158.464C381.485 158.401 381.56 158.352 381.643 158.318C381.726 158.284 381.814 158.267 381.904 158.268H392.726C392.815 158.267 392.904 158.284 392.986 158.318C393.069 158.352 393.144 158.401 393.208 158.464C393.271 158.527 393.322 158.602 393.356 158.684C393.39 158.767 393.408 158.855 393.408 158.945C393.408 159.034 393.39 159.123 393.356 159.205C393.322 159.287 393.271 159.362 393.208 159.425C393.144 159.488 393.069 159.538 392.986 159.571C392.904 159.605 392.815 159.622 392.726 159.621Z" fill="white"/>
<path d="M392.726 165.033H381.904C381.814 165.034 381.726 165.017 381.643 164.984C381.56 164.95 381.485 164.901 381.421 164.838C381.358 164.775 381.307 164.7 381.273 164.617C381.239 164.535 381.221 164.446 381.221 164.357C381.221 164.268 381.239 164.179 381.273 164.097C381.307 164.014 381.358 163.939 381.421 163.876C381.485 163.813 381.56 163.764 381.643 163.73C381.726 163.697 381.814 163.68 381.904 163.68H392.726C392.815 163.68 392.904 163.697 392.987 163.73C393.069 163.764 393.145 163.813 393.208 163.876C393.272 163.939 393.322 164.014 393.356 164.097C393.391 164.179 393.409 164.268 393.409 164.357C393.409 164.446 393.391 164.535 393.356 164.617C393.322 164.7 393.272 164.775 393.208 164.838C393.145 164.901 393.069 164.95 392.987 164.984C392.904 165.017 392.815 165.034 392.726 165.033Z" fill="white"/>
<path d="M168.354 203.159H155.496C154.789 203.158 154.106 202.903 153.572 202.439C153.038 201.975 152.689 201.334 152.59 200.633C151.796 194.79 151.796 188.866 152.59 183.023C152.688 182.331 153.03 181.696 153.553 181.233C154.077 180.771 154.748 180.51 155.447 180.497C159.492 178.684 163.849 178.684 168.398 180.497C168.822 180.503 169.239 180.601 169.621 180.785C170.002 180.969 170.339 181.235 170.607 181.563C170.887 181.904 171.087 182.304 171.193 182.732C171.299 183.16 171.309 183.607 171.22 184.039C170.188 189.18 170.188 194.476 171.22 199.617C171.309 200.049 171.299 200.496 171.193 200.924C171.087 201.352 170.887 201.752 170.607 202.093C170.335 202.427 169.991 202.696 169.601 202.88C169.211 203.065 168.785 203.16 168.354 203.159Z" fill="#F97316"/>
<path d="M167.007 187.211H156.185C156.096 187.212 156.007 187.195 155.925 187.162C155.842 187.128 155.767 187.078 155.703 187.015C155.64 186.953 155.589 186.878 155.555 186.795C155.521 186.713 155.503 186.624 155.503 186.535C155.503 186.446 155.521 186.357 155.555 186.275C155.589 186.192 155.64 186.117 155.703 186.054C155.767 185.992 155.842 185.942 155.925 185.908C156.007 185.875 156.096 185.858 156.185 185.858H167.007C167.097 185.858 167.185 185.875 167.268 185.908C167.351 185.942 167.426 185.992 167.489 186.054C167.553 186.117 167.603 186.192 167.638 186.275C167.672 186.357 167.69 186.446 167.69 186.535C167.69 186.624 167.672 186.713 167.638 186.795C167.603 186.878 167.553 186.953 167.489 187.015C167.426 187.078 167.351 187.128 167.268 187.162C167.185 187.195 167.097 187.212 167.007 187.211Z" fill="white"/>
<path d="M167.007 192.624H156.185C156.096 192.624 156.007 192.608 155.925 192.574C155.842 192.54 155.767 192.491 155.703 192.428C155.64 192.365 155.589 192.29 155.555 192.207C155.521 192.125 155.503 192.037 155.503 191.947C155.503 191.858 155.521 191.769 155.555 191.687C155.589 191.604 155.64 191.53 155.703 191.467C155.767 191.404 155.842 191.354 155.925 191.32C156.007 191.287 156.096 191.27 156.185 191.271H167.007C167.097 191.27 167.185 191.287 167.268 191.32C167.351 191.354 167.426 191.404 167.489 191.467C167.553 191.53 167.603 191.604 167.638 191.687C167.672 191.769 167.69 191.858 167.69 191.947C167.69 192.037 167.672 192.125 167.638 192.207C167.603 192.29 167.553 192.365 167.489 192.428C167.426 192.491 167.351 192.54 167.268 192.574C167.185 192.608 167.097 192.624 167.007 192.624Z" fill="white"/>
<path d="M167.007 198.036H156.185C156.096 198.037 156.007 198.02 155.925 197.986C155.842 197.953 155.767 197.903 155.703 197.84C155.64 197.777 155.589 197.702 155.555 197.62C155.52 197.537 155.503 197.449 155.503 197.359C155.503 197.27 155.52 197.182 155.555 197.099C155.589 197.017 155.64 196.942 155.703 196.879C155.767 196.816 155.842 196.766 155.925 196.733C156.007 196.699 156.096 196.682 156.185 196.683H167.007C167.097 196.682 167.185 196.699 167.268 196.733C167.351 196.766 167.426 196.816 167.49 196.879C167.553 196.942 167.604 197.017 167.638 197.099C167.673 197.182 167.69 197.27 167.69 197.359C167.69 197.449 167.673 197.537 167.638 197.62C167.604 197.702 167.553 197.777 167.49 197.84C167.426 197.903 167.351 197.953 167.268 197.986C167.185 198.02 167.097 198.037 167.007 198.036Z" fill="white"/>
<path d="M460.081 275.226C460.703 274.858 461.237 274.359 461.645 273.762C462.054 273.166 462.326 272.487 462.444 271.774C462.561 271.061 462.521 270.331 462.326 269.635C462.131 268.939 461.786 268.294 461.315 267.746L470.145 252.557L461.031 253.071L454.043 267.416C453.175 268.268 452.65 269.41 452.567 270.624C452.484 271.838 452.85 273.04 453.594 274.003C454.338 274.966 455.409 275.622 456.605 275.847C457.801 276.073 459.037 275.852 460.081 275.226Z" fill="#FFB6B6"/>
<path d="M463.644 264.059L455.485 257.703L470.311 228.965L464.755 192.368C464.481 190.559 464.608 188.712 465.127 186.957C465.647 185.203 466.546 183.584 467.761 182.217C468.976 180.849 470.478 179.766 472.158 179.044C473.839 178.321 475.658 177.978 477.487 178.038C480.789 178.151 483.912 179.569 486.17 181.982C488.428 184.394 489.637 187.604 489.532 190.907L488.159 232.578L463.644 264.059Z" fill="#CCCCCC"/>
<path d="M69.2792 256.207C69.7931 255.691 70.1875 255.068 70.4346 254.382C70.6817 253.697 70.7756 252.965 70.7095 252.239C70.6434 251.514 70.419 250.811 70.0521 250.181C69.6853 249.552 69.1848 249.01 68.5861 248.595L76.5215 209.172L67.7583 211.986L61.4064 250.118C60.7756 251.17 60.5526 252.418 60.7798 253.623C61.0069 254.829 61.6683 255.91 62.6387 256.66C63.6091 257.411 64.8211 257.779 66.045 257.696C67.2688 257.612 68.4196 257.083 69.2792 256.207Z" fill="#9E616A"/>
<path d="M80.9964 172.798L75.5593 168.693C75.5593 168.693 70.7629 168.354 69.9134 177.005C69.0639 185.657 67.3196 202.517 67.3196 202.517L58.9998 241.06L70.5167 243.588L79.4279 201.994L84.7738 189.642L80.9964 172.798Z" fill="#CCCCCC"/>
<path d="M72.0327 235.735L102.671 235.224L105.225 214.283H72.0327V235.735Z" fill="#9E616A"/>
<path d="M99.607 364.597H106.68L110.045 337.309L99.6055 337.31L99.607 364.597Z" fill="#9E616A"/>
<path d="M55.2957 365.253L62.3687 365.203L65.5422 337.892L56.3433 340.003L55.2957 365.253Z" fill="#9E616A"/>
<path d="M77.4177 196.249L75.8152 200.417L76.1354 204.585L107.501 215.451L105.945 197.211L102.419 193.043L77.4177 196.249Z" fill="#FFB6B6"/>
<path d="M90.874 158.743C97.0611 158.743 102.077 153.727 102.077 147.538C102.077 141.35 97.0611 136.333 90.874 136.333C84.687 136.333 79.6714 141.35 79.6714 147.538C79.6714 153.727 84.687 158.743 90.874 158.743Z" fill="#9E616A"/>
<path d="M97.8527 361.108L109.034 360.44V365.232L119.664 372.575C120.189 372.937 120.584 373.458 120.792 374.062C121.001 374.665 121.01 375.319 120.82 375.928C120.631 376.538 120.251 377.07 119.737 377.448C119.223 377.827 118.602 378.031 117.964 378.03H104.652L102.358 373.291L101.462 378.03H96.4429L97.8527 361.108Z" fill="#111921"/>
<path d="M52.8761 361.779L64.0522 361.034L64.0857 365.825L74.767 373.093C75.2946 373.452 75.6936 373.971 75.9059 374.572C76.1182 375.174 76.1326 375.828 75.947 376.439C75.7614 377.049 75.3855 377.585 74.8742 377.967C74.3629 378.348 73.7429 378.557 73.1049 378.561L59.7938 378.654L57.4662 373.931L56.6036 378.677L51.5847 378.712L52.8761 361.779Z" fill="#111921"/>
<path d="M53.0948 344.33L58.2451 303.154L64.3728 259.74C59.8854 251.405 69.9899 225.52 69.9899 225.52L71.4162 225.588L103.699 231.68L103.692 231.649C110.295 249.662 112.483 258.561 112.121 277.743L110.82 346.7H111.228C111.905 346.7 112.555 346.969 113.034 347.448C113.512 347.927 113.781 348.576 113.781 349.253C113.781 349.931 113.512 350.58 113.034 351.059C112.555 351.538 111.905 351.807 111.228 351.807H98.4621C98.1265 351.808 97.794 351.742 97.4837 351.614C97.1734 351.486 96.8914 351.298 96.6539 351.061C96.4163 350.824 96.2279 350.542 96.0993 350.232C95.9707 349.922 95.9045 349.589 95.9045 349.253C95.9045 348.918 95.9707 348.585 96.0993 348.275C96.2279 347.965 96.4163 347.683 96.6539 347.446C96.8914 347.209 97.1734 347.021 97.4837 346.893C97.794 346.765 98.1265 346.699 98.4621 346.7H98.7913L87.0736 264.593L77.1388 299.068L65.9047 344.014C69.9899 342.993 69.3556 345.359 69.3556 346.7C69.3556 347.377 69.0866 348.027 68.6077 348.506C68.1289 348.984 67.4795 349.254 66.8023 349.254H54.0364C53.4426 349.254 52.8672 349.048 52.4094 348.669C51.9517 348.291 51.6401 347.765 51.5286 347.182C51.417 346.598 51.5124 345.994 51.7983 345.474C52.0842 344.954 52.5427 344.549 53.0948 344.33Z" fill="#111921"/>
<path d="M67.4762 226.861L68.4975 216.646C68.6035 216.229 68.8388 215.857 69.1695 215.582C69.5002 215.307 69.9094 215.144 70.3384 215.116C70.7639 210.25 72.5543 189.257 72.6612 188.342L72.6654 188.303L73.4795 170.908C73.5091 170.276 73.7703 169.678 74.2132 169.226C74.6562 168.775 75.2498 168.503 75.8808 168.461L80.1808 168.18C80.2398 168.178 80.2957 168.154 80.3367 168.111C80.3778 168.069 80.4007 168.012 80.4007 167.953C80.4007 167.478 80.4942 167.008 80.6759 166.569C80.8577 166.13 81.124 165.731 81.4598 165.395C81.7956 165.06 82.1942 164.793 82.6329 164.611C83.0716 164.43 83.5419 164.336 84.0167 164.336H96.7476C97.5722 164.336 98.3683 164.638 98.9866 165.184C99.6048 165.729 100.003 166.482 100.105 167.3C100.111 167.357 100.138 167.409 100.18 167.446C100.223 167.484 100.278 167.504 100.334 167.503H100.336C101.782 167.473 103.192 167.963 104.308 168.883C105.424 169.804 106.174 171.094 106.42 172.52C108.161 182.649 111.649 205.637 109.924 218.418C109.324 222.867 110.618 219.343 110.845 223.065C110.868 223.425 110.819 223.786 110.702 224.127C110.585 224.468 110.402 224.782 110.163 225.052C110.652 225.23 111.051 225.593 111.273 226.063C111.496 226.533 111.524 227.072 111.352 227.563L111.576 227.508C111.51 227.768 111.394 228.012 111.234 228.228C111.074 228.443 110.873 228.624 110.642 228.762C110.412 228.9 110.157 228.991 109.892 229.029C109.626 229.068 109.356 229.055 109.096 228.989L75.7885 233.503C74.6947 233.227 67.2004 227.955 67.4762 226.861Z" fill="#CCCCCC"/>
<path d="M156.477 185.329C156.269 186.027 155.909 186.671 155.425 187.215C154.941 187.76 154.343 188.191 153.674 188.48C153.004 188.768 152.28 188.906 151.552 188.884C150.824 188.862 150.109 188.681 149.458 188.352L136.582 200.106L134.872 191.061L147.37 181.315C147.994 180.258 148.983 179.467 150.151 179.091C151.318 178.715 152.583 178.781 153.706 179.276C154.829 179.771 155.731 180.66 156.241 181.776C156.752 182.891 156.836 184.155 156.477 185.329Z" fill="#9E616A"/>
<path d="M111.66 176.345C111.66 176.345 107.17 166.196 101.5 168.213C95.829 170.23 98.7569 180.077 98.7569 180.077L120.062 212.188C120.062 212.188 150.792 192.471 147.055 192.332C143.319 192.193 142.201 185.395 142.201 185.395L125.959 193.512L125.41 190.622L124.529 191.503L122.256 189.714L111.66 176.345Z" fill="#CCCCCC"/>
<path d="M478.945 165.196C487.583 165.196 494.585 158.192 494.585 149.552C494.585 140.912 487.583 133.908 478.945 133.908C470.307 133.908 463.304 140.912 463.304 149.552C463.304 158.192 470.307 165.196 478.945 165.196Z" fill="#FFB6B6"/>
<path d="M529.14 172.572C527.335 175.13 524.701 176.985 521.684 177.822C520.477 178.181 519.231 178.393 517.973 178.453C517.817 177.03 517.445 175.639 516.869 174.328C516.928 175.723 516.734 177.117 516.297 178.443C514.407 178.336 512.56 177.841 510.871 176.989C509.211 176.154 507.768 174.943 506.658 173.453C505.547 171.963 504.799 170.235 504.473 168.405C503.81 164.126 505.75 159.925 506.451 155.652C507.156 151.38 505.834 145.969 501.652 144.846C498.468 143.99 498.825 144.36 496.178 146.326C498.931 150.398 488.76 165.322 484.598 164.02C482.245 163.285 480.738 161.125 480.253 161.125C476.981 166.761 483.141 176.258 476.933 178.231L477.445 177.719C481.192 173.109 473.36 163.351 477.107 158.741C478.152 157.451 479.265 155.923 478.956 154.291C478.664 152.741 476.203 151.92 475.483 153.194C476.779 150.225 474.865 146.261 471.697 145.499C468.882 144.82 468.934 145.656 466.11 146.02C465.925 144.799 465.58 143.608 465.084 142.478C465.135 143.696 464.993 144.914 464.662 146.088C463.665 146.068 462.701 145.72 461.922 145.097C459.619 143.24 460.085 139.341 462.14 137.215C464.199 135.088 467.258 134.322 470.175 133.827C471.023 127.92 487.318 127.304 489.478 133.206C490.398 128.798 495.914 126.511 500.201 127.878C504.489 129.246 507.464 133.251 509.031 137.472C510.597 141.69 511.035 146.229 512 150.624C512.965 155.019 514.595 159.494 517.953 162.489C521.311 165.481 526.783 166.472 530.321 163.692C530.835 165.161 530.996 166.73 530.791 168.273C530.586 169.816 530.021 171.288 529.14 172.572Z" fill="#111921"/>
<path d="M675.877 208.271L673.687 219.259C673.522 220.099 673.35 220.954 673.162 221.802C671.332 221.423 669.434 221.529 667.658 222.11C669.067 224.124 670.33 226.237 671.437 228.432C670.057 232.685 668.033 236.616 664.643 239.458C662.379 241.315 659.676 242.556 656.792 243.063C653.909 243.57 650.944 243.326 648.183 242.354L648.281 241.918C644.636 234.845 646.616 225.927 651.145 219.394C653.455 216.171 656.192 213.277 659.281 210.791C662.341 208.241 665.648 205.953 668.925 203.696C669.661 203.189 670.531 202.914 671.425 202.905C672.318 202.896 673.193 203.153 673.94 203.644C674.686 204.136 675.269 204.838 675.614 205.662C675.959 206.486 676.05 207.395 675.877 208.271Z" fill="#E4E4E4"/>
<path d="M648.963 268.793C648.041 262.078 647.093 255.277 647.74 248.49C648.314 242.462 650.152 236.575 653.895 231.748C655.882 229.19 658.3 226.999 661.04 225.272C661.754 224.822 662.411 225.954 661.7 226.403C656.96 229.399 653.294 233.824 651.23 239.039C648.95 244.838 648.584 251.161 648.98 257.321C649.218 261.046 649.721 264.746 650.228 268.444C650.269 268.611 650.245 268.788 650.16 268.938C650.075 269.088 649.936 269.199 649.771 269.25C649.604 269.295 649.425 269.272 649.274 269.186C649.124 269.101 649.013 268.959 648.966 268.792L648.963 268.793Z" fill="#F2F2F2"/>
<path d="M701.107 379.27L0.892991 379.5C0.656631 379.499 0.43019 379.405 0.2633 379.238C0.0964092 379.07 0.00268555 378.843 0.00268555 378.607C0.00268555 378.371 0.0964092 378.144 0.2633 377.976C0.43019 377.809 0.656631 377.715 0.892991 377.714L701.107 377.483C701.344 377.484 701.57 377.578 701.737 377.746C701.904 377.913 701.998 378.14 701.998 378.376C701.998 378.613 701.904 378.84 701.737 379.007C701.57 379.174 701.344 379.269 701.107 379.27Z" fill="#CACACA"/>
<path d="M77.689 140.677C75.9709 141.502 74.0476 140.261 72.5643 139.032L73.0949 139.49C70.4733 142.042 69.2476 145.712 68.6487 149.325C68.0491 152.935 67.9823 156.626 67.2275 160.21C66.4721 163.79 64.905 167.387 61.9781 169.579C58.0569 172.516 52.6487 172.328 47.8366 171.427C47.7725 171.414 47.7128 171.404 47.6487 171.391C48.9434 167.652 49.4698 163.69 49.1961 159.742C47.9062 163.698 45.7104 167.298 42.7835 170.255C39.593 169.377 36.4789 168.242 33.4715 166.861C31.5256 165.966 29.4304 164.741 28.8903 162.667C28.3489 160.608 29.6062 158.449 31.2873 157.149C32.9685 155.849 35.0318 155.171 36.947 154.245C38.8591 153.324 40.7512 152.01 41.5168 150.026C43.2826 145.463 38.2524 140.226 40.2128 135.741C41.1795 133.535 43.5474 132.335 45.7729 131.41C49.1705 130.001 52.6594 128.824 56.2157 127.887C59.3377 127.063 62.5975 126.423 65.7778 126.963C68.9582 127.503 72.0739 129.438 73.2186 132.459C75.1284 133.104 77.1561 133.832 78.3818 135.44C79.6069 137.044 79.5081 139.806 77.689 140.677Z" fill="#111921"/>
<path d="M92.9766 135.39C88.0614 131.508 84.0873 132.171 81.0215 134.582C80.5061 134.009 78.3128 135.587 77.5702 135.36L74.8842 140.403C73.502 142.843 72.9349 145.333 73.1584 146.735C70.6159 153.866 76.645 158.682 83.775 161.225C86.62 162.246 89.7242 162.291 92.5976 161.353L92.6852 160.137L93.2251 161.133C93.2251 161.133 99.7433 174.557 101.284 175.16C100.349 172.735 97.884 161.21 97.1959 158.808C96.2525 155.539 96.8969 150.346 97.4514 147.162C97.797 145.2 97.8151 143.193 97.505 141.224L97.4912 141.138L99.0163 144.217L102.438 142.065C101.13 138.255 101.104 133.698 92.9766 135.39Z" fill="#111921"/>
</g>
<defs>
<clipPath id="clip0_54_3464">
<rect width="702" height="379" fill="white" transform="translate(0 0.5)"/>
</clipPath>
</defs>
</svg>
