<svg width="137" height="21" viewBox="0 0 137 21" fill="none" xmlns="http://www.w3.org/2000/svg">
<path d="M24.672 3.152L20.28 20H15.312L12.624 8.912L9.84 20H4.872L0.6 3.152H4.992L7.416 15.416L10.416 3.152H14.928L17.808 15.416L20.256 3.152H24.672ZM38.8742 13.088C38.8742 13.472 38.8502 13.872 38.8022 14.288H29.5142C29.5782 15.12 29.8422 15.76 30.3062 16.208C30.7862 16.64 31.3702 16.856 32.0582 16.856C33.0822 16.856 33.7942 16.424 34.1942 15.56H38.5622C38.3382 16.44 37.9302 17.232 37.3382 17.936C36.7622 18.64 36.0342 19.192 35.1542 19.592C34.2742 19.992 33.2902 20.192 32.2022 20.192C30.8902 20.192 29.7222 19.912 28.6982 19.352C27.6742 18.792 26.8742 17.992 26.2982 16.952C25.7222 15.912 25.4342 14.696 25.4342 13.304C25.4342 11.912 25.7142 10.696 26.2742 9.656C26.8502 8.616 27.6502 7.816 28.6742 7.256C29.6982 6.696 30.8742 6.416 32.2022 6.416C33.4982 6.416 34.6502 6.688 35.6582 7.232C36.6662 7.776 37.4502 8.552 38.0102 9.56C38.5862 10.568 38.8742 11.744 38.8742 13.088ZM34.6742 12.008C34.6742 11.304 34.4342 10.744 33.9542 10.328C33.4742 9.912 32.8742 9.704 32.1542 9.704C31.4662 9.704 30.8822 9.904 30.4022 10.304C29.9382 10.704 29.6502 11.272 29.5382 12.008H34.6742ZM44.6633 8.504C45.0473 7.88 45.5993 7.376 46.3193 6.992C47.0393 6.608 47.8633 6.416 48.7913 6.416C49.8953 6.416 50.8953 6.696 51.7913 7.256C52.6873 7.816 53.3913 8.616 53.9033 9.656C54.4313 10.696 54.6953 11.904 54.6953 13.28C54.6953 14.656 54.4313 15.872 53.9033 16.928C53.3913 17.968 52.6873 18.776 51.7913 19.352C50.8953 19.912 49.8953 20.192 48.7913 20.192C47.8473 20.192 47.0233 20.008 46.3193 19.64C45.6153 19.256 45.0633 18.752 44.6633 18.128V20H40.5593V2.24H44.6633V8.504ZM50.5193 13.28C50.5193 12.256 50.2313 11.456 49.6553 10.88C49.0953 10.288 48.3993 9.992 47.5673 9.992C46.7513 9.992 46.0553 10.288 45.4793 10.88C44.9193 11.472 44.6393 12.28 44.6393 13.304C44.6393 14.328 44.9193 15.136 45.4793 15.728C46.0553 16.32 46.7513 16.616 47.5673 16.616C48.3833 16.616 49.0793 16.32 49.6553 15.728C50.2313 15.12 50.5193 14.304 50.5193 13.28ZM61.8163 20.192C60.6483 20.192 59.6083 19.992 58.6963 19.592C57.7843 19.192 57.0643 18.648 56.5363 17.96C56.0083 17.256 55.7123 16.472 55.6483 15.608H59.7043C59.7523 16.072 59.9683 16.448 60.3523 16.736C60.7363 17.024 61.2083 17.168 61.7683 17.168C62.2803 17.168 62.6723 17.072 62.9443 16.88C63.2323 16.672 63.3763 16.408 63.3763 16.088C63.3763 15.704 63.1763 15.424 62.7763 15.248C62.3763 15.056 61.7283 14.848 60.8323 14.624C59.8723 14.4 59.0723 14.168 58.4323 13.928C57.7923 13.672 57.2403 13.28 56.7763 12.752C56.3123 12.208 56.0803 11.48 56.0803 10.568C56.0803 9.8 56.2883 9.104 56.7043 8.48C57.1363 7.84 57.7603 7.336 58.5763 6.968C59.4083 6.6 60.3923 6.416 61.5283 6.416C63.2083 6.416 64.5283 6.832 65.4883 7.664C66.4643 8.496 67.0243 9.6 67.1683 10.976H63.3763C63.3123 10.512 63.1043 10.144 62.7523 9.872C62.4163 9.6 61.9683 9.464 61.4083 9.464C60.9283 9.464 60.5603 9.56 60.3043 9.752C60.0483 9.928 59.9203 10.176 59.9203 10.496C59.9203 10.88 60.1203 11.168 60.5203 11.36C60.9363 11.552 61.5763 11.744 62.4403 11.936C63.4323 12.192 64.2403 12.448 64.8643 12.704C65.4883 12.944 66.0323 13.344 66.4963 13.904C66.9763 14.448 67.2243 15.184 67.2403 16.112C67.2403 16.896 67.0163 17.6 66.5683 18.224C66.1363 18.832 65.5043 19.312 64.6723 19.664C63.8563 20.016 62.9043 20.192 61.8163 20.192ZM76.7351 16.52V20H74.6471C73.1591 20 71.9991 19.64 71.1671 18.92C70.3351 18.184 69.9191 16.992 69.9191 15.344V10.016H68.2871V6.608H69.9191V3.344H74.0231V6.608H76.7111V10.016H74.0231V15.392C74.0231 15.792 74.1191 16.08 74.3111 16.256C74.5031 16.432 74.8231 16.52 75.2711 16.52H76.7351ZM86.7731 6.464C88.3091 6.464 89.5411 6.976 90.4691 8C91.3971 9.008 91.8611 10.4 91.8611 12.176V20H87.7811V12.728C87.7811 11.832 87.5491 11.136 87.0851 10.64C86.6211 10.144 85.9971 9.896 85.2131 9.896C84.4291 9.896 83.8051 10.144 83.3411 10.64C82.8771 11.136 82.6451 11.832 82.6451 12.728V20H78.5411V2.24H82.6451V8.408C83.0611 7.816 83.6291 7.344 84.3491 6.992C85.0691 6.64 85.8771 6.464 86.7731 6.464ZM106.857 13.088C106.857 13.472 106.833 13.872 106.785 14.288H97.497C97.561 15.12 97.825 15.76 98.289 16.208C98.769 16.64 99.353 16.856 100.041 16.856C101.065 16.856 101.777 16.424 102.177 15.56H106.545C106.321 16.44 105.913 17.232 105.321 17.936C104.745 18.64 104.017 19.192 103.137 19.592C102.257 19.992 101.273 20.192 100.185 20.192C98.873 20.192 97.705 19.912 96.681 19.352C95.657 18.792 94.857 17.992 94.281 16.952C93.705 15.912 93.417 14.696 93.417 13.304C93.417 11.912 93.697 10.696 94.257 9.656C94.833 8.616 95.633 7.816 96.657 7.256C97.681 6.696 98.857 6.416 100.185 6.416C101.481 6.416 102.633 6.688 103.641 7.232C104.649 7.776 105.433 8.552 105.993 9.56C106.569 10.568 106.857 11.744 106.857 13.088ZM102.657 12.008C102.657 11.304 102.417 10.744 101.937 10.328C101.457 9.912 100.857 9.704 100.137 9.704C99.449 9.704 98.865 9.904 98.385 10.304C97.921 10.704 97.633 11.272 97.521 12.008H102.657ZM116.006 16.52V20H113.918C112.43 20 111.27 19.64 110.438 18.92C109.606 18.184 109.19 16.992 109.19 15.344V10.016H107.558V6.608H109.19V3.344H113.294V6.608H115.982V10.016H113.294V15.392C113.294 15.792 113.39 16.08 113.582 16.256C113.774 16.432 114.094 16.52 114.542 16.52H116.006ZM119.876 5.216C119.156 5.216 118.564 5.008 118.1 4.592C117.652 4.16 117.428 3.632 117.428 3.008C117.428 2.368 117.652 1.84 118.1 1.424C118.564 0.991999 119.156 0.775999 119.876 0.775999C120.58 0.775999 121.156 0.991999 121.604 1.424C122.068 1.84 122.3 2.368 122.3 3.008C122.3 3.632 122.068 4.16 121.604 4.592C121.156 5.008 120.58 5.216 119.876 5.216ZM121.916 6.608V20H117.812V6.608H121.916ZM123.594 13.304C123.594 11.912 123.874 10.696 124.434 9.656C125.01 8.616 125.802 7.816 126.81 7.256C127.834 6.696 129.002 6.416 130.314 6.416C131.994 6.416 133.394 6.856 134.514 7.736C135.65 8.616 136.394 9.856 136.746 11.456H132.378C132.01 10.432 131.298 9.92 130.242 9.92C129.49 9.92 128.89 10.216 128.442 10.808C127.994 11.384 127.77 12.216 127.77 13.304C127.77 14.392 127.994 15.232 128.442 15.824C128.89 16.4 129.49 16.688 130.242 16.688C131.298 16.688 132.01 16.176 132.378 15.152H136.746C136.394 16.72 135.65 17.952 134.514 18.848C133.378 19.744 131.978 20.192 130.314 20.192C129.002 20.192 127.834 19.912 126.81 19.352C125.802 18.792 125.01 17.992 124.434 16.952C123.874 15.912 123.594 14.696 123.594 13.304Z" fill="white"/>
</svg>
